<?xml version="1.0" encoding="utf-8"?>
<!-- Generator: Adobe Illustrator 25.2.1, SVG Export Plug-In . SVG Version: 6.00 Build 0)  -->
<svg version="1.1" id="Layer_1" xmlns="http://www.w3.org/2000/svg" xmlns:xlink="http://www.w3.org/1999/xlink" x="0px" y="0px"
	 viewBox="0 0 800 800" style="enable-background:new 0 0 800 800;" xml:space="preserve">
<style type="text/css">
	.st0{fill-rule:evenodd;clip-rule:evenodd;fill:#7209B7;}
</style>
<g id="SVGRepo_bgCarrier">
</g>
<g id="SVGRepo_tracerCarrier">
</g>
<g id="SVGRepo_iconCarrier">
	<g id="Page-1">
		<g id="add" transform="translate(42.666667, 64.000000)">
			<path id="Combined-Shape" class="st0" d="M458.8,187.8c119.5,0,216.3,96.9,216.3,216.3c0,45.5-14.1,87.8-38.1,122.6l110.4,110.4
				l-55.6,55.6L581.5,582.4c-34.9,24-77.1,38.1-122.6,38.1c-119.5,0-216.3-96.9-216.3-216.3S339.4,187.8,458.8,187.8z M458.8,266.5
				c-76,0-137.7,61.6-137.7,137.7s61.6,137.7,137.7,137.7s137.7-61.6,137.7-137.7S534.9,266.5,458.8,266.5z M203.9,384.5
				c-0.5,6.5-0.7,13.1-0.7,19.7c0,20.3,2.4,40.1,6.8,59l-242.8,0v-78.7L203.9,384.5z M124.5-48.2v393.3H6.5V-48.2H124.5z
				 M281.8,109.2l0,110.5c-34.9,33.5-60.3,76.8-71.8,125.5l-46.2,0v-236H281.8z M439.2,30.5l0,118.7c-43.2,3.3-83.5,17.3-118,39.4
				l0-158.2H439.2z M596.5,69.8l0,118.9c-34.6-22.1-74.8-36.2-118-39.4l0-79.4H596.5z"/>
		</g>
	</g>
</g>
</svg>
