<!DOCTYPE svg PUBLIC "-//W3C//DTD SVG 1.1//EN" "http://www.w3.org/Graphics/SVG/1.1/DTD/svg11.dtd">
<!-- Uploaded to: SVG Repo, www.svgrepo.com, Transformed by: SVG Repo Mixer Tools -->
<svg width="800px" height="800px" viewBox="0 0 36 36" xmlns="http://www.w3.org/2000/svg" xmlns:xlink="http://www.w3.org/1999/xlink" aria-hidden="true" role="img" class="iconify iconify--twemoji" preserveAspectRatio="xMidYMid meet" fill="#000000">
<g id="SVGRepo_bgCarrier" stroke-width="0"/>
<g id="SVGRepo_tracerCarrier" stroke-linecap="round" stroke-linejoin="round"/>
<g id="SVGRepo_iconCarrier">
<path fill="#ffc300" d="M28 32a4 4 0 0 1-4 4H4c-2.209 0-4-1.875-4-8V4a4 4 0 0 1 4-4h20a4 4 0 0 1 4 4v28z"/>
<path fill="#ffd60a" d="M31 36H4c4 0 4-8 4-8a4 4 0 0 1 4-4h20c2.209 0 4 2 4 4c0 0 .25 8-5 8z"/>
<path fill="#ffffff" d="M24 7a1 1 0 0 1-1 1H5a1 1 0 0 1 0-2h18a1 1 0 0 1 1 1zm0 4a1 1 0 0 1-1 1H5a1 1 0 0 1 0-2h18a1 1 0 0 1 1 1zm0 4a1 1 0 0 1-1 1H5a1 1 0 0 1 0-2h18a1 1 0 0 1 1 1zm0 4a1 1 0 0 1-1 1H5a1 1 0 1 1 0-2h18a1 1 0 0 1 1 1z"/>
</g>
</svg>