<svg xmlns="http://www.w3.org/2000/svg" viewBox="0 0 152.95 375.98"><defs><style>.cls-1{fill:#e7f2f8;}.cls-2{fill:#070517;}.cls-3{fill:#febea3;}.cls-4{fill:#263238;}.cls-5{fill:#ebaf97;}.cls-6{fill:#455a64;}.cls-7{fill:#cf332f;}.cls-8,.cls-9{fill:none;stroke:#4e44ab;stroke-linecap:round;stroke-linejoin:round;stroke-width:0.87px;}.cls-9{stroke-dasharray:2.63 2.63;}.cls-10{fill:#d6a08a;}.cls-11,.cls-12{fill:#e53834;}.cls-12{opacity:0.14;}</style></defs><g id="OBJECTS"><path class="cls-1" d="M346.72,445.57c0,3.74-30.64,6.77-68.43,6.77s-68.43-3-68.43-6.77,30.64-6.77,68.43-6.77S346.72,441.83,346.72,445.57Z" transform="translate(-193.77 -76.36)"/><path class="cls-2" d="M223.49,85.39s-11.7,23.64-13.92,32,5.19,16.49,4.7,28.81,19.12,18.22,32.69,16,13.82-20.11,11.84-30.12,1.75-22.08-5.93-37.59S223.49,85.39,223.49,85.39Z" transform="translate(-193.77 -76.36)"/><path class="cls-3" d="M231.8,434.26h12.6s-.71-7.54-1.49-18q-7.95.16-15.87.37C229.61,425.92,231.8,434.26,231.8,434.26Z" transform="translate(-193.77 -76.36)"/><path class="cls-4" d="M306.67,415.57c-5.31-25.11-14.23-68.16-15.92-81.9-2.44-19.81-23.18-108.2-24.4-109s-37,22.86-51.62,0c0,0-11.79,37-11.79,54.1s14.22,65.15,15.44,71.63-.81,34.67,2.85,46.1c1.6,5,3.82,12.82,5.81,20.06q7.92-.19,15.87-.37c-1.51-20.27-3.29-51.55-.74-60.84,3.86-14.1,0-78.87,0-78.87s13.61,50.3,18.9,61a144.71,144.71,0,0,0,8.94,16s1.63,18.67,7.32,28.95c3.12,5.64,8.2,20.67,12.14,33.1C295.22,415.51,301,415.53,306.67,415.57Z" transform="translate(-193.77 -76.36)"/><path class="cls-3" d="M289.47,415.54c3.26,10.24,5.75,18.72,5.75,18.72h15.45s-1.65-7.6-4-18.69C301,415.53,295.22,415.51,289.47,415.54Z" transform="translate(-193.77 -76.36)"/><path class="cls-3" d="M222.22,137.79a4.58,4.58,0,0,0,.54-.57c2.55-3.43,1.53-13.67,1.53-13.67,6.63,6,19.53,2,19.53,2s-.81,10.17,2.19,13c-3.73,5.56-6.21,8.32-11.87,8.12C229.29,146.52,224.44,140.64,222.22,137.79Z" transform="translate(-193.77 -76.36)"/><path class="cls-5" d="M224.28,123.54a27,27,0,0,0,19.54,2l.16,7.52S230,137.69,224.28,123.54Z" transform="translate(-193.77 -76.36)"/><path class="cls-3" d="M236.87,80.18a14.12,14.12,0,0,1,10.85,7.95,35.26,35.26,0,0,1,3.74,16.69c-.47,13.25-3.61,23.65-13.48,25.88s-16.73-10-17.78-15.6C219.25,110.05,216.4,77.66,236.87,80.18Z" transform="translate(-193.77 -76.36)"/><path class="cls-6" d="M269.65,164.28c-.38-6.22,1.58-13.52,3.36-18.69a2.34,2.34,0,0,0-.7-.67c-4.66-2.31-23-3.55-26.16-6.22l-.14-.12c-3.73,5.56-6.21,8.32-11.87,8.12-4.85-.18-9.7-6.06-11.92-8.91-4.1,3.7-23,11.35-26.24,17.31q-.12.22-.24.51c2.39,3.22,6.34,9.12,8.13,15,2.67,8.77,8.22,49.67,8.22,49.67l6.92,1.56h0l22.25,5,2.26-6.8c5.67-1.64,18.19-5.15,26.37-6.64.2-.92,1.4-6.52,2.07-9.19.53-2.12,1.24-6.44,1.76-8.93C272,184,270,170.24,269.65,164.28Z" transform="translate(-193.77 -76.36)"/><path class="cls-3" d="M275.19,228.76a131.89,131.89,0,0,1-33.54-1.8l-.39-.09a19,19,0,0,1-4.88-.66,6.85,6.85,0,0,1-1-.67h0l-9-2c-.07.7-.12,1.4-.19,1.78a1.62,1.62,0,0,1-.9,1.19,14.72,14.72,0,0,1-.6-3.36l-.79-.17c-.17.76-.34,1.58-.46,2.11a2,2,0,0,1-1.61,1.61,34.71,34.71,0,0,1,.26-4.13l-2-.45a1.16,1.16,0,0,1-1-.17.18.18,0,0,1,0-.06l-6.92-1.56s-2.22-16.36-4.53-30.6a131.47,131.47,0,0,1-13.61,0c.19,6.54.48,12.45.7,16.1.67,11.38,2.44,20.85,4.22,23s14.28,14.21,54.78,6.75c0,0,11-3.22,21.55-6.73Z" transform="translate(-193.77 -76.36)"/><path class="cls-6" d="M207.56,189.68c-1.34-8.28-2.71-15.85-3.69-19.07-1.79-5.88-5.74-11.78-8.13-15-2.1,4.93-2.17,20.79-1.79,34.06A131.47,131.47,0,0,0,207.56,189.68Z" transform="translate(-193.77 -76.36)"/><path class="cls-6" d="M273,145.59c-1.78,5.17-3.74,12.47-3.36,18.69.17,2.88.72,7.57,1.44,12.92A55.78,55.78,0,0,0,283,170.42C279.07,158.42,275.11,148.32,273,145.59Z" transform="translate(-193.77 -76.36)"/><path class="cls-3" d="M283,170.42a55.78,55.78,0,0,1-11.89,6.78c.77,5.74,1.73,12.24,2.63,18.11a10.36,10.36,0,0,1,.47-1.83c.44-.87,1.33.92,1.41,2.08s0,3.45,0,3.45,5-5.39,5.24-5.34.32,1.16,0,3.05-3.65,5.36-3.94,5.67c.39-.32,6.68-5.37,6.89-5.37s.28,1.45-.31,2.42a65.57,65.57,0,0,1-4.65,5.63,8.13,8.13,0,0,0-1.6,3.46s6.84-5.79,7-5.79.46,1.55-.68,2.81-4.14,4.11-5,4.9-1.83,1.51-2.17,1.76h0c-.78-.09-1.83.53-3.24.7l-3.28.65s0-.05,0-.13c-9.7,1.77-25.49,6.37-28.75,7.34l-.6.17,1.1,5.95V227a131.89,131.89,0,0,0,33.54,1.8h0c7.47-2.52,14.68-5.18,17.44-7C296.73,219.21,289.93,191.8,283,170.42Z" transform="translate(-193.77 -76.36)"/><path class="cls-3" d="M241.64,226.89l-.38,0a19,19,0,0,1-4.88-.66,6.85,6.85,0,0,1-1-.67h0a15.57,15.57,0,0,1-3.17-3.42A4.6,4.6,0,0,0,229,220c-.47-.06-2,1-2.31,1.36a5.75,5.75,0,0,0-.39,2.13c-.07.7-.12,1.4-.19,1.78a1.62,1.62,0,0,1-.9,1.19,14.72,14.72,0,0,1-.6-3.36,20.43,20.43,0,0,0-.29-2.16,13.54,13.54,0,0,0-.5,2c-.17.76-.34,1.58-.46,2.11a2,2,0,0,1-1.61,1.61,34.71,34.71,0,0,1,.26-4.13,20.46,20.46,0,0,0,.13-2.25h0a11.31,11.31,0,0,1-2,1.74.31.31,0,0,1-.12,0,1.16,1.16,0,0,1-1-.17.18.18,0,0,1,0-.06c.22-.61,2.63-5.75,3.55-6.72s4.31-1.77,4.31-1.77a11.59,11.59,0,0,0-1.38-1.19,31.25,31.25,0,0,0-4.05-1c-.94-.25-2.71-1-2.55-2s6.45-.17,7.59,0,4.42,3.54,5.25,4.32,6.45,5.81,8,6.76a4,4,0,0,0,1.4.49l-.6.17Z" transform="translate(-193.77 -76.36)"/><path class="cls-5" d="M219,221.85v.05h0a1.17,1.17,0,0,0,.87.16,1.83,1.83,0,0,0,.78-.5c.25-.21.48-.43.71-.65a6.71,6.71,0,0,0,.64-.69h0l.06,0h0c.08,0,.15.15.13.12v.59l0,.58-.08,1.17-.15,2.32-.07,1.16v.48h0l0,0a.18.18,0,0,0-.09-.07h0c-.05,0,.1,0,.15-.06a1.28,1.28,0,0,0,.24-.11,2,2,0,0,0,.73-.73,3.5,3.5,0,0,0,.31-1.05l.48-2.28c.09-.38.17-.76.28-1.14l.06-.16,0,0,0,0v0a.31.31,0,0,1,.11-.09.24.24,0,0,1,.3.08l0,.08,0,.07c0,.11,0,.21,0,.31l.07.58.26,2.31a10.89,10.89,0,0,0,.41,2.2l-.24-.08a1.39,1.39,0,0,0,.66-.61,2.42,2.42,0,0,0,.23-1l.23-2.09a8.27,8.27,0,0,1,.21-1.06.73.73,0,0,1,.15-.27l.21-.18c.14-.11.28-.22.43-.32a9.15,9.15,0,0,1,.9-.57,1.43,1.43,0,0,1,1-.27,5.23,5.23,0,0,1,3.33,2.49,15.22,15.22,0,0,0,2.9,3h0v0a4.26,4.26,0,0,0,1.37.77,10.43,10.43,0,0,0,1.58.27c1.08.11,2.17.17,3.26.21h0c2.76.45,5.55.85,8.33,1.19s5.58.66,8.38.87,5.6.44,8.4.46a57.54,57.54,0,0,0,8.4-.45s0,0,0,0,0,0,0,0a45.52,45.52,0,0,1-8.41.76c-2.82,0-5.64-.06-8.44-.26s-5.62-.49-8.41-.87-5.57-.79-8.34-1.32h0c-1.08-.06-2.18-.14-3.27-.29a10.4,10.4,0,0,1-1.63-.31,4.71,4.71,0,0,1-1.46-.85h0a15.18,15.18,0,0,1-2.91-3.08A6.35,6.35,0,0,0,231,221a4.19,4.19,0,0,0-1.85-.86c-.32-.1-.62.11-.93.26a10,10,0,0,0-.87.57l-.41.32-.19.16a.48.48,0,0,0-.09.19,6.58,6.58,0,0,0-.17,1l-.17,2.1a2.69,2.69,0,0,1-.23,1.08,1.88,1.88,0,0,1-.83.82h0a.17.17,0,0,1-.23-.08,4.6,4.6,0,0,1-.34-1.19c-.07-.39-.14-.77-.19-1.16l-.28-2.32-.08-.57,0-.27h0l0,0a.27.27,0,0,0,.28.07.24.24,0,0,0,.09-.08h0s0,0,0,0l0,.12c-.1.35-.19.74-.28,1.11l-.51,2.28a3.66,3.66,0,0,1-.38,1.16,2.4,2.4,0,0,1-.9.89,2.09,2.09,0,0,1-.3.14.83.83,0,0,1-.41.06h0a.24.24,0,0,1-.1-.08c0-.09,0-.05,0-.09a.2.2,0,0,1,0-.07v-.54c0-.39.06-.78.09-1.17l.23-2.32.11-1.16.05-.58,0-.28v-.24h0c0-.05,0,.12.11.09l.1,0h0l0,0a6,6,0,0,1-.72.71c-.24.21-.49.42-.75.62a2,2,0,0,1-.86.48,1.14,1.14,0,0,1-.95-.25h0v-.06s0,0,0,0S219,221.84,219,221.85Z" transform="translate(-193.77 -76.36)"/><path class="cls-5" d="M222.14,220.28a10.62,10.62,0,0,1,.64-1.9,5.29,5.29,0,0,1,.49-.9,1.64,1.64,0,0,1,.42-.41l.44-.26a17.37,17.37,0,0,1,1.8-.85,16.74,16.74,0,0,1,1.88-.67c-.55.39-1.12.72-1.69,1.05s-1.16.64-1.72.95l-.42.24a1.48,1.48,0,0,0-.3.26c-.19.23-.35.52-.53.79C222.81,219.13,222.5,219.71,222.14,220.28Z" transform="translate(-193.77 -76.36)"/><path class="cls-5" d="M224.32,220.94a4.1,4.1,0,0,1,.64-1.53,5.13,5.13,0,0,1,1.32-1,14.94,14.94,0,0,1,1.42-.77,11.12,11.12,0,0,1,1.51-.62,15.23,15.23,0,0,1-1.29,1c-.44.31-.9.59-1.35.87a8.62,8.62,0,0,0-1.28.85A8.83,8.83,0,0,0,224.32,220.94Z" transform="translate(-193.77 -76.36)"/><polygon class="cls-7" points="77.32 100.84 74.32 86.32 80.19 99.52 77.32 100.84"/><polygon class="cls-7" points="13.79 113.32 10.9 97.47 10.9 113.31 13.79 113.32"/><path class="cls-3" d="M283.57,205.55c-1.14,1.26-4.14,4.11-5,4.9s-1.83,1.51-2.17,1.76l-.1.08-3.14.62-3.28.65s0-.05,0-.13c.2-.92,1.4-6.52,2.07-9.19.53-2.12,1.24-6.44,1.76-8.93a10.36,10.36,0,0,1,.47-1.83c.44-.87,1.33.92,1.41,2.08s0,3.45,0,3.45,5-5.39,5.24-5.34.32,1.16,0,3.05-3.65,5.36-3.94,5.67c.39-.32,6.68-5.37,6.89-5.37s.28,1.45-.31,2.42a65.57,65.57,0,0,1-4.65,5.63,8.13,8.13,0,0,0-1.6,3.46s6.84-5.79,7-5.79S284.71,204.29,283.57,205.55Z" transform="translate(-193.77 -76.36)"/><path class="cls-5" d="M273.69,195.3l.2-1a2.17,2.17,0,0,1,.38-1c.19-.18.46,0,.57.1a2.2,2.2,0,0,1,.33.44,4.75,4.75,0,0,1,.42,1,8.17,8.17,0,0,1,.22,2.13c0,.7,0,1.4,0,2.1l-.35-.14,3-3.21c.5-.54,1-1.06,1.54-1.58l.4-.39.12-.09a.38.38,0,0,1,.17-.12.45.45,0,0,1,.19,0,.31.31,0,0,1,.19.1.52.52,0,0,1,.12.21,3.77,3.77,0,0,1,.1,1.18,11.74,11.74,0,0,1-.32,2.24,8.66,8.66,0,0,1-1.11,2,31.7,31.7,0,0,1-2.86,3.36l-.17-.18,4.42-3.47c.73-.58,1.45-1.17,2.22-1.73l.14-.1.11-.06c.05,0,.07-.05.17,0s.14.29.17.42a2.89,2.89,0,0,1,0,.72,3.62,3.62,0,0,1-.42,1.39,52.26,52.26,0,0,1-3.47,4.44l-.92,1.07a5.17,5.17,0,0,0-.82,1.07,9,9,0,0,0-.93,2.55l-.43-.25,4.19-3.56,2.13-1.74.56-.43a.84.84,0,0,1,.3-.14.38.38,0,0,1,.25.1l.06.08a.73.73,0,0,1,.06.14,1.64,1.64,0,0,1,.08.41,3.35,3.35,0,0,1-.24,1.47,3.62,3.62,0,0,1-.81,1.21l-1,1-2,1.9-2,1.9-2.17,1.71h0l-.11.09s0,0-.06,0h0c-2.15.4-4.3.77-6.45,1.14a0,0,0,0,1,0,0s0,0,0,0c2.13-.47,4.26-.95,6.39-1.39l-.06,0,.1-.07h0l2.1-1.74,1.94-1.94,1.93-1.94a6.64,6.64,0,0,0,1.67-2,2.72,2.72,0,0,0,.19-1.22,1,1,0,0,0,0-.26s0,0,0,0h0a.21.21,0,0,0,.17.07s.09,0,0,0l-.53.41-2.12,1.74-4.22,3.51h0a.26.26,0,0,1-.36,0,.25.25,0,0,1,0-.22,9,9,0,0,1,1-2.69,5.27,5.27,0,0,1,.9-1.13l.94-1a49.67,49.67,0,0,0,3.54-4.31,3.33,3.33,0,0,0,.41-1.27,2.59,2.59,0,0,0,0-.68.55.55,0,0,0-.05-.23c.06,0-.09.08-.17.15-.76.54-1.5,1.11-2.24,1.68-1.48,1.15-2.93,2.33-4.37,3.52a.14.14,0,0,1-.18,0,.15.15,0,0,1,0-.17,31.76,31.76,0,0,0,2.72-3.41,8.74,8.74,0,0,0,1-1.88,11.07,11.07,0,0,0,.27-2.1,3.47,3.47,0,0,0-.08-1v0s.12.07.15.06,0,0,0,0l-.1.08-.39.37c-.52.5-1,1-1.55,1.55l-3,3.16h0a.19.19,0,0,1-.28,0,.22.22,0,0,1-.06-.15c0-.7.06-1.4.07-2.09a7.33,7.33,0,0,0-.14-2,5.23,5.23,0,0,0-.35-1,2,2,0,0,0-.28-.41c-.1-.12-.24-.2-.33-.11a2.21,2.21,0,0,0-.37.91l-.25,1s0,0,0,0S273.69,195.31,273.69,195.3Z" transform="translate(-193.77 -76.36)"/><path class="cls-5" d="M276.88,202.4c-.61.85-1.32,1.61-1.89,2.43a5.49,5.49,0,0,0-.57,1.38l-.46,1.48a11.55,11.55,0,0,1,.21-1.55,4.7,4.7,0,0,1,.54-1.49A12.86,12.86,0,0,1,276.88,202.4Z" transform="translate(-193.77 -76.36)"/><path class="cls-5" d="M272.83,204.15a5.23,5.23,0,0,1,.49-1.39c.2-.45.44-.87.67-1.31A18.7,18.7,0,0,1,275.6,199c-.38.91-.86,1.75-1.32,2.61l-.74,1.26A14.25,14.25,0,0,0,272.83,204.15Z" transform="translate(-193.77 -76.36)"/><path class="cls-8" d="M214.44,241.48l-.36,1.24" transform="translate(-193.77 -76.36)"/><path class="cls-9" d="M213.39,245.26c-2,7.57-6.12,24.78-5.25,35.24,1.15,13.72,16.63,64,16.18,68.9s-2.11,30.49,0,40.25c1.53,7,3.93,15.15,5.15,19.15" transform="translate(-193.77 -76.36)"/><path class="cls-8" d="M229.87,410.06c.24.79.39,1.24.39,1.24" transform="translate(-193.77 -76.36)"/><polygon class="cls-2" points="48.39 200.17 53.32 186.61 51.82 212.55 48.39 200.17"/><polygon class="cls-3" points="112.27 353.88 128.01 363.33 101.83 365.21 101.83 353.02 112.27 353.88"/><path class="cls-2" d="M292.69,440.3a23.09,23.09,0,0,0,.67,4.69,1.59,1.59,0,0,0,1.5,1.22c1,0,2.71.11,4.85.24h29.68c1.79-.6,2.05-1.58-.17-3.1-14.34-7.24-6.55-3.3-24.51-5.85-4.65-1.28-8.41-6.41-11-5.82-1.84.41-1.58,3.73-1.25,5.68A22.33,22.33,0,0,1,292.69,440.3Z" transform="translate(-193.77 -76.36)"/><polygon class="cls-3" points="49.11 353.88 64.85 363.33 38.67 365.21 38.67 353.02 49.11 353.88"/><path class="cls-2" d="M229.53,440.3a22.32,22.32,0,0,0,.68,4.69,1.57,1.57,0,0,0,1.49,1.22c1,0,2.71.11,4.85.24h29.68c1.79-.6,2-1.58-.17-3.1-14.34-7.24-6.55-3.3-24.51-5.85-4.65-1.28-8.41-6.41-11-5.82-1.85.41-1.59,3.73-1.26,5.68A22.33,22.33,0,0,1,229.53,440.3Z" transform="translate(-193.77 -76.36)"/><path class="cls-2" d="M228.83,87.85s4.72,7,11.43,11.13,11.32,2.3,9.6,13.72-2.63,23.32-1.52,26.37.61,6.86,7.62,11.43a16.22,16.22,0,0,0,13.64,2.13s-4.34-2.13-4-8.53,4.58-7.81,1.07-18.54S259,118,262.21,105.07s-14-36.89-33.38-25.91c0,0-14.49,5.18-14.64,20.27s4.12,12.35,0,24.24-9.74,18.43-8.07,25.45,7.61,11.9,7.61,11.9-2-7.78,4.12-11.28,4.9-4.36,6.43-13.11-3.69-16.92-3.84-25.61S223.34,85.26,228.83,87.85Z" transform="translate(-193.77 -76.36)"/><path class="cls-10" d="M235.69,107.4a2.63,2.63,0,0,0-.09,2.11,3.39,3.39,0,0,0,1.49,1.53,2.71,2.71,0,0,1,.81.77,1.06,1.06,0,0,1,.07,1.1,2.55,2.55,0,0,1-1.83,1.16V114a3.36,3.36,0,0,0,.89-.59,1.51,1.51,0,0,0,.53-.72.64.64,0,0,0-.13-.58,2.21,2.21,0,0,0-.66-.57,6.49,6.49,0,0,1-.95-.74,2.87,2.87,0,0,1-.65-1.12,2.7,2.7,0,0,1-.06-1.26,2.49,2.49,0,0,1,.54-1.06Z" transform="translate(-193.77 -76.36)"/><path class="cls-2" d="M229.7,106.4a1,1,0,1,1-1-1A1,1,0,0,1,229.7,106.4Z" transform="translate(-193.77 -76.36)"/><path class="cls-2" d="M231.28,103.25a6,6,0,0,0-2.85-.51,3.75,3.75,0,0,0-1.4.35,4.09,4.09,0,0,0-1.19.84,0,0,0,0,1-.06,0,0,0,0,0,1,0,0v0a2.36,2.36,0,0,1,.95-1.42,3.21,3.21,0,0,1,1.63-.6,3.7,3.7,0,0,1,1.66.27,2.82,2.82,0,0,1,1.3,1v0a0,0,0,0,1,0,.06A0,0,0,0,1,231.28,103.25Z" transform="translate(-193.77 -76.36)"/><path class="cls-2" d="M241.29,106.4a1,1,0,1,0,1-1A1,1,0,0,0,241.29,106.4Z" transform="translate(-193.77 -76.36)"/><path class="cls-2" d="M239.7,103.25a6,6,0,0,1,2.85-.51,3.85,3.85,0,0,1,1.41.35,4,4,0,0,1,1.18.84,0,0,0,0,0,.06,0,0,0,0,0,0,0,0v0a2.34,2.34,0,0,0-.94-1.42,3.24,3.24,0,0,0-1.64-.6,3.7,3.7,0,0,0-1.66.27,2.87,2.87,0,0,0-1.3,1v0a.07.07,0,0,0,0,.06S239.69,103.26,239.7,103.25Z" transform="translate(-193.77 -76.36)"/><path class="cls-11" d="M237.09,118.57c-.83-.37-1.29.75-1.29.75s-.46-1.12-1.29-.75a13.66,13.66,0,0,0-1.69.94s.75,2.46,3,2.09c2.23.37,3-2.09,3-2.09A13.66,13.66,0,0,0,237.09,118.57Z" transform="translate(-193.77 -76.36)"/><path class="cls-2" d="M232,118.75a8.53,8.53,0,0,0,1.84,1.1,4.23,4.23,0,0,0,2,.4,4.92,4.92,0,0,0,2-.45,16.22,16.22,0,0,0,1.89-1l0,0-.83.73c-.31.19-.6.44-.93.6a4.74,4.74,0,0,1-2.12.58,5.09,5.09,0,0,1-3.85-1.91Z" transform="translate(-193.77 -76.36)"/><path class="cls-12" d="M231.88,112.57c0,1.61-1.7,2.92-3.81,2.92s-3.81-1.31-3.81-2.92,1.71-2.92,3.81-2.92S231.88,111,231.88,112.57Z" transform="translate(-193.77 -76.36)"/><path class="cls-12" d="M246.72,112.57c0,1.61-1.7,2.92-3.81,2.92s-3.81-1.31-3.81-2.92,1.71-2.92,3.81-2.92S246.72,111,246.72,112.57Z" transform="translate(-193.77 -76.36)"/><path class="cls-2" d="M258.59,90.69A33.83,33.83,0,0,1,262.18,96a25.42,25.42,0,0,1,2.45,6,16,16,0,0,1,.45,3.23l0,.81-.08.81a14,14,0,0,1-.23,1.6,44.08,44.08,0,0,1-1.78,6.18,13.87,13.87,0,0,0-1.15,6.06,9,9,0,0,0,.85,2.93,24.43,24.43,0,0,0,1.47,2.76c1.07,1.82,2.26,3.59,3.36,5.44a15,15,0,0,1,2.37,6h-.09a17.76,17.76,0,0,0-2.87-5.61c-1.18-1.76-2.46-3.47-3.59-5.31a22,22,0,0,1-1.51-2.89,10.13,10.13,0,0,1-.83-3.22c-.21-2.28.69-4.39,1.53-6.32a24.11,24.11,0,0,0,1.93-6,12.67,12.67,0,0,0-.57-6.2,51.83,51.83,0,0,0-5.39-11.46Z" transform="translate(-193.77 -76.36)"/><path class="cls-2" d="M219,94.39c-1.77,3.78-3.71,7.46-5.74,11.08-.5.9-1.1,1.8-1.49,2.7a6.82,6.82,0,0,0-.46,3,24.55,24.55,0,0,0,1.4,6,16.53,16.53,0,0,1,1.07,6.24,7,7,0,0,1-.33,1.63c-.19.54-.43,1-.65,1.48a29.63,29.63,0,0,1-1.59,2.74c-1.15,1.76-2.44,3.39-3.61,5.09a17.2,17.2,0,0,0-2.84,5.45l-.09,0A14.89,14.89,0,0,1,207,134c1.1-1.78,2.29-3.49,3.39-5.23.55-.87,1.08-1.74,1.55-2.65a7.14,7.14,0,0,0,1-2.76,19,19,0,0,0-.72-6,43.55,43.55,0,0,1-1.2-6.14,8.55,8.55,0,0,1,.31-3.17,27.93,27.93,0,0,1,1.29-2.88,116.09,116.09,0,0,1,6.31-10.77Z" transform="translate(-193.77 -76.36)"/></g></svg>