<svg xmlns="http://www.w3.org/2000/svg" viewBox="0 0 718.17 218.89"><defs><style>.cls-1{fill:#ebebeb;}.cls-2{fill:#fafafa;}.cls-3{fill:#e0e0e0;}.cls-4{fill:#263238;}.cls-5{fill:#455a64;}.cls-6{fill:#ffbe9d;}.cls-7{fill:#eb996e;}.cls-8{fill:#d1105a;}.cls-9{opacity:0.3;}.cls-10{fill:#936760;}.cls-11{fill:#884ab2;}.cls-12{fill:#6f4c47;}.cls-13{fill:#0a0a09;}.cls-14{fill:#fff;}.cls-15{fill:#f24b04;}</style></defs><g id="Background_Complete" data-name="Background Complete"><polygon class="cls-1" points="630.09 177.96 636.24 218.34 671.94 218.34 680.23 178.54 630.09 177.96"/><path class="cls-2" d="M692.08,434.15c0,.12-9.15.21-20.43.21s-20.43-.09-20.43-.21,9.15-.2,20.43-.2S692.08,434,692.08,434.15Z" transform="translate(-16.85 -230.31)"/><path class="cls-2" d="M692.22,432.17c0,.11-9.21.21-20.57.21s-20.57-.1-20.57-.21,9.21-.21,20.57-.21S692.22,432.05,692.22,432.17Z" transform="translate(-16.85 -230.31)"/><path class="cls-2" d="M692.15,429.93c0,.11-9.21.2-20.57.2S651,430,651,429.93s9.21-.21,20.57-.21S692.15,429.81,692.15,429.93Z" transform="translate(-16.85 -230.31)"/><path class="cls-2" d="M657.19,446.35a31,31,0,0,1-1.1-5.08,33,33,0,0,1-.68-5.16,33.32,33.32,0,0,1,1.09,5.09A32.15,32.15,0,0,1,657.19,446.35Z" transform="translate(-16.85 -230.31)"/><path class="cls-2" d="M659.62,445.92a38.4,38.4,0,0,1-.45-5,39.49,39.49,0,0,1-.23-5,23.55,23.55,0,0,1,.65,4.94A24.32,24.32,0,0,1,659.62,445.92Z" transform="translate(-16.85 -230.31)"/><path class="cls-2" d="M664,445.92a24.92,24.92,0,0,1-.93-5.08,25.48,25.48,0,0,1-.27-5.17,148,148,0,0,1,1.2,10.25Z" transform="translate(-16.85 -230.31)"/><path class="cls-2" d="M667.15,446.14a25.74,25.74,0,0,1-.49-5.17,25.46,25.46,0,0,1,.15-5.19,42.88,42.88,0,0,1,.26,5.17A44.94,44.94,0,0,1,667.15,446.14Z" transform="translate(-16.85 -230.31)"/><path class="cls-2" d="M672.65,445.92a29.74,29.74,0,0,1-.37-4.9,27.72,27.72,0,0,1,0-4.92,29.74,29.74,0,0,1,.37,4.9A27.67,27.67,0,0,1,672.65,445.92Z" transform="translate(-16.85 -230.31)"/><path class="cls-2" d="M676.67,446.14a30.67,30.67,0,0,1-.17-5.08,31.35,31.35,0,0,1,.25-5.07,30.58,30.58,0,0,1,.17,5.08A31.35,31.35,0,0,1,676.67,446.14Z" transform="translate(-16.85 -230.31)"/><path class="cls-2" d="M680.44,445.6a33.31,33.31,0,0,1,.3-5.31,34.34,34.34,0,0,1,.72-5.26,33.17,33.17,0,0,1-.3,5.3A35.9,35.9,0,0,1,680.44,445.6Z" transform="translate(-16.85 -230.31)"/><path class="cls-2" d="M685.29,445.07a27.69,27.69,0,0,1,1.93-8.86,223,223,0,0,1-1.93,8.86Z" transform="translate(-16.85 -230.31)"/><path class="cls-1" d="M681.86,328.58a1.47,1.47,0,0,1-.05.2c0,.15-.1.34-.16.57-.17.53-.4,1.26-.68,2.18s-.67,2.1-1.05,3.46-.86,2.88-1.29,4.6-.94,3.59-1.39,5.62-.91,4.21-1.38,6.51c-.85,4.6-1.63,9.69-2.19,15.07s-.76,10.53-.83,15.21c0,2.34,0,4.57.06,6.65s.15,4,.26,5.79.24,3.36.35,4.76.23,2.61.34,3.6.18,1.72.24,2.27c0,.24,0,.43,0,.59s0,.2,0,.2a1.3,1.3,0,0,1,0-.19c0-.16-.06-.35-.09-.59-.08-.55-.19-1.31-.32-2.26s-.29-2.19-.41-3.59-.32-3-.42-4.78-.25-3.71-.3-5.79-.09-4.32-.11-6.66c0-4.7.28-9.86.81-15.25s1.34-10.49,2.22-15.1c.48-2.3.91-4.49,1.42-6.51s1-3.92,1.44-5.63.95-3.24,1.35-4.59.79-2.5,1.12-3.44.57-1.63.76-2.16c.08-.22.15-.4.2-.55S681.85,328.58,681.86,328.58Z" transform="translate(-16.85 -230.31)"/><path class="cls-1" d="M675.41,353.59a13.21,13.21,0,0,1,5.55-7,3.18,3.18,0,0,1,2.94-.54c1.24.6,1.34,2.35,1,3.69a9.74,9.74,0,0,1-4,5.5,8.22,8.22,0,0,1-6.06,1.53" transform="translate(-16.85 -230.31)"/><path class="cls-1" d="M673.24,370.47c.92-3.48,3.71-8.44,6.59-10.59a4.12,4.12,0,0,1,1.5-.8,1.73,1.73,0,0,1,1.6.34,2.45,2.45,0,0,1,.36,2.32,14,14,0,0,1-10.41,10.48" transform="translate(-16.85 -230.31)"/><path class="cls-1" d="M672.64,385.34a20.53,20.53,0,0,1,6.65-8.36,3.18,3.18,0,0,1,2.32-.83c1.26.23,1.84,1.77,1.73,3.05-.23,2.63-2.24,4.73-4.31,6.37a26.83,26.83,0,0,1-6.15,3.16" transform="translate(-16.85 -230.31)"/><path class="cls-1" d="M673,396a19.7,19.7,0,0,1,5.66-6.44,4.11,4.11,0,0,1,1.69-.76,1.75,1.75,0,0,1,1.67.64c.57.83,0,2-.58,2.76a16.11,16.11,0,0,1-8.07,5.92" transform="translate(-16.85 -230.31)"/><path class="cls-1" d="M672.7,391.68a63.62,63.62,0,0,0-8.09-8.24,1.83,1.83,0,0,0-1.61-.61,1.22,1.22,0,0,0-.74,1.09,3.16,3.16,0,0,0,.3,1.35A15.7,15.7,0,0,0,673,394" transform="translate(-16.85 -230.31)"/><path class="cls-1" d="M673,377.78,666.6,370a7.68,7.68,0,0,0-2.06-2,2.61,2.61,0,0,0-2.71,0,2.57,2.57,0,0,0-.87,2.56,6.8,6.8,0,0,0,1.24,2.55,19,19,0,0,0,4.63,4.92c1.87,1.28,3.56,2.11,5.8,1.78" transform="translate(-16.85 -230.31)"/><path class="cls-1" d="M673.84,362.12a22.1,22.1,0,0,0-6.39-9.6,3.68,3.68,0,0,0-1.67-1,2.79,2.79,0,0,0-2.91,2.05,5.2,5.2,0,0,0,.58,4.2,10.81,10.81,0,0,0,3,3.16,25.63,25.63,0,0,0,7.07,3.82" transform="translate(-16.85 -230.31)"/><path class="cls-1" d="M676.38,348.16c-.61-4.49-3-8.22-5.66-11.86-.57-.76-1.37-1.58-2.31-1.43a1.82,1.82,0,0,0-1.33,1.14,4.17,4.17,0,0,0-.25,1.79,13.88,13.88,0,0,0,9,12.4" transform="translate(-16.85 -230.31)"/><path class="cls-1" d="M678.16,341a36.74,36.74,0,0,1-.23-7,12.44,12.44,0,0,1,2.3-6.47,5.39,5.39,0,0,1,2.31-1.84,2.92,2.92,0,0,1,2.83.38,3.06,3.06,0,0,1,1,2.49,7.52,7.52,0,0,1-.72,2.66c-1.69,4.08-4.51,8.59-7.46,9.73" transform="translate(-16.85 -230.31)"/><path class="cls-3" d="M650.47,346.39a2.34,2.34,0,0,1,0,.57c0,.41,0,1,0,1.63s0,1.57,0,2.58,0,2.15.12,3.41c.11,2.52.36,5.53.74,8.85s1,6.94,1.76,10.72,1.74,7.33,2.7,10.53,2,6,2.88,8.4c.43,1.19.88,2.24,1.25,3.18s.72,1.72,1,2.37.48,1.12.64,1.5a3.76,3.76,0,0,1,.2.54,3.36,3.36,0,0,1-.27-.5l-.72-1.47c-.3-.64-.67-1.43-1.06-2.35s-.87-2-1.32-3.16c-1-2.35-2-5.2-3-8.39s-1.94-6.78-2.74-10.56-1.34-7.44-1.73-10.77-.58-6.35-.66-8.88c-.06-1.27,0-2.41-.06-3.42s0-1.87,0-2.58,0-1.22.07-1.63A3.09,3.09,0,0,1,650.47,346.39Z" transform="translate(-16.85 -230.31)"/><path class="cls-3" d="M651.47,364.8a9.44,9.44,0,0,1,2.27-6,2.29,2.29,0,0,1,1.88-1c1,.15,1.43,1.32,1.46,2.31a7,7,0,0,1-1.56,4.62,5.88,5.88,0,0,1-3.8,2.34" transform="translate(-16.85 -230.31)"/><path class="cls-3" d="M653.63,376.77c-.12-2.58.7-6.55,2.2-8.64a3,3,0,0,1,.85-.86,1.25,1.25,0,0,1,1.17-.11,1.73,1.73,0,0,1,.74,1.49,10,10,0,0,1-4.84,9.39" transform="translate(-16.85 -230.31)"/><path class="cls-3" d="M656.42,387a14.63,14.63,0,0,1,2.73-7.12,2.24,2.24,0,0,1,1.4-1.06c.91-.12,1.63.81,1.83,1.7.41,1.84-.51,3.71-1.57,5.27a18.92,18.92,0,0,1-3.5,3.47" transform="translate(-16.85 -230.31)"/><path class="cls-3" d="M659,394.22a14.09,14.09,0,0,1,2.46-5.61,2.91,2.91,0,0,1,1-.88,1.25,1.25,0,0,1,1.27.07c.56.45.44,1.33.2,2a11.61,11.61,0,0,1-4.23,5.77" transform="translate(-16.85 -230.31)"/><path class="cls-3" d="M657.82,391.32a45.31,45.31,0,0,0-7.28-3.87,1.32,1.32,0,0,0-1.23-.07.87.87,0,0,0-.27.9,2.26,2.26,0,0,0,.5.86,11.19,11.19,0,0,0,9,3.72" transform="translate(-16.85 -230.31)"/><path class="cls-3" d="M655,381.8l-6-3.91a5.6,5.6,0,0,0-1.82-.89,1.88,1.88,0,0,0-1.86.57,1.86,1.86,0,0,0,0,1.93,4.75,4.75,0,0,0,1.4,1.46,13.34,13.34,0,0,0,4.21,2.35,5.47,5.47,0,0,0,4.33,0" transform="translate(-16.85 -230.31)"/><path class="cls-3" d="M652.24,371a15.84,15.84,0,0,0-6.42-5.16,2.57,2.57,0,0,0-1.35-.3,2,2,0,0,0-1.54,2,3.75,3.75,0,0,0,1.3,2.74,8.21,8.21,0,0,0,2.71,1.51,18.42,18.42,0,0,0,5.64,1.07" transform="translate(-16.85 -230.31)"/><path class="cls-3" d="M651,360.9c-1.38-2.92-3.78-5-6.41-6.86a1.94,1.94,0,0,0-1.88-.48,1.32,1.32,0,0,0-.66,1.06,3.12,3.12,0,0,0,.22,1.28,9.88,9.88,0,0,0,8.8,6.5" transform="translate(-16.85 -230.31)"/><path class="cls-3" d="M650.64,355.67A26.3,26.3,0,0,1,649,351a8.86,8.86,0,0,1,.17-4.9,3.87,3.87,0,0,1,1.18-1.75,2.07,2.07,0,0,1,2-.36,2.2,2.2,0,0,1,1.19,1.49,5.43,5.43,0,0,1,.09,2c-.28,3.14-1.23,6.81-3,8.23" transform="translate(-16.85 -230.31)"/><path class="cls-1" d="M695.62,346a3.09,3.09,0,0,1,0,.57c0,.41,0,.95.07,1.63s0,1.57,0,2.58,0,2.15-.07,3.42c-.07,2.53-.28,5.55-.65,8.88s-.94,7-1.73,10.77-1.76,7.35-2.74,10.55-2,6.05-3,8.4c-.45,1.18-.92,2.23-1.32,3.15s-.76,1.72-1.06,2.36-.53,1.09-.72,1.47a2.41,2.41,0,0,1-.27.49,4,4,0,0,1,.2-.53c.16-.38.37-.88.64-1.5s.63-1.44,1-2.38.82-2,1.25-3.17c.92-2.36,1.9-5.2,2.88-8.4s1.9-6.76,2.7-10.53,1.35-7.41,1.76-10.73.63-6.32.74-8.84c.08-1.27.09-2.41.12-3.41s0-1.87,0-2.58,0-1.22,0-1.63A2.25,2.25,0,0,1,695.62,346Z" transform="translate(-16.85 -230.31)"/><path class="cls-1" d="M694.62,364.41a9.44,9.44,0,0,0-2.27-6,2.29,2.29,0,0,0-1.88-1c-1,.15-1.43,1.32-1.46,2.3a7,7,0,0,0,1.56,4.62,5.89,5.89,0,0,0,3.8,2.35" transform="translate(-16.85 -230.31)"/><path class="cls-1" d="M692.46,376.37c.12-2.57-.7-6.54-2.2-8.63a3.06,3.06,0,0,0-.85-.87,1.25,1.25,0,0,0-1.17-.11,1.76,1.76,0,0,0-.74,1.5,10,10,0,0,0,4.84,9.38" transform="translate(-16.85 -230.31)"/><path class="cls-1" d="M689.67,386.62a14.63,14.63,0,0,0-2.73-7.12,2.21,2.21,0,0,0-1.4-1.06c-.91-.12-1.63.81-1.83,1.7-.41,1.84.51,3.71,1.57,5.27a19.28,19.28,0,0,0,3.5,3.47" transform="translate(-16.85 -230.31)"/><path class="cls-1" d="M687.14,393.83a14.09,14.09,0,0,0-2.46-5.61,2.91,2.91,0,0,0-1-.88,1.25,1.25,0,0,0-1.27.07c-.56.45-.44,1.33-.2,2a11.61,11.61,0,0,0,4.23,5.77" transform="translate(-16.85 -230.31)"/><path class="cls-1" d="M688.27,390.93a44.52,44.52,0,0,1,7.28-3.87,1.32,1.32,0,0,1,1.23-.07.87.87,0,0,1,.27.9,2.26,2.26,0,0,1-.5.86,11.19,11.19,0,0,1-9,3.72" transform="translate(-16.85 -230.31)"/><path class="cls-1" d="M691.08,381.41l6-3.91a5.6,5.6,0,0,1,1.82-.89,1.9,1.9,0,0,1,1.86.56,1.86,1.86,0,0,1,0,1.93,4.9,4.9,0,0,1-1.4,1.47,13.34,13.34,0,0,1-4.21,2.35,5.51,5.51,0,0,1-4.33,0" transform="translate(-16.85 -230.31)"/><path class="cls-1" d="M693.85,370.56a15.78,15.78,0,0,1,6.42-5.16,2.57,2.57,0,0,1,1.35-.3,2,2,0,0,1,1.54,2,3.75,3.75,0,0,1-1.3,2.74,8,8,0,0,1-2.72,1.5,18,18,0,0,1-5.63,1.08" transform="translate(-16.85 -230.31)"/><path class="cls-1" d="M695.13,360.51c1.38-2.93,3.78-5,6.41-6.86a1.94,1.94,0,0,1,1.88-.48,1.33,1.33,0,0,1,.66,1.06,3.12,3.12,0,0,1-.22,1.28,9.9,9.9,0,0,1-8.8,6.5" transform="translate(-16.85 -230.31)"/><path class="cls-1" d="M695.45,355.27a26.2,26.2,0,0,0,1.65-4.67,8.86,8.86,0,0,0-.17-4.9,3.87,3.87,0,0,0-1.18-1.75,2.07,2.07,0,0,0-2-.36,2.2,2.2,0,0,0-1.19,1.49,5.43,5.43,0,0,0-.09,2c.28,3.13,1.23,6.81,3,8.22" transform="translate(-16.85 -230.31)"/><path class="cls-1" d="M642.84,400.27v7.56a3,3,0,0,0,3,3h51.7a3,3,0,0,0,3-3v-7.56Z" transform="translate(-16.85 -230.31)"/><polygon class="cls-3" points="630.48 180.49 630.9 182.9 678.61 186.3 679.82 180.49 630.48 180.49"/><polygon class="cls-1" points="16.61 176.73 22.75 217.12 58.46 217.12 66.74 177.31 16.61 176.73"/><path class="cls-2" d="M78.6,432.93c0,.11-9.15.21-20.43.21s-20.43-.1-20.43-.21,9.14-.21,20.43-.21S78.6,432.81,78.6,432.93Z" transform="translate(-16.85 -230.31)"/><path class="cls-2" d="M78.74,430.94c0,.12-9.21.21-20.57.21s-20.57-.09-20.57-.21,9.21-.21,20.57-.21S78.74,430.83,78.74,430.94Z" transform="translate(-16.85 -230.31)"/><path class="cls-2" d="M78.67,428.7c0,.11-9.21.21-20.57.21s-20.57-.1-20.57-.21,9.21-.21,20.57-.21S78.67,428.58,78.67,428.7Z" transform="translate(-16.85 -230.31)"/><path class="cls-2" d="M43.7,445.13A33.32,33.32,0,0,1,42.61,440a31.58,31.58,0,0,1-.68-5.16A33.32,33.32,0,0,1,43,440,31.58,31.58,0,0,1,43.7,445.13Z" transform="translate(-16.85 -230.31)"/><path class="cls-2" d="M46.13,444.7a40.12,40.12,0,0,1-.44-5,39.67,39.67,0,0,1-.23-5,24.54,24.54,0,0,1,.65,4.95A23.13,23.13,0,0,1,46.13,444.7Z" transform="translate(-16.85 -230.31)"/><path class="cls-2" d="M50.56,444.69a24.74,24.74,0,0,1-.93-5.08,25.48,25.48,0,0,1-.27-5.17,46.25,46.25,0,0,1,.69,5.12A43.12,43.12,0,0,1,50.56,444.69Z" transform="translate(-16.85 -230.31)"/><path class="cls-2" d="M53.67,444.91a24.36,24.36,0,0,1-.5-5.17,25.92,25.92,0,0,1,.16-5.19,43,43,0,0,1,.26,5.18A44.78,44.78,0,0,1,53.67,444.91Z" transform="translate(-16.85 -230.31)"/><path class="cls-2" d="M59.17,444.7a56.34,56.34,0,0,1-.33-9.83,29.94,29.94,0,0,1,.37,4.91A30.27,30.27,0,0,1,59.17,444.7Z" transform="translate(-16.85 -230.31)"/><path class="cls-2" d="M63.19,444.91a29.33,29.33,0,0,1-.17-5.08,30,30,0,0,1,.25-5.07,32,32,0,0,1,.17,5.08A32.78,32.78,0,0,1,63.19,444.91Z" transform="translate(-16.85 -230.31)"/><path class="cls-2" d="M67,444.37a34,34,0,0,1,.31-5.3A32.94,32.94,0,0,1,68,433.8a34.11,34.11,0,0,1-.31,5.31A32.92,32.92,0,0,1,67,444.37Z" transform="translate(-16.85 -230.31)"/><path class="cls-2" d="M71.81,443.84a17.88,17.88,0,0,1,.6-4.51A17.43,17.43,0,0,1,73.74,435a41.36,41.36,0,0,1-.92,4.44A38.41,38.41,0,0,1,71.81,443.84Z" transform="translate(-16.85 -230.31)"/><path class="cls-1" d="M68.37,327.35s0,.07,0,.2-.1.34-.17.57c-.16.53-.39,1.26-.68,2.18s-.67,2.1-1,3.46-.87,2.88-1.29,4.6-1,3.59-1.39,5.63-.92,4.21-1.38,6.5c-.86,4.6-1.64,9.7-2.19,15.07s-.76,10.53-.83,15.21c0,2.34,0,4.57.06,6.65s.15,4,.25,5.79.25,3.36.36,4.77.23,2.6.34,3.59.18,1.72.24,2.27c0,.24,0,.43,0,.59a.58.58,0,0,1,0,.21.91.91,0,0,1,0-.2c0-.16,0-.35-.09-.59-.07-.55-.18-1.31-.31-2.26s-.29-2.19-.42-3.59-.32-3-.41-4.77-.25-3.71-.31-5.8-.09-4.32-.1-6.66c.05-4.7.28-9.86.8-15.25S61.12,355,62,350.42c.48-2.3.91-4.49,1.42-6.51s1-3.91,1.44-5.63.94-3.24,1.35-4.59.79-2.5,1.12-3.44l.75-2.15c.09-.23.15-.41.21-.56S68.37,327.35,68.37,327.35Z" transform="translate(-16.85 -230.31)"/><path class="cls-1" d="M61.93,352.36a13.25,13.25,0,0,1,5.55-7,3.18,3.18,0,0,1,2.94-.54c1.24.6,1.34,2.35,1,3.69a9.76,9.76,0,0,1-4,5.51,8.25,8.25,0,0,1-6.06,1.52" transform="translate(-16.85 -230.31)"/><path class="cls-1" d="M59.76,369.25c.92-3.49,3.7-8.44,6.59-10.6a4.19,4.19,0,0,1,1.5-.8,1.74,1.74,0,0,1,1.6.35,2.46,2.46,0,0,1,.36,2.31A14.06,14.06,0,0,1,59.39,371" transform="translate(-16.85 -230.31)"/><path class="cls-1" d="M59.16,384.11a20.37,20.37,0,0,1,6.65-8.36,3.18,3.18,0,0,1,2.32-.83c1.26.23,1.83,1.77,1.72,3.05-.23,2.63-2.23,4.74-4.31,6.37a26.63,26.63,0,0,1-6.15,3.16" transform="translate(-16.85 -230.31)"/><path class="cls-1" d="M59.5,394.8a19.71,19.71,0,0,1,5.65-6.45,4.21,4.21,0,0,1,1.7-.76,1.75,1.75,0,0,1,1.67.64c.56.83,0,2-.58,2.76a16.1,16.1,0,0,1-8.08,5.92" transform="translate(-16.85 -230.31)"/><path class="cls-1" d="M59.22,390.46a63.7,63.7,0,0,0-8.09-8.25c-.46-.38-1-.79-1.61-.61a1.23,1.23,0,0,0-.75,1.09,3,3,0,0,0,.31,1.35A15.67,15.67,0,0,0,59.5,392.8" transform="translate(-16.85 -230.31)"/><path class="cls-1" d="M59.48,376.55l-6.36-7.75a7.64,7.64,0,0,0-2.06-1.95,2.3,2.3,0,0,0-3.58,2.52,6.73,6.73,0,0,0,1.24,2.55,18.87,18.87,0,0,0,4.63,4.92c1.86,1.28,3.56,2.12,5.8,1.78" transform="translate(-16.85 -230.31)"/><path class="cls-1" d="M60.36,360.9a22.21,22.21,0,0,0-6.4-9.61,3.84,3.84,0,0,0-1.66-1,2.82,2.82,0,0,0-2.92,2.05,5.31,5.31,0,0,0,.58,4.21,11.24,11.24,0,0,0,3,3.16A25.72,25.72,0,0,0,60,363.55" transform="translate(-16.85 -230.31)"/><path class="cls-1" d="M62.9,346.94c-.62-4.49-2.95-8.23-5.66-11.87-.57-.76-1.37-1.58-2.32-1.43a1.83,1.83,0,0,0-1.32,1.14,4.17,4.17,0,0,0-.25,1.79,13.88,13.88,0,0,0,9,12.4" transform="translate(-16.85 -230.31)"/><path class="cls-1" d="M64.68,339.81a36.66,36.66,0,0,1-.24-6.94,12.51,12.51,0,0,1,2.31-6.47,5.32,5.32,0,0,1,2.31-1.84,2.9,2.9,0,0,1,2.83.37,3.1,3.1,0,0,1,1,2.5,7.86,7.86,0,0,1-.72,2.66c-1.69,4.07-4.52,8.58-7.46,9.72" transform="translate(-16.85 -230.31)"/><path class="cls-3" d="M37,345.16a2.34,2.34,0,0,1,0,.57c0,.42,0,1,0,1.63s0,1.57,0,2.58,0,2.15.13,3.41c.11,2.53.35,5.53.74,8.85s1,6.95,1.75,10.72,1.75,7.33,2.7,10.53,2,6.05,2.88,8.4c.44,1.19.89,2.24,1.26,3.18s.71,1.73,1,2.37.48,1.12.64,1.5a3.76,3.76,0,0,1,.2.54,2.81,2.81,0,0,1-.28-.5c-.18-.37-.41-.86-.71-1.47s-.67-1.42-1.06-2.35-.87-2-1.32-3.16c-.95-2.35-2-5.19-3-8.39S40.1,376.8,39.29,373s-1.34-7.44-1.73-10.77-.58-6.34-.65-8.88c-.06-1.26,0-2.41-.06-3.42s0-1.87,0-2.58,0-1.22.06-1.63A3.74,3.74,0,0,1,37,345.16Z" transform="translate(-16.85 -230.31)"/><path class="cls-3" d="M38,363.57a9.39,9.39,0,0,1,2.27-6,2.24,2.24,0,0,1,1.88-1c1,.14,1.42,1.31,1.46,2.3A7,7,0,0,1,42,363.53a5.86,5.86,0,0,1-3.8,2.34" transform="translate(-16.85 -230.31)"/><path class="cls-3" d="M40.15,375.54c-.13-2.57.7-6.55,2.2-8.64a3,3,0,0,1,.85-.86,1.25,1.25,0,0,1,1.17-.11,1.78,1.78,0,0,1,.74,1.5,10,10,0,0,1-4.84,9.38" transform="translate(-16.85 -230.31)"/><path class="cls-3" d="M42.94,385.79a14.55,14.55,0,0,1,2.72-7.13,2.32,2.32,0,0,1,1.41-1.06c.9-.12,1.63.81,1.82,1.7.41,1.84-.5,3.71-1.56,5.27A18.85,18.85,0,0,1,43.82,388" transform="translate(-16.85 -230.31)"/><path class="cls-3" d="M45.47,393a13.85,13.85,0,0,1,2.46-5.6,3,3,0,0,1,1-.89,1.23,1.23,0,0,1,1.27.08c.57.44.44,1.32.2,2a11.45,11.45,0,0,1-4.22,5.77" transform="translate(-16.85 -230.31)"/><path class="cls-3" d="M44.34,390.09a46.11,46.11,0,0,0-7.28-3.87,1.32,1.32,0,0,0-1.23-.06.85.85,0,0,0-.27.9,2.22,2.22,0,0,0,.5.85,11.18,11.18,0,0,0,9,3.72" transform="translate(-16.85 -230.31)"/><path class="cls-3" d="M41.52,380.57l-6-3.91a5.34,5.34,0,0,0-1.83-.88,1.86,1.86,0,0,0-1.85.56,1.84,1.84,0,0,0,0,1.93,4.72,4.72,0,0,0,1.39,1.46,13.68,13.68,0,0,0,4.21,2.36,5.54,5.54,0,0,0,4.34,0" transform="translate(-16.85 -230.31)"/><path class="cls-3" d="M38.76,369.72a16,16,0,0,0-6.42-5.16,2.8,2.8,0,0,0-1.35-.3,2,2,0,0,0-1.54,2,3.73,3.73,0,0,0,1.3,2.74,8.11,8.11,0,0,0,2.71,1.51,18.12,18.12,0,0,0,5.64,1.07" transform="translate(-16.85 -230.31)"/><path class="cls-3" d="M37.48,359.67c-1.39-2.92-3.78-5-6.41-6.86-.55-.39-1.27-.78-1.88-.47a1.29,1.29,0,0,0-.66,1.06,2.94,2.94,0,0,0,.22,1.27,9.88,9.88,0,0,0,8.79,6.5" transform="translate(-16.85 -230.31)"/><path class="cls-3" d="M37.16,354.44a27.15,27.15,0,0,1-1.66-4.68,8.87,8.87,0,0,1,.18-4.9,3.79,3.79,0,0,1,1.18-1.75,2.08,2.08,0,0,1,2-.35,2.19,2.19,0,0,1,1.2,1.48,5.66,5.66,0,0,1,.09,2c-.28,3.14-1.23,6.82-3,8.23" transform="translate(-16.85 -230.31)"/><path class="cls-1" d="M82.13,344.77a2.49,2.49,0,0,1,.05.57c0,.41,0,1,.06,1.63s.05,1.57,0,2.58,0,2.15-.06,3.42c-.07,2.53-.29,5.55-.65,8.88s-1,7-1.73,10.77-1.76,7.35-2.74,10.56-2,6-3,8.39c-.45,1.19-.93,2.23-1.32,3.16s-.76,1.71-1.07,2.35L71,398.55a3.36,3.36,0,0,1-.27.5,2.65,2.65,0,0,1,.2-.54l.63-1.5c.29-.65.63-1.44,1-2.37s.83-2,1.26-3.18c.91-2.36,1.9-5.2,2.88-8.4s1.9-6.75,2.7-10.53,1.35-7.41,1.76-10.72.63-6.33.74-8.85c.08-1.26.09-2.41.12-3.41s0-1.87,0-2.58,0-1.22,0-1.63A4.27,4.27,0,0,1,82.13,344.77Z" transform="translate(-16.85 -230.31)"/><path class="cls-1" d="M81.14,363.18a9.55,9.55,0,0,0-2.27-6,2.27,2.27,0,0,0-1.89-1c-1,.14-1.42,1.31-1.45,2.3a7,7,0,0,0,1.56,4.62,5.88,5.88,0,0,0,3.8,2.34" transform="translate(-16.85 -230.31)"/><path class="cls-1" d="M79,375.15c.12-2.58-.7-6.55-2.21-8.64a2.9,2.9,0,0,0-.85-.86,1.23,1.23,0,0,0-1.16-.11A1.73,1.73,0,0,0,74,367a10,10,0,0,0,4.83,9.39" transform="translate(-16.85 -230.31)"/><path class="cls-1" d="M76.19,385.4a14.63,14.63,0,0,0-2.73-7.13,2.27,2.27,0,0,0-1.4-1.06c-.91-.12-1.63.81-1.83,1.7-.41,1.84.5,3.71,1.56,5.27a18.85,18.85,0,0,0,3.51,3.47" transform="translate(-16.85 -230.31)"/><path class="cls-1" d="M73.66,392.6A14,14,0,0,0,71.19,387a2.88,2.88,0,0,0-1-.88,1.25,1.25,0,0,0-1.27.07c-.56.45-.44,1.33-.2,2A11.54,11.54,0,0,0,73,394" transform="translate(-16.85 -230.31)"/><path class="cls-1" d="M74.78,389.7a45.73,45.73,0,0,1,7.28-3.87,1.32,1.32,0,0,1,1.23-.06.85.85,0,0,1,.27.9,2.06,2.06,0,0,1-.5.85,11.17,11.17,0,0,1-9,3.72" transform="translate(-16.85 -230.31)"/><path class="cls-1" d="M77.6,380.18q3-1.95,6-3.91a5.65,5.65,0,0,1,1.83-.89,1.88,1.88,0,0,1,1.85.57,1.84,1.84,0,0,1,0,1.93,4.61,4.61,0,0,1-1.39,1.46,13.34,13.34,0,0,1-4.21,2.35,5.5,5.5,0,0,1-4.34,0" transform="translate(-16.85 -230.31)"/><path class="cls-1" d="M80.37,369.33a15.71,15.71,0,0,1,6.42-5.16,2.63,2.63,0,0,1,1.34-.3,2,2,0,0,1,1.55,2,3.82,3.82,0,0,1-1.3,2.74,8.16,8.16,0,0,1-2.72,1.51A18.3,18.3,0,0,1,80,371.21" transform="translate(-16.85 -230.31)"/><path class="cls-1" d="M81.64,359.28c1.39-2.92,3.79-5,6.41-6.86a2,2,0,0,1,1.89-.48,1.31,1.31,0,0,1,.65,1.07,2.93,2.93,0,0,1-.21,1.27,9.9,9.9,0,0,1-8.8,6.5" transform="translate(-16.85 -230.31)"/><path class="cls-1" d="M82,354.05a26.3,26.3,0,0,0,1.65-4.68,8.87,8.87,0,0,0-.18-4.9,3.77,3.77,0,0,0-1.17-1.75,2.08,2.08,0,0,0-2-.36,2.26,2.26,0,0,0-1.2,1.49,5.66,5.66,0,0,0-.08,2c.27,3.14,1.23,6.82,3,8.23" transform="translate(-16.85 -230.31)"/><path class="cls-1" d="M29.36,399.05v7.55a3,3,0,0,0,3,3H84a3,3,0,0,0,3-3v-7.55Z" transform="translate(-16.85 -230.31)"/><polygon class="cls-3" points="16.99 179.26 17.42 181.67 65.13 185.07 66.34 179.26 16.99 179.26"/></g><g id="Table"><path class="cls-4" d="M711,448.83c0,.15-152.06.26-339.58.26S31.85,449,31.85,448.83s152-.26,339.61-.26S711,448.69,711,448.83Z" transform="translate(-16.85 -230.31)"/></g><g id="Character_3" data-name="Character 3"><path class="cls-5" d="M470.31,126.24h48.31a0,0,0,0,1,0,0v92.39a0,0,0,0,1,0,0H458.7a0,0,0,0,1,0,0V137.85A11.61,11.61,0,0,1,470.31,126.24Z"/><path class="cls-6" d="M549.55,289.12l-6.43,61.3c-1.09,10.42-.57,26,16,26.93h0c14.43-.23,19.47-13.41,20.48-23.14.48-4.61.89-8.46,1-8.93,0,0,15.76.17,18.5-15.16,1.33-7.41,2.82-22.88,4-36.9a29,29,0,0,0-24.15-31l-1.48-.25C561.3,260.21,550.82,273,549.55,289.12Z" transform="translate(-16.85 -230.31)"/><path class="cls-7" d="M580.56,345.28a37.58,37.58,0,0,1-19-9.24s3,12,18.56,13.2Z" transform="translate(-16.85 -230.31)"/><path class="cls-4" d="M576.07,297.11c-.33.29-2-1.31-4.57-1.62s-4.63.78-4.87.42c-.12-.16.25-.7,1.15-1.21a6.42,6.42,0,0,1,4-.74,6.26,6.26,0,0,1,3.59,1.69C576,296.37,576.24,297,576.07,297.11Z" transform="translate(-16.85 -230.31)"/><path class="cls-4" d="M575.81,303.05a2.1,2.1,0,0,1-2.34,1.76,2,2,0,0,1-1.83-2.23,2.1,2.1,0,0,1,2.35-1.76A2,2,0,0,1,575.81,303.05Z" transform="translate(-16.85 -230.31)"/><path class="cls-4" d="M580.89,315.71a16.5,16.5,0,0,1,4,0c.62,0,1.21,0,1.38-.38a3.11,3.11,0,0,0-.11-1.85c-.32-1.56-.66-3.18-1-4.89-1.39-7-2.28-12.62-2-12.67s1.63,5.53,3,12.48c.32,1.71.64,3.34.94,4.9a3.62,3.62,0,0,1-.08,2.42,1.55,1.55,0,0,1-1.14.71,3.57,3.57,0,0,1-1.05,0C582.37,316.09,580.88,315.85,580.89,315.71Z" transform="translate(-16.85 -230.31)"/><path class="cls-4" d="M575.87,287.28c-.3.55-2.34-.07-4.83-.17s-4.58.25-4.82-.33c-.1-.27.33-.76,1.22-1.2a8,8,0,0,1,3.73-.69,7.8,7.8,0,0,1,3.62,1.07C575.63,286.48,576,287,575.87,287.28Z" transform="translate(-16.85 -230.31)"/><path class="cls-4" d="M600,294.34c-.32.45-2.29-.26-4.73-.56s-4.5-.18-4.71-.69c-.1-.24.35-.63,1.23-.92a8.56,8.56,0,0,1,3.68-.26,8.77,8.77,0,0,1,3.52,1.22C599.8,293.64,600.15,294.13,600,294.34Z" transform="translate(-16.85 -230.31)"/><path class="cls-6" d="M548.91,300.7c-.25-.16-10-4.88-11.45,5.68s9.48,9.8,9.54,9.49S548.91,300.7,548.91,300.7Z" transform="translate(-16.85 -230.31)"/><path class="cls-7" d="M544.31,311.44s-.2.11-.53.21a1.85,1.85,0,0,1-1.38-.16c-1.06-.55-1.76-2.45-1.56-4.36a6.12,6.12,0,0,1,.87-2.56,2.12,2.12,0,0,1,1.57-1.23,1,1,0,0,1,1,.65c.1.31,0,.51.06.54s.25-.15.22-.59a1.23,1.23,0,0,0-.33-.72,1.38,1.38,0,0,0-1-.4,2.59,2.59,0,0,0-2.14,1.37,6.4,6.4,0,0,0-1,2.86c-.21,2.14.61,4.27,2.07,4.92a2,2,0,0,0,1.72-.06C544.26,311.7,544.34,311.47,544.31,311.44Z" transform="translate(-16.85 -230.31)"/><path class="cls-4" d="M577.72,322.82c.14-.26-1.88-1.07-3.16-3.15a11.74,11.74,0,0,1-1.21-2.91c-.24-.79-.43-1.3-.55-1.27s-.13.54,0,1.4a7.91,7.91,0,0,0,1.08,3.22,6.27,6.27,0,0,0,2.52,2.32C577.14,322.84,577.68,322.91,577.72,322.82Z" transform="translate(-16.85 -230.31)"/><path class="cls-4" d="M536.4,282.25c2.55-3.54,3.48-7.95,5.07-12s4.31-8.16,8.54-9.24l.09.05c3.8-1.14,8.33-.74,11.11,2.09,1.26-5.44,6.48-9.36,12-10.27s14,.72,19,3.27c3.84,2,7.39,5.61,11.63,10.87a52.85,52.85,0,0,1,4.8,7.06L612,288.93l-4.7,7.2c-.29.49-.58,1-.93,1.47v0l-5.08,15.62c.17-4.37,1.88-19.47,2.06-23.85a24.28,24.28,0,0,1-16.55-9.58c-2.14-2.85-3.7-6.32-6.73-8.18-3.91-2.41-8.93-1.38-13.39-.28l.2-.15a19.44,19.44,0,0,0-6.38,3.77,60.51,60.51,0,0,1-5,25.28c-.52,1.2-1.86,3.64-3.11,4-2.47.7-2.88-1.78-4.2-3.2-1-1-2.51-1.31-4.22-1.46a93.66,93.66,0,0,1-1.9-11.27,9.64,9.64,0,0,1-4.47-.11c.55-1.05,1.11-2.1,1.67-3.15a5.14,5.14,0,0,1-2,.69,1.75,1.75,0,0,1-1.73-1C535.23,283.87,535.87,283,536.4,282.25Z" transform="translate(-16.85 -230.31)"/><path class="cls-5" d="M565.91,265.36a13.14,13.14,0,0,0-1.68,1.27,11.17,11.17,0,0,0-2.85,4.91,19.7,19.7,0,0,0-.75,3.9c-.14,1.42-.17,2.95-.21,4.57a39.46,39.46,0,0,1-.35,5.08,18.17,18.17,0,0,1-.59,2.64,5.71,5.71,0,0,1-1.33,2.49,2.34,2.34,0,0,1-2.25.53,3.47,3.47,0,0,1-1.86-1.29,8,8,0,0,1-1.13-4.06l.32.07a13.34,13.34,0,0,1-2.18,3.06,4.62,4.62,0,0,1-3.15,1.36,2.92,2.92,0,0,1-1.57-.43,2.63,2.63,0,0,1-1-1.16,2.75,2.75,0,0,1-.2-1.4,1.93,1.93,0,0,1,.61-1.16l.15.16a10.1,10.1,0,0,1-3.55,2.19,8.58,8.58,0,0,1-1.06.3,1.83,1.83,0,0,1-.38.06l.36-.12c.24-.07.59-.18,1-.35a10.41,10.41,0,0,0,3.44-2.24l.15.17a2,2,0,0,0-.32,2.28,2.3,2.3,0,0,0,.89,1,2.74,2.74,0,0,0,1.43.36,4.29,4.29,0,0,0,2.93-1.29,12.9,12.9,0,0,0,2.1-3l.27-.47,0,.54a7.83,7.83,0,0,0,1.08,3.89A3.11,3.11,0,0,0,556,290.4a1.94,1.94,0,0,0,1.91-.45,5.29,5.29,0,0,0,1.23-2.33,17.26,17.26,0,0,0,.59-2.59,40.15,40.15,0,0,0,.37-5c0-1.62.08-3.16.24-4.6a19.35,19.35,0,0,1,.81-3.93,11,11,0,0,1,3-4.94A6.35,6.35,0,0,1,565.91,265.36Z" transform="translate(-16.85 -230.31)"/><path class="cls-5" d="M612.33,284.8s0,0-.14.1l-.41.25a5.46,5.46,0,0,1-.69.35,7.43,7.43,0,0,1-1,.41,13.69,13.69,0,0,1-6.72.58,17.6,17.6,0,0,1-9-4.3,30.57,30.57,0,0,1-7.16-10c-1-2-1.69-4-2.54-5.84a20.3,20.3,0,0,0-3-5,10.58,10.58,0,0,0-4.2-3.12,7.75,7.75,0,0,0-2.32-.48,8.19,8.19,0,0,0-2.19.21,9.06,9.06,0,0,0-3.4,1.64,8.87,8.87,0,0,0-1.95,2.11,11,11,0,0,0-1,2.24l0-.16c0-.13.07-.28.12-.47a7.57,7.57,0,0,1,.75-1.69,9,9,0,0,1,1.94-2.19,9.19,9.19,0,0,1,3.47-1.73,8.25,8.25,0,0,1,2.26-.24,7.76,7.76,0,0,1,2.42.48,10.93,10.93,0,0,1,4.35,3.18,20.89,20.89,0,0,1,3.09,5.09c.85,1.88,1.59,3.88,2.54,5.84a30.46,30.46,0,0,0,7.05,9.88,17.46,17.46,0,0,0,8.83,4.3,14,14,0,0,0,6.64-.46A20.32,20.32,0,0,0,612.33,284.8Z" transform="translate(-16.85 -230.31)"/><path class="cls-4" d="M599.58,300.26c-.34.29-2-1.31-4.57-1.62s-4.63.78-4.87.42c-.12-.16.25-.7,1.15-1.21a6.46,6.46,0,0,1,3.94-.74,6.33,6.33,0,0,1,3.59,1.69C599.54,299.53,599.74,300.14,599.58,300.26Z" transform="translate(-16.85 -230.31)"/><path class="cls-4" d="M597.38,305.05a2.09,2.09,0,0,1-2.35,1.76,2,2,0,0,1-1.82-2.22,2.09,2.09,0,0,1,2.34-1.76A2,2,0,0,1,597.38,305.05Z" transform="translate(-16.85 -230.31)"/><path class="cls-4" d="M607.51,272.17c1.13,1.87,3,3.66,5.17,3.66a17.34,17.34,0,0,0,2.38-.44c.7.54.25,3.11-.34,3.77a13.72,13.72,0,0,1-1.8,1.5c2.39,1.63,4.78,1.21,7.59.5a13.38,13.38,0,0,1-9,9.81c-1.42.43-3.11.57-4.27-.36a5.36,5.36,0,0,1-1.52-3.52,58.26,58.26,0,0,1-.41-14.39Z" transform="translate(-16.85 -230.31)"/><path class="cls-8" d="M578.93,359.65s9.75,4,15.31,17.47c3.91,9.49,25.61,39.44,25.61,39.44l57.71,12.82,2,18.4L587.23,447,574.4,406.18Z" transform="translate(-16.85 -230.31)"/><path class="cls-8" d="M568.94,448.94l14.57-79.25-3.06-10.81,2-9.14s-23-9.23-39.73-15.84l-2.7,8.74-10.25,4.3c-9.48,4-21.61,13.12-25.67,22.56-9.77,22.71-21.07,38.79-21.07,79.15" transform="translate(-16.85 -230.31)"/><path class="cls-4" d="M582.5,366.1a4.41,4.41,0,0,1-.09.84c-.09.6-.2,1.39-.35,2.38-.32,2.07-.81,5.06-1.47,8.74-1.3,7.37-3.26,17.52-5.6,28.69s-4.56,21.27-6.22,28.57c-.83,3.6-1.51,6.53-2,8.63-.24,1-.43,1.75-.57,2.34a4.35,4.35,0,0,1-.24.81,4.29,4.29,0,0,1,.12-.83l.47-2.36c.44-2.11,1.06-5.06,1.81-8.68,1.56-7.37,3.7-17.45,6.06-28.59s4.36-21.31,5.76-28.65c.69-3.63,1.25-6.59,1.65-8.71.19-1,.34-1.77.46-2.36A4.49,4.49,0,0,1,582.5,366.1Z" transform="translate(-16.85 -230.31)"/><g class="cls-9"><path d="M518.18,391.77c5.37,23.24,21.81,44.06,43.69,53.54A517.64,517.64,0,0,1,518.18,391.77Z" transform="translate(-16.85 -230.31)"/></g><g class="cls-9"><path d="M581.12,374.08c2.12,9.84.54,22.13-4.4,30.9l-1.23-2.55c1.75-7.39,4.24-20.51,5.63-28.35" transform="translate(-16.85 -230.31)"/></g><path class="cls-6" d="M676.45,430.28c.5-.75,7-8.21,8.71-8.21s3.73,2,3.73,2,2.24-1,3.73-.49,8.46,6.46,8.46,8.7V436a9.72,9.72,0,0,1,0,3c-.25,1.74-4.48,4.72-4.48,4.72H672.73s-4.56-3.07-4-6S676.45,430.28,676.45,430.28Z" transform="translate(-16.85 -230.31)"/><path class="cls-7" d="M688.89,424.06a10.21,10.21,0,0,1,1.49.85l4,2.49a13.21,13.21,0,0,1,1.3.89,3.38,3.38,0,0,1,1,1.49,7.29,7.29,0,0,1,.22,1.84c0,.62.07,1.25.1,1.9.13,2.61.26,5.46.41,8.46l.06,1.36v.23l-.23.06-1.46.36h-.07a3.07,3.07,0,0,1-1.87-.7,5.32,5.32,0,0,1-1.21-1.45,12.68,12.68,0,0,1-1.25-3.21,27.86,27.86,0,0,1-.82-5.74l.13.18-4.18-1.65a9.35,9.35,0,0,1-1.49-.67,9.76,9.76,0,0,1,1.57.47l4.24,1.47.12.05v.13a29.67,29.67,0,0,0,.92,5.63,12.38,12.38,0,0,0,1.22,3.06,3.28,3.28,0,0,0,2.62,1.86h-.08l1.46-.36-.22.29-.06-1.35c-.13-3-.25-5.85-.36-8.47,0-.65,0-1.28-.08-1.9a6.62,6.62,0,0,0-.16-1.72,3.06,3.06,0,0,0-.81-1.3,11.94,11.94,0,0,0-1.23-.88l-3.84-2.64A9,9,0,0,1,688.89,424.06Z" transform="translate(-16.85 -230.31)"/><path class="cls-7" d="M672.73,442.86a8,8,0,0,1,1.6-.21l4.35-.35h.07a47.76,47.76,0,0,0,4.91.89,26.26,26.26,0,0,0,2.87.23,3.17,3.17,0,0,0,2.62-.75,2.31,2.31,0,0,0,.42-1.46c0-.54-.08-1.08-.1-1.68a2.07,2.07,0,0,0-.65-1.22,5.08,5.08,0,0,0-1.18-.89,9.09,9.09,0,0,0-5.12-.9,4,4,0,0,1-3.38-1.36,1.79,1.79,0,0,1-.45-1.27,4.2,4.2,0,0,0,.62,1.13,3.86,3.86,0,0,0,3.2,1.09,9.22,9.22,0,0,1,5.39.85,5.47,5.47,0,0,1,1.32,1,2.58,2.58,0,0,1,.82,1.6c0,.51.11,1.09.1,1.69a2.81,2.81,0,0,1-.54,1.81,2.56,2.56,0,0,1-1.5.86,6.64,6.64,0,0,1-1.59.1,26.86,26.86,0,0,1-2.92-.26,45.78,45.78,0,0,1-5-1h.06l-4.36.16A7.49,7.49,0,0,1,672.73,442.86Z" transform="translate(-16.85 -230.31)"/><path class="cls-7" d="M697.06,442.75a42.57,42.57,0,0,1,1.93-4.33c1.07-2.38,2-4.28,2.2-4.21a20.33,20.33,0,0,1-1.68,4.46C698.44,441.07,697.2,442.85,697.06,442.75Z" transform="translate(-16.85 -230.31)"/><path class="cls-8" d="M516.93,390.08s42.07,57.27,48.65,57.27h61.47V424.06l-46.49-11s-22.89-47.37-27.95-53.45-18.61-14.23-28.73-5.12S516.93,390.08,516.93,390.08Z" transform="translate(-16.85 -230.31)"/><path class="cls-6" d="M627,426.31l10.07-.8s.22-3.74,2.42-5.06,2-4.18,3.3-4a5.76,5.76,0,0,0,2.2,0l8.35-7,7-4.62,5.49-1.1s3.3.88,0,4l-3.51,2-3.08,3.07,7-3.45a2.41,2.41,0,0,1,2.08,0,30.38,30.38,0,0,1,5.4,3,1.52,1.52,0,0,1,0,2.2l3.08,2.64s.66,3.52-2.86,2.64l-2.86-.66-3.74,3.74s12.75-2.64,13.63-2.2,2,2.42,0,4.18-9.67,1.32-11.43,3.07-13.39,12.38-16.24,13-26.32,6.39-26.32,6.39Z" transform="translate(-16.85 -230.31)"/><path class="cls-7" d="M676.87,417.15a13.86,13.86,0,0,1-1.73-1.22c-.53-.39-1.16-.85-1.87-1.33-.35-.24-.73-.49-1.12-.73a2.57,2.57,0,0,0-1.18-.48,7.14,7.14,0,0,0-2.46,1c-.76.41-1.43.8-2,1.13a9.5,9.5,0,0,1-1.86,1,6.45,6.45,0,0,1,1.64-1.37c.54-.37,1.2-.8,2-1.24.38-.23.77-.45,1.2-.67a3.53,3.53,0,0,1,1.5-.47,1.32,1.32,0,0,1,.46.06,3.34,3.34,0,0,1,.38.15c.23.12.45.24.65.37q.62.39,1.14.78c.7.51,1.31,1,1.81,1.44C676.39,416.46,676.93,417.09,676.87,417.15Z" transform="translate(-16.85 -230.31)"/><path class="cls-7" d="M646,415.64c.09.14-1,1-2.17,2.21s-2.22,2.16-2.35,2a7.72,7.72,0,0,1,1.95-2.45A6.55,6.55,0,0,1,646,415.64Z" transform="translate(-16.85 -230.31)"/><path class="cls-4" d="M552.61,359.65A28.52,28.52,0,0,1,555,363.2c1.45,2.4,3.5,6,6,10.64,5,9.29,11.77,22.75,19.77,39.15l-.16-.13,46.49,10.93.22,0v.22c0,7.49,0,15.31,0,23.29v.29h-3.08l-52.25,0h-5.94a5.2,5.2,0,0,1-.77,0,2.62,2.62,0,0,1-.76-.26,8.2,8.2,0,0,1-1.28-.77,25.21,25.21,0,0,1-2.24-1.84,109.91,109.91,0,0,1-7.67-8c-4.71-5.37-8.9-10.55-12.68-15.3-7.56-9.51-13.47-17.36-17.53-22.8l-4.64-6.3-1.19-1.65c-.26-.37-.38-.57-.38-.57s.15.17.43.54l1.23,1.61,4.73,6.23c4.12,5.4,10.07,13.22,17.66,22.69,3.81,4.73,8,9.88,12.73,15.23a109.21,109.21,0,0,0,7.65,7.95,24,24,0,0,0,2.2,1.8,7.07,7.07,0,0,0,1.2.72,2.39,2.39,0,0,0,1.31.24H572l52.25,0h2.79l-.29.29c0-8,0-15.8,0-23.29l.21.28-46.47-11-.12,0,0-.11c-7.94-16.41-14.7-29.91-19.58-39.23-2.43-4.67-4.43-8.27-5.84-10.7-.73-1.19-1.27-2.13-1.71-2.7S552.61,359.65,552.61,359.65Z" transform="translate(-16.85 -230.31)"/><path class="cls-4" d="M546.49,355.91c0,.1-1.44-.47-3.8-1a29.64,29.64,0,0,0-4.18-.64,33.37,33.37,0,0,0-5.18,0,32.07,32.07,0,0,0-5.09.93,30,30,0,0,0-4,1.41c-2.21,1-3.48,1.78-3.54,1.69a3.88,3.88,0,0,1,.85-.64,19.13,19.13,0,0,1,2.52-1.42,26.08,26.08,0,0,1,4-1.55,27.5,27.5,0,0,1,10.46-1,26.14,26.14,0,0,1,4.24.77,18.68,18.68,0,0,1,2.75.93A3.74,3.74,0,0,1,546.49,355.91Z" transform="translate(-16.85 -230.31)"/><path class="cls-4" d="M572.1,423.69a16.36,16.36,0,0,1,3.14-5.41,16.08,16.08,0,0,1,4.58-4.27c.11.14-2,1.95-4.13,4.63S572.26,423.77,572.1,423.69Z" transform="translate(-16.85 -230.31)"/><path class="cls-4" d="M570.69,416.55a9.23,9.23,0,0,1,4-2.37,9.43,9.43,0,0,1,4.58-.7c0,.17-2,.39-4.39,1.25S570.79,416.69,570.69,416.55Z" transform="translate(-16.85 -230.31)"/><path class="cls-4" d="M621,447.8l86.12,1.14,27.73-77.75a3.27,3.27,0,0,0-1.73-4.14h0a3.26,3.26,0,0,0-4.38,1.85l-27.32,73.62-80.44.8a2.23,2.23,0,0,0-2.21,2.24h0A2.23,2.23,0,0,0,621,447.8Z" transform="translate(-16.85 -230.31)"/></g><g id="Character_2" data-name="Character 2"><polygon class="cls-10" points="368.3 98.94 359.38 95.64 325.25 94.63 317.33 96.79 318.37 116.09 336.28 127.51 353.65 127.16 364.57 117.21 366.99 107.35 368.3 98.94"/><path class="cls-11" d="M283.93,358.81a116.52,116.52,0,0,1,7.15-12.76,29.48,29.48,0,0,1,18.38-12.94l28.63-7.76s2,19.31,21.64,19.31,20.09-17.88,20.09-17.88L415.87,340c1.14.44,8.82,3.1,17.76,22.27,8.52,18.26,12.24,27.6,12.24,27.6l-34,9.14-2.26,31.42.72,17.53-103.59-.23.58-20-.47-33.14-2.18,4.09-32.34-13S275.55,376.08,283.93,358.81Z" transform="translate(-16.85 -230.31)"/><path class="cls-4" d="M306.36,377.36c-.16,0-.06,11.11.2,24.79s.61,24.79.76,24.78.06-11.1-.21-24.79S306.51,377.36,306.36,377.36Z" transform="translate(-16.85 -230.31)"/><g class="cls-9"><path d="M407.28,380.6c-1.61-1.77-4.11-2.36-6.45-2.84-26.66-5.47-54.15-3.16-81.15.22-3.35.42-7.05,1.13-9.07,3.83-1.47,1.95-.52,4.54-.66,7-.71,12.52.92,25.85,3.4,38.14l92-1.47c3.14-9.54,3.91-25.71,4-36.69C409.31,385.89,409.22,382.72,407.28,380.6Z" transform="translate(-16.85 -230.31)"/></g><path class="cls-4" d="M413.27,366.15a2.58,2.58,0,0,1,0,.48V368c0,1.17,0,2.87-.08,5-.11,4.19-.33,10-.68,16.34s-.77,12.15-1.1,16.33c-.18,2-.32,3.72-.42,4.94-.06.54-.11,1-.14,1.34a1.77,1.77,0,0,1-.08.46,2.79,2.79,0,0,1,0-.47q0-.53.06-1.35c.08-1.21.18-2.89.3-4.94.26-4.23.6-10,1-16.33s.61-12.15.79-16.33c.09-2.05.16-3.73.21-4.95l.07-1.35A1.54,1.54,0,0,1,413.27,366.15Z" transform="translate(-16.85 -230.31)"/><path class="cls-4" d="M323.12,284.93s-2.29,3.13-2.25,8.8c0,3,2.09,9.19,7.48,9.5-1.43,8.67,4.12,15.09,13.37,15.1s19.84-15.85,28.4-19.34L395,292.42c2.19-.5,3.09-3.17,3.05-5.41s-.62-4.57.17-6.67c1.09-2.88,4.42-4.42,5.56-7.28,1.29-3.24-.71-6.85-3-9.48s-5.13-5.12-5.86-8.54c-.68-3.14.53-6.69-1-9.49-1.93-3.46-7-3.89-9.34-7.07-1.14-1.54-1.49-3.55-2.62-5.1-1.91-2.64-5.6-3.33-8.85-3s-6.37,1.53-9.62,1.77c-4.47.32-9.08-1.12-13.37.17-4.73,1.43-7.61,5.63-10.68,9.69l-4,4.71a17.91,17.91,0,0,1-2.67,2.18c-1.69,1.1-3.62,1.85-5.06,3.25a7.91,7.91,0,0,0,.55,11.39,8.46,8.46,0,0,0-5.68,8.31s-.44,4.12,2.17,6A5.69,5.69,0,0,0,323.12,284.93Z" transform="translate(-16.85 -230.31)"/><path class="cls-4" d="M339.79,293.35c-2.05-6.31-4.08-12.67-5-19.24s-.74-13.42,1.57-19.63c.35-.95,3.34-7.27,4.34-7.17.72.07-1.12,6-.76,6.59,3.45,5.93,4.39,13.06,3.84,19.9a89.54,89.54,0,0,1-4,19.55" transform="translate(-16.85 -230.31)"/><path class="cls-6" d="M357.77,342.88c-10.28-.22-17.75-17.09-17.75-17.09L339.35,268c-.54-16.63,8.69-30.81,25.33-30.89l1.54.09a29.75,29.75,0,0,1,28.15,28.9c.39,14.42.63,30.35.12,38.05-1.05,15.93-17.13,17.56-17.13,17.56s-.09,3.7-.14,8.38c-.11,10.53-15.33,13.12-19.45,12.76Z" transform="translate(-16.85 -230.31)"/><path class="cls-12" d="M377.14,321.74a38.58,38.58,0,0,1-20.43-7.25s4.44,11.86,20.43,11.28Z" transform="translate(-16.85 -230.31)"/><path class="cls-4" d="M386.05,279.79a2.28,2.28,0,0,1-2.32,2.18,2.18,2.18,0,0,1-2.23-2.18,2.27,2.27,0,0,1,2.31-2.18A2.18,2.18,0,0,1,386.05,279.79Z" transform="translate(-16.85 -230.31)"/><path class="cls-4" d="M390.39,272.56c-.3.28-1.95-1.09-4.41-1.21s-4.31,1-4.56.69c-.12-.14.2-.66,1-1.19a6.3,6.3,0,0,1,3.67-.92,6,6,0,0,1,3.49,1.34C390.31,271.89,390.54,272.44,390.39,272.56Z" transform="translate(-16.85 -230.31)"/><path class="cls-4" d="M364.14,279.2a2.28,2.28,0,0,1-2.32,2.18,2.18,2.18,0,0,1-2.24-2.18A2.29,2.29,0,0,1,361.9,277,2.19,2.19,0,0,1,364.14,279.2Z" transform="translate(-16.85 -230.31)"/><path class="cls-4" d="M366.34,272.27c-.3.28-2-1.09-4.41-1.22s-4.31,1-4.56.69c-.12-.14.19-.66,1-1.18a6.2,6.2,0,0,1,3.67-.92,6,6,0,0,1,3.48,1.33C366.25,271.59,366.48,272.14,366.34,272.27Z" transform="translate(-16.85 -230.31)"/><path class="cls-4" d="M374.12,291.57c0-.14,1.53-.33,4-.51.63,0,1.23-.12,1.36-.54a3.16,3.16,0,0,0-.32-1.88c-.5-1.55-1-3.17-1.59-4.86-2.21-6.93-3.77-12.6-3.49-12.69s2.29,5.45,4.5,12.37l1.52,4.89a3.69,3.69,0,0,1,.19,2.48,1.59,1.59,0,0,1-1.08.86,4.72,4.72,0,0,1-1.07.09C375.66,291.78,374.12,291.71,374.12,291.57Z" transform="translate(-16.85 -230.31)"/><path class="cls-4" d="M366.81,292.87c.4,0,.27,2.66,2.44,4.67s5,1.87,5,2.24c0,.17-.66.49-1.86.45a6.6,6.6,0,0,1-4.2-1.72,5.81,5.81,0,0,1-1.88-3.9C366.3,293.49,366.63,292.85,366.81,292.87Z" transform="translate(-16.85 -230.31)"/><path class="cls-4" d="M366.73,262.32c-.27.65-2.7.2-5.6.4s-5.26.85-5.6.23c-.16-.3.28-.9,1.25-1.5a9.81,9.81,0,0,1,8.54-.48C366.35,261.45,366.86,262,366.73,262.32Z" transform="translate(-16.85 -230.31)"/><path class="cls-4" d="M389.81,264.36c-.46.54-2.11-.13-4.14-.27s-3.77.18-4.13-.43c-.16-.29.14-.83.92-1.32a6,6,0,0,1,6.67.57C389.81,263.52,390,264.1,389.81,264.36Z" transform="translate(-16.85 -230.31)"/><path class="cls-6" d="M339.8,279.91c-.26-.13-10.78-3.83-11,7.09s10.77,8.9,10.8,8.59S339.8,279.91,339.8,279.91Z" transform="translate(-16.85 -230.31)"/><path class="cls-7" d="M336.34,291.38s-.19.13-.52.27a1.85,1.85,0,0,1-1.42,0c-1.14-.45-2.08-2.3-2.09-4.27a6.35,6.35,0,0,1,.6-2.71,2.2,2.2,0,0,1,1.46-1.43,1,1,0,0,1,1.11.55c.14.3.07.52.12.54s.24-.18.16-.63a1.18,1.18,0,0,0-.41-.69,1.42,1.42,0,0,0-1.05-.3,2.65,2.65,0,0,0-2,1.65,6.54,6.54,0,0,0-.73,3c0,2.21,1.11,4.29,2.68,4.78a2,2,0,0,0,1.74-.25C336.32,291.65,336.38,291.4,336.34,291.38Z" transform="translate(-16.85 -230.31)"/><path class="cls-4" d="M387.32,248c1.78-1-3.45-6.75-7.77-8.78-6.53-3.06-16.53-5-22.6-3.38-7.31,2-13.42,5.52-17.16,12.11a42.92,42.92,0,0,0-5.1,21.87,13,13,0,0,0,1.45,6.69c1.5,2.43,4.4,4,4.23,7.32a4.61,4.61,0,0,0,1.09,3.35c2,2.15,4.44.18,5.59-1.81,2.46-4.24,2.79-9.35,3.07-14.24.19-3.48.38-7-.56-10.4-.51-1.83-1.35-3.56-1.76-5.41a6.55,6.55,0,0,1,.85-5.44,7.36,7.36,0,0,1,.89-.89,11.4,11.4,0,0,1,11.33-2c6.12,2.25,16.58,5.63,19.35,3.58,4-3,5-4.89,5-4.89Z" transform="translate(-16.85 -230.31)"/><path class="cls-4" d="M357.54,234.31A24,24,0,0,1,376,235.56c3,1.59,5.63,4.09,6.5,7.34s-.57,7.21-3.69,8.43l-.22.13c-4.68,1.51-7.7.85-12.33-.82-3.89-1.4-7.33-3.86-11.23-5.24a22.22,22.22,0,0,0-13-.55A36.23,36.23,0,0,1,357.54,234.31Z" transform="translate(-16.85 -230.31)"/><path class="cls-5" d="M336.77,245.11c.09.08,1-1,2.75-2.19a15.66,15.66,0,0,1,3.31-1.77,10.09,10.09,0,0,1,4.44-.75,14.89,14.89,0,0,1,7.62,3.14c1.68,1.34,2.47,2.47,2.57,2.39s-.11-.34-.47-.84a11.77,11.77,0,0,0-1.77-1.94,14.17,14.17,0,0,0-7.89-3.48,10.39,10.39,0,0,0-4.75.85,14.48,14.48,0,0,0-3.37,2A8.43,8.43,0,0,0,336.77,245.11Z" transform="translate(-16.85 -230.31)"/><path class="cls-5" d="M370.05,233.32a28.31,28.31,0,0,0,2.89,1.09,23.8,23.8,0,0,1,11.2,9.23,28,28,0,0,0,1.63,2.63,8.75,8.75,0,0,0-1.19-2.9,20.59,20.59,0,0,0-4.85-5.79,20.8,20.8,0,0,0-6.62-3.66A8.46,8.46,0,0,0,370.05,233.32Z" transform="translate(-16.85 -230.31)"/><path class="cls-5" d="M324.73,272.79s.38.16,1.06.36a7.7,7.7,0,0,0,3,.2,12.13,12.13,0,0,0,4.24-1.41c1.51-.78,3.07-1.85,4.79-2.86a14.52,14.52,0,0,1,5.25-2,6.89,6.89,0,0,1,4.49.83,5.34,5.34,0,0,1,2.15,2.26,3.51,3.51,0,0,1,.29.81.92.92,0,0,1,0,.29s-.12-.39-.46-1a5.34,5.34,0,0,0-2.16-2.08,6.67,6.67,0,0,0-4.3-.72,14.52,14.52,0,0,0-5.11,2c-1.7,1-3.27,2.06-4.82,2.84a12.12,12.12,0,0,1-4.38,1.36,7.23,7.23,0,0,1-3.06-.33A5.1,5.1,0,0,1,325,273,1.12,1.12,0,0,1,324.73,272.79Z" transform="translate(-16.85 -230.31)"/><path class="cls-5" d="M325.42,277.66a11.77,11.77,0,0,0,3.62.22,17.31,17.31,0,0,0,3.85-.91c1.41-.49,2.93-1.15,4.58-1.75a16.1,16.1,0,0,1,4.82-1.05,9,9,0,0,1,4,.75,6.21,6.21,0,0,1,2.19,1.65,4.23,4.23,0,0,1,.42.62c.09.15.13.23.11.24s-.21-.29-.64-.76a6.55,6.55,0,0,0-2.19-1.49,9,9,0,0,0-3.84-.65,16.47,16.47,0,0,0-4.71,1.07c-1.62.58-3.15,1.24-4.59,1.71a16.4,16.4,0,0,1-3.94.85,9.11,9.11,0,0,1-2.7-.18c-.31-.08-.55-.15-.71-.21S325.41,277.67,325.42,277.66Z" transform="translate(-16.85 -230.31)"/><path class="cls-5" d="M399.6,267.82a2,2,0,0,1-.37.95,5.32,5.32,0,0,1-1.71,1.77,5.46,5.46,0,0,1-2.31.87,2,2,0,0,1-1-.05,9.54,9.54,0,0,0,3.11-1.15A9.79,9.79,0,0,0,399.6,267.82Z" transform="translate(-16.85 -230.31)"/><path class="cls-5" d="M402.21,273.55a3.29,3.29,0,0,1-.53,1.41,7.77,7.77,0,0,1-6,3.83,3.48,3.48,0,0,1-1.51-.12c0-.06.58,0,1.47-.16a8.53,8.53,0,0,0,5.78-3.69C401.94,274.06,402.15,273.52,402.21,273.55Z" transform="translate(-16.85 -230.31)"/><path class="cls-6" d="M442.92,390.69l13.88,27.86a20.31,20.31,0,0,1,2.11,10.05h0a20.31,20.31,0,0,1-20.28,19.32l-39.81-2.31-1.74-18.16,30.29-7.3L415.63,398Z" transform="translate(-16.85 -230.31)"/><path class="cls-12" d="M427.37,420.15c0,.12,1.38-.11,3.57-.09a27.28,27.28,0,0,1,8.4,1.48,25.73,25.73,0,0,1,7.52,4c1.72,1.36,2.53,2.47,2.63,2.4s-.14-.32-.5-.84a14.13,14.13,0,0,0-1.82-1.93,22.6,22.6,0,0,0-7.61-4.27,24,24,0,0,0-8.62-1.32,16.49,16.49,0,0,0-2.63.31C427.69,420,427.36,420.1,427.37,420.15Z" transform="translate(-16.85 -230.31)"/><path class="cls-6" d="M272.87,385.89S265.4,406.79,256,430a9.35,9.35,0,0,0-.45,1.45c-1.42,6.29,3.37,16.86,9.81,16.86l53.9-.53V430.18l-31.08-6.81,12-26.52Z" transform="translate(-16.85 -230.31)"/><path class="cls-12" d="M264,428.19c.08.1,1.14-.74,3-1.82a28.34,28.34,0,0,1,16.21-3.67c2.15.17,3.47.47,3.5.35a2.83,2.83,0,0,0-.9-.33,16.32,16.32,0,0,0-2.55-.5,24.71,24.71,0,0,0-8.58.43,25.11,25.11,0,0,0-7.93,3.3,18.12,18.12,0,0,0-2.09,1.56C264.23,427.92,264,428.16,264,428.19Z" transform="translate(-16.85 -230.31)"/><path class="cls-10" d="M404.87,426.39h-7.79s-17.58-6.35-21.2-5.74c-3.26.54-15.18,8.46-17.51,10a1.49,1.49,0,0,0-.57.72h0a2.55,2.55,0,0,0,1.42,3.25l.25.1-.11.36a4.43,4.43,0,0,0-.18,1.42,1.72,1.72,0,0,0,3.2.74l-.45.8a1.92,1.92,0,0,0-.25,1.07l0,.72a2,2,0,0,0,1.35,1.76h0a2,2,0,0,0,2-.54c1.51-1.66,4.78-5,7-5.36a52.76,52.76,0,0,1,7.22-.37,2.47,2.47,0,0,1,2.27,1.57h0c-1.32.09-10.45,4.86-13.69,6.56a3.49,3.49,0,0,0-1.88,2.6c-.11,1,.4,2.08,2.4,1.61,4.3-1,12-4.56,12-4.56s4-1.14,6.57.68c3.63,2.57,5.3,3.51,8.42,2.47a26.09,26.09,0,0,0,5.42-2.52l6.15-.61S412.82,428.62,404.87,426.39Z" transform="translate(-16.85 -230.31)"/><path class="cls-12" d="M381.65,429.36c0,.07-1.25-.33-3.3-.46A17,17,0,0,0,364.14,435c-1.33,1.57-1.9,2.74-2,2.7a3.88,3.88,0,0,1,.39-.81,15.2,15.2,0,0,1,1.39-2,16.53,16.53,0,0,1,14.41-6.15,15.43,15.43,0,0,1,2.42.41A3.72,3.72,0,0,1,381.65,429.36Z" transform="translate(-16.85 -230.31)"/><path class="cls-12" d="M379.79,425.09a14.51,14.51,0,0,0-3.44-.6,15,15,0,0,0-8,2.27,32,32,0,0,0-6.44,5.45l-1.77,1.88a4.81,4.81,0,0,1-.67.66,5.34,5.34,0,0,1,.58-.75c.38-.47,1-1.14,1.69-1.95a29.72,29.72,0,0,1,6.44-5.58,14.63,14.63,0,0,1,8.18-2.21,9.13,9.13,0,0,1,2.55.47,4.71,4.71,0,0,1,.66.25A.7.7,0,0,1,379.79,425.09Z" transform="translate(-16.85 -230.31)"/><path class="cls-7" d="M307.85,426.94h7.8s17.58-6.35,21.2-5.74c3.25.54,15.18,8.46,17.51,10a1.55,1.55,0,0,1,.57.72h0a2.56,2.56,0,0,1-1.43,3.25l-.24.1.11.36a4.17,4.17,0,0,1,.17,1.42,1.71,1.71,0,0,1-3.19.74l.45.8a2,2,0,0,1,.25,1.07l0,.72a2,2,0,0,1-1.35,1.76h0a2,2,0,0,1-2.05-.54c-1.51-1.66-4.77-5-7-5.36a52.84,52.84,0,0,0-7.22-.37,2.46,2.46,0,0,0-2.27,1.57h0c1.31.09,10.45,4.86,13.68,6.56a3.46,3.46,0,0,1,1.88,2.6c.12,1-.39,2.08-2.39,1.61-4.3-1-12-4.56-12-4.56s-4-1.14-6.57.68c-3.64,2.57-5.3,3.51-8.42,2.47a26.09,26.09,0,0,1-5.42-2.52l-6.15-.61S299.9,429.17,307.85,426.94Z" transform="translate(-16.85 -230.31)"/><path class="cls-12" d="M331.07,429.91c0,.07,1.25-.33,3.31-.46a17,17,0,0,1,14.21,6.07,30.61,30.61,0,0,1,2,2.7,3.88,3.88,0,0,0-.39-.81,15,15,0,0,0-1.38-2,16.53,16.53,0,0,0-14.41-6.15,15.38,15.38,0,0,0-2.43.41A4.26,4.26,0,0,0,331.07,429.91Z" transform="translate(-16.85 -230.31)"/><path class="cls-12" d="M332.94,425.64a14.49,14.49,0,0,1,3.43-.6,15,15,0,0,1,8,2.27,32.06,32.06,0,0,1,6.45,5.45l1.76,1.88a4.48,4.48,0,0,0,.68.66,6.58,6.58,0,0,0-.58-.75c-.39-.47-1-1.14-1.69-1.95a29.57,29.57,0,0,0-6.45-5.58,14.6,14.6,0,0,0-8.17-2.21,9.22,9.22,0,0,0-2.56.47,5.27,5.27,0,0,0-.66.25C333,425.59,332.93,425.63,332.94,425.64Z" transform="translate(-16.85 -230.31)"/><path class="cls-13" d="M320.19,448.4h89.45a4.74,4.74,0,0,0,4.74-4.54l2.69-61.57a4.75,4.75,0,0,0-4.74-5H317.69a4.76,4.76,0,0,0-4.75,4.95l2.51,61.56A4.75,4.75,0,0,0,320.19,448.4Z" transform="translate(-16.85 -230.31)"/><path class="cls-4" d="M320.19,448.4H320a5.29,5.29,0,0,1-.65-.06,4.72,4.72,0,0,1-2.29-1.1,4.86,4.86,0,0,1-1.66-3.71c-.07-1.64-.15-3.54-.25-5.66-.36-8.54-.89-20.87-1.54-36.1q-.24-5.72-.5-12c-.09-2.08-.17-4.2-.26-6.36,0-.55-.07-1.07-.05-1.65a5.23,5.23,0,0,1,.39-1.65,4.89,4.89,0,0,1,2.32-2.47,5.12,5.12,0,0,1,1.67-.5c.6-.05,1.15,0,1.72,0h93a5.42,5.42,0,0,1,2.21.34,5,5,0,0,1,3,3.2,5.9,5.9,0,0,1,.18,2.2l-.09,2.14c-.07,1.43-.13,2.85-.19,4.27q-.37,8.49-.73,16.72c-.48,11-.95,21.54-1.39,31.62-.06,1.26-.11,2.51-.17,3.75,0,.62-.05,1.24-.08,1.86a6.75,6.75,0,0,1-.25,1.88A5,5,0,0,1,412,448a4.88,4.88,0,0,1-1.79.57c-.63.06-1.21,0-1.81,0h-13.9l-24.95,0-36.13-.07-9.82,0-2.56,0-.87,0,.87,0,2.56,0,9.82,0,36.13-.07,24.95,0h13.9c.59,0,1.21,0,1.77,0A4.55,4.55,0,0,0,414,445a6.43,6.43,0,0,0,.23-1.78c0-.61,0-1.23.08-1.85.05-1.25.1-2.5.16-3.76.43-10.08.89-20.65,1.36-31.62q.36-8.22.73-16.72c.06-1.42.12-2.84.19-4.26l.09-2.15a5.46,5.46,0,0,0-.16-2.06,4.55,4.55,0,0,0-2.71-2.92,5.06,5.06,0,0,0-2.06-.31h-2.17l-65.62,0H318.87c-.56,0-1.15,0-1.68,0a4.63,4.63,0,0,0-1.55.46,4.58,4.58,0,0,0-2.16,2.29,5,5,0,0,0-.36,1.53c0,.52,0,1.08,0,1.61.09,2.16.17,4.29.25,6.37.17,4.15.33,8.15.48,12,.59,15.23,1.07,27.56,1.4,36.1.08,2.13.15,4,.21,5.66a4.81,4.81,0,0,0,1.59,3.66,4.74,4.74,0,0,0,2.24,1.11C319.9,448.4,320.2,448.37,320.19,448.4Z" transform="translate(-16.85 -230.31)"/><path class="cls-14" d="M360.11,414a4.9,4.9,0,1,0,4.9-4.9A4.9,4.9,0,0,0,360.11,414Z" transform="translate(-16.85 -230.31)"/></g><g id="Character_1" data-name="Character 1"><polygon class="cls-6" points="148.29 100.56 134.26 97.85 107.34 104.02 93.7 106.87 93.5 125.51 123.94 131.12 144.47 125.03 152.24 113.61 148.29 100.56"/><path class="cls-15" d="M175.11,332.73l-13.24-3.12s-9.36,28.94-32.47,27.69c-18.83-1-18.85-20.12-18.85-20.12l-13.77,2.43s-5.77,35,.55,59.48c5.27,20.41,8.42,49.89,8.42,49.89l93.35.23-24-116.48Z" transform="translate(-16.85 -230.31)"/><path class="cls-15" d="M85.45,347.72c7.43-9.28,13.36-8.21,13.36-8.21l4,44.53L70.34,425.1,57.13,391.3S78.66,356.21,85.45,347.72Z" transform="translate(-16.85 -230.31)"/><path class="cls-15" d="M173.53,332.35s21.44,1.72,29.13,36.85c3.48,15.89,7.88,34.51,9.15,47,.92,9.08-4,23.29-13.07,24.45l-14.84,2c-7.08.1-10.93-6.41-12.42-12.58l-3.32-10.48c-1.7-12,7.47-11.83,12.6-11.72l-3.82-45.5Z" transform="translate(-16.85 -230.31)"/><path class="cls-4" d="M95,364.18a2.59,2.59,0,0,0-.1.49c-.06.36-.13.83-.22,1.42,0,.31-.09.65-.14,1s-.08.79-.13,1.23c-.09.88-.2,1.88-.24,3a73.94,73.94,0,0,0,0,7.82,93.25,93.25,0,0,0,.94,9.52c.5,3.36,1.12,6.53,1.75,9.4s1.25,5.45,1.78,7.61,1,3.89,1.33,5.09l.38,1.38a2.89,2.89,0,0,0,.15.47,1.67,1.67,0,0,0-.08-.49c-.09-.35-.19-.81-.33-1.39-.29-1.25-.71-3-1.22-5.12s-1.11-4.74-1.71-7.61-1.21-6-1.71-9.39-.83-6.56-1-9.49-.15-5.57,0-7.79c0-1.1.12-2.1.19-3,0-.44.07-.85.1-1.23l.12-1c.06-.59.11-1.07.15-1.43A3.07,3.07,0,0,0,95,364.18Z" transform="translate(-16.85 -230.31)"/><path class="cls-4" d="M197.62,420.29a4,4,0,0,0-.17-.88,13.36,13.36,0,0,0-.83-2.31A15.71,15.71,0,0,0,184,407.94a13.68,13.68,0,0,0-2.46-.08,4.16,4.16,0,0,0-.89.11,32,32,0,0,1,3.32.21,16.18,16.18,0,0,1,12.39,9A32.66,32.66,0,0,1,197.62,420.29Z" transform="translate(-16.85 -230.31)"/><path class="cls-4" d="M192.66,402.79a1.61,1.61,0,0,0-.51-.05,13.5,13.5,0,0,0-1.42.06,16.74,16.74,0,0,0-4.52,1.14,16.12,16.12,0,0,0-4,2.38,11.34,11.34,0,0,0-1.05.95c-.23.24-.35.38-.33.4s.58-.46,1.53-1.16a19.55,19.55,0,0,1,4-2.25,19.32,19.32,0,0,1,4.42-1.21C191.93,402.87,192.66,402.85,192.66,402.79Z" transform="translate(-16.85 -230.31)"/><path class="cls-4" d="M170.47,357.3a5.34,5.34,0,0,0,.05-.94c0-.6,0-1.47.11-2.55a42.83,42.83,0,0,1,1.43-8.27,41.52,41.52,0,0,1,3.09-7.81c.49-1,.92-1.72,1.23-2.24a5.42,5.42,0,0,0,.44-.82,4.75,4.75,0,0,0-.56.75c-.34.5-.8,1.25-1.33,2.2a37,37,0,0,0-4.54,16.18c0,1.08,0,2,0,2.57A4.36,4.36,0,0,0,170.47,357.3Z" transform="translate(-16.85 -230.31)"/><g class="cls-9"><path d="M96,393.68c-5.47-9.26-5.58-21.3-.81-30.95a86.55,86.55,0,0,0,1,30.91" transform="translate(-16.85 -230.31)"/></g><g class="cls-9"><path d="M144.66,404.16c4.15,1.22,9.9,1.52,13.94,0-3.16,4.5-9.27,6.13-14.56,4.66s-10.18-6.76-10.59-12.24A22.67,22.67,0,0,0,144.66,404.16Z" transform="translate(-16.85 -230.31)"/></g><path class="cls-4" d="M129.4,389.2a1.52,1.52,0,0,0,.1.37c.08.23.17.59.35,1a21.06,21.06,0,0,0,1.79,3.62,23.53,23.53,0,0,0,9.75,8.85,23.6,23.6,0,0,0,7,2.07,23.86,23.86,0,0,0,6,0,22.55,22.55,0,0,0,3.94-.87c.45-.13.79-.29,1-.37a1.68,1.68,0,0,0,.35-.16s-.51.14-1.42.4a23.52,23.52,0,0,1-3.93.75A23.7,23.7,0,0,1,130,390.55C129.61,389.68,129.43,389.19,129.4,389.2Z" transform="translate(-16.85 -230.31)"/><path class="cls-4" d="M174.59,438.62s.37.44,1.17,1.1a10.79,10.79,0,0,0,3.93,1.88,20.73,20.73,0,0,0,6.45.56c2.45-.17,5.15-.46,8-.88a40.33,40.33,0,0,0,7.77-1.79,9.66,9.66,0,0,0,2.85-1.9,15.14,15.14,0,0,0,2-2.27,21.57,21.57,0,0,0,2.19-3.8c.2-.48.36-.85.46-1.11a1.83,1.83,0,0,1,.17-.38,2.43,2.43,0,0,1-.11.4,11.77,11.77,0,0,1-.4,1.14,19.7,19.7,0,0,1-2.11,3.89,16,16,0,0,1-2,2.34,10.2,10.2,0,0,1-2.93,2,38.84,38.84,0,0,1-7.84,1.84c-2.82.42-5.52.7-8,.86a20.51,20.51,0,0,1-6.54-.65,10.37,10.37,0,0,1-3.94-2,6.3,6.3,0,0,1-.84-.88A2.58,2.58,0,0,1,174.59,438.62Z" transform="translate(-16.85 -230.31)"/><path class="cls-4" d="M171.05,368.5c.09,0,2.35,8.75,5,19.6s4.81,19.67,4.72,19.69-2.36-8.75-5-19.6S171,368.52,171.05,368.5Z" transform="translate(-16.85 -230.31)"/><path class="cls-4" d="M168.32,418a3.46,3.46,0,0,1-.11-.72,12.17,12.17,0,0,1,0-2,5.66,5.66,0,0,1,1-2.81,7.74,7.74,0,0,1,1.1-1.38,7.55,7.55,0,0,1,1.52-1.14,19.13,19.13,0,0,1,6.24-2,19.79,19.79,0,0,1,2-.18,2.79,2.79,0,0,1,.73,0c0,.06-1,.1-2.67.39a21.24,21.24,0,0,0-6.11,2.07,7.67,7.67,0,0,0-1.46,1.08,8.65,8.65,0,0,0-1.07,1.31,5.8,5.8,0,0,0-1,2.67,18.6,18.6,0,0,0-.07,2A3.2,3.2,0,0,1,168.32,418Z" transform="translate(-16.85 -230.31)"/><path class="cls-4" d="M104.85,261.19l-2.7-2.46c-3.6,1.46-5.27,5.36-5.87,9s-.52,7.43-2.16,10.76c-1.27,2.56-3.56,4.93-3.28,7.74s2.86,4.84,2.87,7.53-2.29,4.57-3.63,6.82c-2.72,4.58-4.46,23.31-3,28.38,12-1,33.12-2.13,45.09-4.68C129,305,115.65,277.86,104.85,261.19Z" transform="translate(-16.85 -230.31)"/><ellipse class="cls-5" cx="81.47" cy="59.96" rx="12.04" ry="13.34"/><g class="cls-9"><path d="M95,282.89a16.82,16.82,0,0,1,1.19-2.65c.27,8.35.76,15.17,1.63,23.38-2.35-4.25-3-9.43-3.32-14.49C94.3,286.32,94.27,284.88,95,282.89Z" transform="translate(-16.85 -230.31)"/></g><path class="cls-6" d="M118.2,343Z" transform="translate(-16.85 -230.31)"/><path class="cls-6" d="M95.93,280.43c-.83-14,9.35-26.85,23.54-28.54a26.34,26.34,0,0,1,29.63,23.66l3.53,59.23a5.21,5.21,0,0,1-.9,3.22c-3.48,5.08-9.78,9.06-15.41,9.84a25.33,25.33,0,0,1-15.6-3.23,5.08,5.08,0,0,1-2.57-4.34L117.91,327a.08.08,0,0,0-.09-.08,17.68,17.68,0,0,1-3.71-.11c-3.51-.85-12.45-4.29-15.45-17.4C97.67,305.07,96.66,292.72,95.93,280.43Z" transform="translate(-16.85 -230.31)"/><path class="cls-4" d="M115.4,299.79a15.49,15.49,0,0,0-3.84-.41c-.6,0-1.17-.09-1.29-.49a3,3,0,0,1,.28-1.76q.7-2.19,1.48-4.59c2-6.54,3.48-11.89,3.21-12s-2.14,5.16-4.18,11.69c-.49,1.61-1,3.14-1.4,4.61a3.4,3.4,0,0,0-.16,2.33,1.51,1.51,0,0,0,1,.79,4.19,4.19,0,0,0,1,.06A15.66,15.66,0,0,0,115.4,299.79Z" transform="translate(-16.85 -230.31)"/><path class="cls-4" d="M99.8,285.39c.26.28,1.81-1,4-1.09s3.89,1.1,4.12.79c.12-.13-.15-.65-.87-1.19a5.32,5.32,0,0,0-3.31-1,5.23,5.23,0,0,0-3.21,1.23C99.89,284.72,99.67,285.26,99.8,285.39Z" transform="translate(-16.85 -230.31)"/><path class="cls-4" d="M122.41,286c.31.28,1.92-1.19,4.36-1.39s4.32.9,4.56.57c.12-.15-.21-.68-1-1.2a6,6,0,0,0-3.68-.84,5.89,5.89,0,0,0-3.43,1.5C122.48,285.25,122.27,285.82,122.41,286Z" transform="translate(-16.85 -230.31)"/><path class="cls-7" d="M117.91,326.92s9.07.1,19.93-7.36c0,0-2.81,12-19.86,11.6Z" transform="translate(-16.85 -230.31)"/><path class="cls-7" d="M116.75,305.26a4.28,4.28,0,0,1,3.68-1.8,3.89,3.89,0,0,1,2.74,1.21,2.37,2.37,0,0,1,.36,2.73,2.85,2.85,0,0,1-3,1,8.67,8.67,0,0,1-3.1-1.54,2.4,2.4,0,0,1-.71-.63.76.76,0,0,1-.06-.86" transform="translate(-16.85 -230.31)"/><path class="cls-4" d="M122.38,300.9c-.38,0-.22,2.5-2.28,4.42s-4.77,1.84-4.77,2.19c0,.16.63.44,1.78.39a6.46,6.46,0,0,0,4-1.68,5.45,5.45,0,0,0,1.75-3.7C122.88,301.47,122.56,300.88,122.38,300.9Z" transform="translate(-16.85 -230.31)"/><path class="cls-4" d="M122.05,276.77c.27.61,2.59.14,5.35.25s5,.69,5.36.1c.14-.28-.29-.84-1.22-1.38a9,9,0,0,0-4-1.05,8.92,8.92,0,0,0-4.12.79C122.4,276,121.93,276.48,122.05,276.77Z" transform="translate(-16.85 -230.31)"/><path class="cls-4" d="M99.32,277.26c.47.53,2.35,0,4.6,0s4.15.37,4.6-.17c.19-.27-.1-.79-.93-1.29a7.63,7.63,0,0,0-7.41.16C99.38,276.47,99.11,277,99.32,277.26Z" transform="translate(-16.85 -230.31)"/><path class="cls-4" d="M117.39,248.93c1.22-2.08,3.5-3,6-3.42,10.37-1.57,21.95,4.68,27.77,13.41s6.12,21.76,1.86,31.35l-6.47-4c-13-5.35-22.16-17.87-30.52-30.8C114.93,253.66,116.33,250.73,117.39,248.93Z" transform="translate(-16.85 -230.31)"/><path class="cls-4" d="M96.12,281.29l-.7-1.34c-2.57-4.95-1.46-10.57.46-15.8,1.72-4.68,2.66-6.23,5.55-9.52,4.34-4.93,11.83-10.6,18.18-7.78,1.32,2.53-3,7.15-5.26,9.06-3.27,2.8-6.12,4.7-8.27,6.7-4.33,4.06-9.53,11.25-10,18.68" transform="translate(-16.85 -230.31)"/><path class="cls-4" d="M101.77,291.79a2,2,0,0,0,1.87,2,1.88,1.88,0,0,0,2.06-1.74,2,2,0,0,0-1.86-2A1.89,1.89,0,0,0,101.77,291.79Z" transform="translate(-16.85 -230.31)"/><path class="cls-4" d="M122.85,291.79a2,2,0,0,0,1.87,2,1.88,1.88,0,0,0,2.06-1.74,2,2,0,0,0-1.86-2A1.89,1.89,0,0,0,122.85,291.79Z" transform="translate(-16.85 -230.31)"/><path class="cls-6" d="M146.59,286.22c.25-.13,9.83-3.92,10.44,6.16s-9.64,8.61-9.67,8.33S146.59,286.22,146.59,286.22Z" transform="translate(-16.85 -230.31)"/><path class="cls-7" d="M150.2,296.7c.05,0,.19.11.49.23a1.74,1.74,0,0,0,1.32-.05c1-.46,1.83-2.2,1.77-4a5.76,5.76,0,0,0-.64-2.48,2,2,0,0,0-1.4-1.27.9.9,0,0,0-1,.54c-.12.29,0,.49-.1.51s-.22-.16-.17-.58a1.13,1.13,0,0,1,.36-.65,1.29,1.29,0,0,1,1-.32,2.49,2.49,0,0,1,1.93,1.45,6.18,6.18,0,0,1,.78,2.78c0,2-.87,4-2.3,4.5a1.89,1.89,0,0,1-1.63-.17C150.24,296.94,150.17,296.72,150.2,296.7Z" transform="translate(-16.85 -230.31)"/><path class="cls-14" d="M110.74,288.87a20.07,20.07,0,0,0-.32-2.26,9.34,9.34,0,0,0-3.32-5.1,9.15,9.15,0,0,0-8.64-1.43,9.13,9.13,0,0,0-4.3,3.12A9.1,9.1,0,0,0,94,294a8.53,8.53,0,0,0,1.9,2,8.64,8.64,0,0,0,2.29,1.28,9.22,9.22,0,0,0,4.8.49,9.09,9.09,0,0,0,3.89-1.64,9.27,9.27,0,0,0,3.47-5,18,18,0,0,0,.4-2.25V289c0,.12,0,.27,0,.45a4.11,4.11,0,0,1-.07.71,5.69,5.69,0,0,1-.19,1A9.2,9.2,0,0,1,107,296.3a9.3,9.3,0,0,1-4,1.73,9.5,9.5,0,0,1-5-.47,9.29,9.29,0,0,1-2.38-1.32,8.89,8.89,0,0,1-2-2A9.4,9.4,0,0,1,93.9,283a8.81,8.81,0,0,1,2-2,9,9,0,0,1,2.42-1.25,9.45,9.45,0,0,1,5-.31,9.39,9.39,0,0,1,7.23,7.11,6.8,6.8,0,0,1,.15,1,4.05,4.05,0,0,1,0,.73v.44A.85.85,0,0,1,110.74,288.87Z" transform="translate(-16.85 -230.31)"/><path class="cls-14" d="M136.18,289.28a15.48,15.48,0,0,0-.32-2.26,9.2,9.2,0,0,0-12-6.53,8.63,8.63,0,0,0-2.33,1.21,8.86,8.86,0,0,0-2,1.91,9.1,9.1,0,0,0-.17,10.8,8.48,8.48,0,0,0,1.9,2,8.68,8.68,0,0,0,2.29,1.29,9.23,9.23,0,0,0,12.16-6.14,14.73,14.73,0,0,0,.39-2.25s0,.05,0,.15v.44a4.13,4.13,0,0,1-.07.72,5.88,5.88,0,0,1-.19,1,9.36,9.36,0,0,1-7.44,6.87,9.4,9.4,0,0,1-5-.47,9.5,9.5,0,0,1-4.36-3.36,9.43,9.43,0,0,1,.18-11.19,9.11,9.11,0,0,1,2-2,9.25,9.25,0,0,1,2.42-1.24,9.45,9.45,0,0,1,5-.31A9.36,9.36,0,0,1,136,287a5.73,5.73,0,0,1,.16,1,4,4,0,0,1,0,.72v.45C136.19,289.23,136.19,289.28,136.18,289.28Z" transform="translate(-16.85 -230.31)"/><path class="cls-14" d="M118,288.58c-.05,0-.32-.39-.93-.88a4.47,4.47,0,0,0-5.61-.1c-.63.46-.91.88-1,.85a2.32,2.32,0,0,1,.81-1,4.46,4.46,0,0,1,3-1.09,4.54,4.54,0,0,1,2.94,1.19A2.51,2.51,0,0,1,118,288.58Z" transform="translate(-16.85 -230.31)"/><path class="cls-14" d="M148.91,285.58a9.2,9.2,0,0,1-1.86.39c-1.17.18-2.78.35-4.56.51l-4.56.41A12.69,12.69,0,0,1,136,287a8.86,8.86,0,0,1,1.86-.38c1.16-.18,2.78-.36,4.56-.52l4.56-.4A12.08,12.08,0,0,1,148.91,285.58Z" transform="translate(-16.85 -230.31)"/><path class="cls-14" d="M96,294.57a9.37,9.37,0,0,1-2.55-6.89,2.59,2.59,0,0,0-.19,1.11,7.17,7.17,0,0,0,1.86,5C95.64,294.36,96,294.6,96,294.57Z" transform="translate(-16.85 -230.31)"/><path class="cls-14" d="M94.45,284.16c-.06-.08-.43.11-.65.56s-.13.85,0,.85.17-.34.35-.7S94.51,284.23,94.45,284.16Z" transform="translate(-16.85 -230.31)"/><path class="cls-14" d="M119.28,292.57a12.86,12.86,0,0,0-.28-1.38,9.83,9.83,0,0,1,0-3.34,9.69,9.69,0,0,1,1.19-3.12,13.55,13.55,0,0,0,.75-1.18,3.52,3.52,0,0,0-1,1.05,8.42,8.42,0,0,0-1.23,6.64A3.64,3.64,0,0,0,119.28,292.57Z" transform="translate(-16.85 -230.31)"/><path class="cls-3" d="M154.3,300.57s.14.2.34.56a3.47,3.47,0,0,1,.43,1.68,3.08,3.08,0,0,1-.93,2.29,3.19,3.19,0,0,1-5.2-.93,3.12,3.12,0,0,1-.08-2.48,3.64,3.64,0,0,1,1-1.42c.32-.27.53-.38.52-.41a1.54,1.54,0,0,0-.6.3,3.4,3.4,0,0,0-1.13,1.44,3.33,3.33,0,0,0,0,2.7,3.48,3.48,0,0,0,5.71,1,3.36,3.36,0,0,0,1-2.53,3.45,3.45,0,0,0-.56-1.74C154.51,300.7,154.32,300.56,154.3,300.57Z" transform="translate(-16.85 -230.31)"/><path class="cls-3" d="M98.67,308.34a2.73,2.73,0,0,1-1.75.11,3.44,3.44,0,0,1-1.62-1,4.16,4.16,0,0,1-1-2.07,3.74,3.74,0,0,1,.28-2.29,4.31,4.31,0,0,1,1.17-1.51,6.91,6.91,0,0,1,1.59-.86,1.2,1.2,0,0,0-.5.07,3.58,3.58,0,0,0-1.23.6A4.2,4.2,0,0,0,94.25,303a4,4,0,0,0-.33,2.48,4.35,4.35,0,0,0,1.16,2.23,3.46,3.46,0,0,0,1.78,1,2.41,2.41,0,0,0,1.38-.07C98.55,308.48,98.68,308.35,98.67,308.34Z" transform="translate(-16.85 -230.31)"/><path class="cls-4" d="M142.47,252.53c9.35,0,13.33,13.72,15.46,18.78s2.76,10.72,5.47,15.49c2.15,3.79,5.62,7.09,6.1,11.42.35,3.15-1,6.29-.81,9.46s1.94,6.21,3.14,9.27,1.78,6.77-.17,9.41a137.39,137.39,0,0,1-21.56.5,6,6,0,0,1-3.47-.95c-1.2-1-1.48-2.66-1.67-4.19-2-15.88,2.37-23,.38-38.83" transform="translate(-16.85 -230.31)"/><path class="cls-5" d="M141,293.18c0,7.37,5.38,13.35,12,13.35s12-6,12-13.35-5.39-13.34-12-13.34S141,285.81,141,293.18Z" transform="translate(-16.85 -230.31)"/><path class="cls-4" d="M145.89,293.18a2.34,2.34,0,0,1,0-.58,8.69,8.69,0,0,1,.18-1.65,9.92,9.92,0,0,1,.86-2.5,9.09,9.09,0,0,1,2.11-2.8,8.55,8.55,0,0,1,3.76-2,8,8,0,0,1,4.83.45,8.94,8.94,0,0,1,4.06,3.5,10.32,10.32,0,0,1,1.17,2.62,10.64,10.64,0,0,1,0,5.85,10.65,10.65,0,0,1-1.17,2.62,8.94,8.94,0,0,1-4.06,3.5,8.16,8.16,0,0,1-4.84.45,8.58,8.58,0,0,1-3.75-2,9.06,9.06,0,0,1-2.11-2.79,10,10,0,0,1-.86-2.5,8.78,8.78,0,0,1-.18-1.66,2.34,2.34,0,0,1,0-.58,20.35,20.35,0,0,0,.31,2.21,9.8,9.8,0,0,0,.89,2.44,9.09,9.09,0,0,0,2.1,2.7,8.38,8.38,0,0,0,3.66,1.87,7.86,7.86,0,0,0,4.65-.46,8.76,8.76,0,0,0,3.9-3.39,11,11,0,0,0,1.13-2.54,10.46,10.46,0,0,0,0-5.66,10.72,10.72,0,0,0-1.13-2.53,8.7,8.7,0,0,0-3.9-3.39,7.71,7.71,0,0,0-4.65-.46,8.27,8.27,0,0,0-3.66,1.87,8.93,8.93,0,0,0-2.1,2.69,9.8,9.8,0,0,0-.89,2.44A21.11,21.11,0,0,0,145.89,293.18Z" transform="translate(-16.85 -230.31)"/><path class="cls-5" d="M155.32,280.57s2-35.07-32.95-36.18c0,0-11.76,0-16.67,6.14,0,0,8-4.66,17.15-2.1C130.26,250.51,147,258,148,281.06l3.24,1.12Z" transform="translate(-16.85 -230.31)"/><g class="cls-9"><path d="M162.1,297.75a8.29,8.29,0,0,1-8,6.25,9.55,9.55,0,0,1-8.47-6,9.75,9.75,0,0,1,1.41-9.72,11.22,11.22,0,0,0-.11,9.33,9.19,9.19,0,0,0,7.29,5.14c2.94.26,6.34-1.76,7.93-5" transform="translate(-16.85 -230.31)"/></g><path class="cls-4" d="M147.36,281.43a4.76,4.76,0,0,1,1.36-.77,11.56,11.56,0,0,1,7.46-.5,4.34,4.34,0,0,1,1.45.58,17.11,17.11,0,0,0-5.2-.61A17.6,17.6,0,0,0,147.36,281.43Z" transform="translate(-16.85 -230.31)"/><path class="cls-5" d="M104,251.94s0-.07.06-.19.11-.32.21-.57a10.78,10.78,0,0,1,1.2-2,13.07,13.07,0,0,1,2.66-2.53,19.87,19.87,0,0,1,4.3-2.3c.84-.34,1.75-.61,2.69-.91a28.5,28.5,0,0,1,3-.69,30.63,30.63,0,0,1,6.76-.51,33.47,33.47,0,0,1,14.9,4,30,30,0,0,1,6.5,4.73,33,33,0,0,1,9.43,17.51,30.85,30.85,0,0,1,.47,8.51,22.09,22.09,0,0,1-.28,2.3c-.05.25-.08.45-.11.6a1.81,1.81,0,0,1,0,.2.83.83,0,0,1,0-.21c0-.15,0-.35.07-.6.06-.52.18-1.29.22-2.3a32.09,32.09,0,0,0-.58-8.45,33.6,33.6,0,0,0-4.71-11.6A31.58,31.58,0,0,0,146,251.2a29.68,29.68,0,0,0-6.44-4.67,33.44,33.44,0,0,0-14.74-4,30.79,30.79,0,0,0-6.7.48c-1,.15-2,.43-3,.66s-1.84.56-2.67.88a20.56,20.56,0,0,0-4.28,2.23,13.31,13.31,0,0,0-2.67,2.47,10.54,10.54,0,0,0-1.23,1.94c-.1.23-.18.41-.25.55A.6.6,0,0,1,104,251.94Z" transform="translate(-16.85 -230.31)"/><path class="cls-4" d="M101.07,254.8l.09-.17c.07-.13.15-.29.27-.5a21.42,21.42,0,0,1,1.16-1.83,14.63,14.63,0,0,1,2.3-2.58,15.75,15.75,0,0,1,3.87-2.43A21.17,21.17,0,0,1,114,245.6a38.21,38.21,0,0,1,6.35-.33,47.1,47.1,0,0,1,7,.87,30.85,30.85,0,0,1,7.19,2.26,24.06,24.06,0,0,1,6.29,4.16,26.09,26.09,0,0,1,4.41,5.47,38.74,38.74,0,0,1,4.4,11c.81,3.28,1.21,6,1.49,7.86.12.91.22,1.63.29,2.15,0,.23.05.42.06.56s0,.19,0,.19a.94.94,0,0,1,0-.18c0-.15-.06-.33-.1-.56-.08-.51-.2-1.23-.35-2.14-.32-1.86-.76-4.56-1.59-7.82a39.3,39.3,0,0,0-4.44-10.9,26.06,26.06,0,0,0-4.37-5.38,23.76,23.76,0,0,0-6.2-4.09,30.36,30.36,0,0,0-7.11-2.25,46.68,46.68,0,0,0-6.91-.88,37.52,37.52,0,0,0-6.29.29,21,21,0,0,0-5.22,1.63,15.74,15.74,0,0,0-3.84,2.36,14.72,14.72,0,0,0-2.32,2.5c-.56.76-1,1.38-1.21,1.8l-.3.48C101.12,254.75,101.08,254.81,101.07,254.8Z" transform="translate(-16.85 -230.31)"/><path class="cls-6" d="M125,416.81l0,0Z" transform="translate(-16.85 -230.31)"/><path class="cls-6" d="M125.19,416.92l.09,0Z" transform="translate(-16.85 -230.31)"/><path class="cls-6" d="M125,416.83l.19.09Z" transform="translate(-16.85 -230.31)"/><path class="cls-6" d="M124.87,416.77l.09,0Z" transform="translate(-16.85 -230.31)"/><path class="cls-6" d="M104.73,435.27c1.72-3.26,15.18-11.85,15.18-11.85l-3.65-.84-4,1.7a9.87,9.87,0,0,1-1.73,3.77c-1.48,2.11-4-.07-4-.07l1.69-8.15,8-4.78s7.48,1.14,8.69,1.72l3.19,2.92c1.4,1.09,5.45,5.42,6.55,5.55s35.83-7.68,35.83-7.68h0c4.76,3.77,7.27,11.26,8,16.66,0,0,.85,2.66-.07,4.1l-42.63,3.34-9,2.5a63.1,63.1,0,0,1-7.42,2.55c-3,.63-5-.34-5.11-2s2.25-1.85,2.25-1.85a46.23,46.23,0,0,0,5.81-2.55,10.15,10.15,0,0,0,3.28-3.6l-3.22.39s-6.85,4.75-9.42,6.14-3.08-1.16-3.29-1.94,7.69-8.5,7.69-8.5-7.51,4.63-8.86,5.79-3.35,1.52-3.78.74S103,438.52,104.73,435.27Z" transform="translate(-16.85 -230.31)"/><path class="cls-6" d="M125.28,417l.08,0Z" transform="translate(-16.85 -230.31)"/><path class="cls-6" d="M125.4,417Z" transform="translate(-16.85 -230.31)"/><path class="cls-6" d="M125.36,417l0,0Z" transform="translate(-16.85 -230.31)"/><path class="cls-7" d="M141.78,436a2.06,2.06,0,0,0,0-.53,2.9,2.9,0,0,0,0-.62,4.45,4.45,0,0,0-.14-.81,11.45,11.45,0,0,0-2.19-4.21,24.78,24.78,0,0,0-3.28-3.41,9.77,9.77,0,0,0-1.55-1.2,15.61,15.61,0,0,0,1.4,1.37,30.57,30.57,0,0,1,3.18,3.44,12.31,12.31,0,0,1,2.22,4.07C141.74,435.26,141.71,436,141.78,436Z" transform="translate(-16.85 -230.31)"/><path class="cls-7" d="M120.22,423.17a3.88,3.88,0,0,0,2.29-.21,3.92,3.92,0,0,0,2-1.22c-.06-.07-.88.54-2.06.92S120.22,423.07,120.22,423.17Z" transform="translate(-16.85 -230.31)"/><path class="cls-7" d="M118,432.09a22,22,0,0,0,3.43-1.24,22.27,22.27,0,0,0,3.3-1.53,20.53,20.53,0,0,0-3.42,1.24A20,20,0,0,0,118,432.09Z" transform="translate(-16.85 -230.31)"/><path class="cls-7" d="M125.19,436.64A7.8,7.8,0,0,0,127,436a7.34,7.34,0,0,0,1.71-.74,4.31,4.31,0,0,0-1.82.45A4.43,4.43,0,0,0,125.19,436.64Z" transform="translate(-16.85 -230.31)"/><path class="cls-7" d="M119.09,432.68c0,.09.74.38,1.33,1.16a7.1,7.1,0,0,1,.76,1.59s.08-.21,0-.56a2.78,2.78,0,0,0-.54-1.22,2.87,2.87,0,0,0-1-.85C119.31,432.66,119.1,432.64,119.09,432.68Z" transform="translate(-16.85 -230.31)"/><path class="cls-7" d="M115.93,427.7c0,.09.55.4.93,1.09a8.2,8.2,0,0,1,.49,1.34,1.58,1.58,0,0,0-.21-1.5C116.69,427.85,115.94,427.62,115.93,427.7Z" transform="translate(-16.85 -230.31)"/><path class="cls-7" d="M117,418.81s.16-.13.25-.42a2.19,2.19,0,0,0,0-1.18,2.27,2.27,0,0,0-.57-1c-.21-.22-.39-.29-.41-.26a6.25,6.25,0,0,1,.67,1.38A5.82,5.82,0,0,1,117,418.81Z" transform="translate(-16.85 -230.31)"/><path class="cls-4" d="M178.77,439.54a4.25,4.25,0,0,1-.06-1c0-.31,0-.7,0-1.15s0-1-.11-1.51a33.89,33.89,0,0,0-1.86-8.54,30.63,30.63,0,0,0-2-4.37c-.39-.63-.73-1.25-1.13-1.78l-.55-.78-.54-.69C171,418,170,417.11,170,417.06a5.86,5.86,0,0,1,.76.61,8.22,8.22,0,0,1,.84.79,15.16,15.16,0,0,1,1,1.13l.58.68.57.78c.4.53.76,1.15,1.16,1.78a29.13,29.13,0,0,1,2.07,4.41,31.29,31.29,0,0,1,1.78,8.64c0,.57,0,1.08.06,1.53s0,.83,0,1.15A5.53,5.53,0,0,1,178.77,439.54Z" transform="translate(-16.85 -230.31)"/><path class="cls-13" d="M16.91,387.72l12.45,61.11H137.41a2.16,2.16,0,0,0,2.16-2.16h0a2.16,2.16,0,0,0-2.16-2.15H115.66l-11.54-56.84a2.37,2.37,0,0,0-2.29-1.89l-82.58-.9A2.35,2.35,0,0,0,16.91,387.72Z" transform="translate(-16.85 -230.31)"/><path class="cls-4" d="M16.91,387.72a1.3,1.3,0,0,1,0-.19,2.34,2.34,0,0,1,0-.55A2.4,2.4,0,0,1,18,385.19a2.24,2.24,0,0,1,.71-.28,3.41,3.41,0,0,1,.85-.05h1.95l4.86,0,31.22.3,21.77.22,12.19.12,6.4.07,3.27,0c.28,0,.54,0,.84,0a2.64,2.64,0,0,1,.83.24,2.58,2.58,0,0,1,1.19,1.25,3.64,3.64,0,0,1,.22.83l.17.82c.11.55.22,1.1.34,1.65.22,1.11.45,2.22.68,3.34.45,2.24.91,4.5,1.38,6.8.93,4.58,1.89,9.28,2.86,14.07,2,9.58,4,19.55,6.06,29.82l-.14-.12h21.39a3.48,3.48,0,0,1,.84.05,2.27,2.27,0,0,1,1.42.94,2.31,2.31,0,0,1-.8,3.34,2.26,2.26,0,0,1-1,.28H80.09l-50.73,0h-.1v-.1c-3.81-18.78-6.9-34.06-9-44.65-1.06-5.29-1.89-9.41-2.46-12.21-.27-1.39-.48-2.46-.63-3.18s-.2-1.09-.2-1.09l.24,1.08.66,3.18,2.52,12.19c2.16,10.59,5.29,25.86,9.14,44.64l-.11-.09,50.73,0h57.39a2,2,0,0,0,.35-4,3.32,3.32,0,0,0-.78,0H115.54l0-.11c-2.08-10.27-4.1-20.24-6.05-29.82l-2.85-14.08q-.69-3.43-1.38-6.8c-.22-1.12-.45-2.23-.67-3.33-.11-.56-.23-1.11-.34-1.66l-.16-.82a4.44,4.44,0,0,0-.21-.78,2.25,2.25,0,0,0-1.81-1.33c-.25,0-.54,0-.81,0l-3.27,0-6.4-.07-12.19-.14L57.6,385.4,26.38,385,21.51,385l-1.94,0a3.8,3.8,0,0,0-.84.05,2.68,2.68,0,0,0-.7.27A2.36,2.36,0,0,0,16.89,387,2.61,2.61,0,0,0,16.91,387.72Z" transform="translate(-16.85 -230.31)"/><path class="cls-14" d="M66.7,415.69a3.57,3.57,0,1,1-3.57-3.57A3.57,3.57,0,0,1,66.7,415.69Z" transform="translate(-16.85 -230.31)"/><path class="cls-4" d="M17,388.21h5.66l15.45.07,51,.36,7.37.06,1.81,0a4.12,4.12,0,0,1,.92.05,2.72,2.72,0,0,1,.88.36,2.58,2.58,0,0,1,1.1,1.49c.13.59.23,1.16.35,1.74.91,4.6,1.8,9,2.64,13.27,1.67,8.46,3.17,16.08,4.44,22.48s2.27,11.58,3,15.17c.34,1.78.61,3.17.79,4.12.09.46.15.82.2,1.07l.06.37a3.57,3.57,0,0,1-.09-.36c-.05-.25-.13-.61-.23-1.07-.19-.95-.48-2.33-.85-4.11-.72-3.59-1.77-8.76-3.06-15.14s-2.81-14-4.5-22.47c-.85-4.23-1.74-8.67-2.66-13.27-.11-.57-.22-1.17-.35-1.73a2.28,2.28,0,0,0-1-1.31,2.37,2.37,0,0,0-.77-.32,5,5,0,0,0-.87-.05H96.47l-7.38-.06-51-.45-15.45-.16-4.2-.07-1.09,0Z" transform="translate(-16.85 -230.31)"/></g><g id="Coffee"><path class="cls-4" d="M283.5,425.05c-2.35-2-5.57-2.25-7.56-2.18,0-1.45-.05-2.35-.05-2.35H234.66s-1.29,27.22,19.55,28.18c9.33.43,14.67-3.75,17.72-9a20.61,20.61,0,0,0,4.68.57,10.8,10.8,0,0,0,6.49-1.84c1.42-1.05,3.1-3.12,3.1-7A8,8,0,0,0,283.5,425.05Zm-2.82,10.11c-1.76,1.32-4.92,1.12-7,.75a36.48,36.48,0,0,0,2-9c1.41-.09,3.78,0,5.16,1.19a4.05,4.05,0,0,1,1.26,3.3A4.32,4.32,0,0,1,280.68,435.16Z" transform="translate(-16.85 -230.31)"/><path class="cls-2" d="M243.86,439.39a21.38,21.38,0,0,1-4.8-11.61c.16,0,.67,2.77,2,6S244,439.3,243.86,439.39Z" transform="translate(-16.85 -230.31)"/><path class="cls-2" d="M247.13,439.83a34.84,34.84,0,0,1-1.53-5.73,33.86,33.86,0,0,1-1-5.85,34.23,34.23,0,0,1,1.54,5.73A33.37,33.37,0,0,1,247.13,439.83Z" transform="translate(-16.85 -230.31)"/><path class="cls-2" d="M252.08,439.37a22.47,22.47,0,0,1-1.23-5.61,23.08,23.08,0,0,1-.26-5.74,53.25,53.25,0,0,1,.78,5.67A53,53,0,0,1,252.08,439.37Z" transform="translate(-16.85 -230.31)"/><path class="cls-2" d="M256.15,428.6a24.28,24.28,0,0,1-.62,10.54c-.15,0,.2-2.37.37-5.27S256,428.61,256.15,428.6Z" transform="translate(-16.85 -230.31)"/><path class="cls-2" d="M262.57,427a19.55,19.55,0,0,1-2.36,11.67c-.15-.07.94-2.53,1.58-5.76S262.41,427,262.57,427Z" transform="translate(-16.85 -230.31)"/><path class="cls-2" d="M269.34,429.51a12.41,12.41,0,0,1-1.26,5.05,12.28,12.28,0,0,1-2.82,4.38c-.13-.1,1.23-2,2.34-4.58S269.18,429.49,269.34,429.51Z" transform="translate(-16.85 -230.31)"/><path class="cls-4" d="M249.16,377.35a8.85,8.85,0,0,0-1.08,1.25,7,7,0,0,0-1,4.29,14,14,0,0,0,2.33,6.18c1.28,2.17,3,4.54,3.61,7.52a8,8,0,0,1-.26,4.37,13.28,13.28,0,0,1-2.05,3.51c-1.58,2-3.1,3.74-3.78,5.52a6.17,6.17,0,0,0-.2,4.36,6.74,6.74,0,0,0,.8,1.44s-.13-.08-.32-.29a4.06,4.06,0,0,1-.67-1.07,6.24,6.24,0,0,1,0-4.57c.67-1.88,2.22-3.68,3.75-5.68a13.15,13.15,0,0,0,2-3.39,7.47,7.47,0,0,0,.23-4.1c-.6-2.83-2.24-5.17-3.51-7.38a13.89,13.89,0,0,1-2.28-6.41,6.92,6.92,0,0,1,1.2-4.41A3.5,3.5,0,0,1,249.16,377.35Z" transform="translate(-16.85 -230.31)"/><path class="cls-4" d="M253.83,380.72a9.21,9.21,0,0,0-.61,1.35,6.73,6.73,0,0,0,.1,3.94,20.23,20.23,0,0,0,2.89,5.23,19.15,19.15,0,0,1,1.76,3.17,13.84,13.84,0,0,1,.92,3.79,13.6,13.6,0,0,1-1.38,7.34c-1.09,2.06-2.43,3.64-2.93,5.27a5,5,0,0,0,.2,3.86,4.58,4.58,0,0,0,.93,1.12s-.13,0-.34-.18a3.24,3.24,0,0,1-.77-.84,5.1,5.1,0,0,1-.37-4.07c.49-1.73,1.83-3.39,2.85-5.37a13.27,13.27,0,0,0,1.29-7.08,13.63,13.63,0,0,0-.88-3.65,18.73,18.73,0,0,0-1.68-3.1,19.31,19.31,0,0,1-2.84-5.39A6.65,6.65,0,0,1,253,382a4.11,4.11,0,0,1,.53-1C253.72,380.81,253.81,380.71,253.83,380.72Z" transform="translate(-16.85 -230.31)"/></g><g id="Tea"><path class="cls-4" d="M544.83,390s.46-.13,1.1.34a3.17,3.17,0,0,1,1,3c-.23,1.41-1.3,2.68-2.23,4.06a5.91,5.91,0,0,0-1,2.34,2.58,2.58,0,0,0,.82,2.34,9,9,0,0,1,2,2.21,2.28,2.28,0,0,1,.11,1.56,3.26,3.26,0,0,1-.69,1.27,14.78,14.78,0,0,1-1.86,1.64,4.19,4.19,0,0,0-1.2,1.58,4.52,4.52,0,0,0-.21,2.89c.17.68.41,1,.35,1.05s-.33-.27-.6-1a4.53,4.53,0,0,1,0-3.15,4.67,4.67,0,0,1,1.28-1.82,15.77,15.77,0,0,0,1.75-1.62,2,2,0,0,0,.45-2.16,9.22,9.22,0,0,0-1.9-2,3.5,3.5,0,0,1-.87-1.34,3.33,3.33,0,0,1-.11-1.56,6.23,6.23,0,0,1,1.1-2.6c1-1.41,2-2.58,2.28-3.8a3,3,0,0,0-.72-2.67A3.45,3.45,0,0,0,544.83,390Z" transform="translate(-16.85 -230.31)"/><path class="cls-4" d="M540.78,389.16s.47-.13,1.11.34a3.17,3.17,0,0,1,1,3c-.23,1.41-1.3,2.69-2.23,4.06a5.91,5.91,0,0,0-1,2.34,2.6,2.6,0,0,0,.81,2.34,8.84,8.84,0,0,1,2,2.21,2.28,2.28,0,0,1,.11,1.56,3.26,3.26,0,0,1-.69,1.27,15.51,15.51,0,0,1-1.86,1.64,4.19,4.19,0,0,0-1.2,1.58,4.53,4.53,0,0,0-.21,2.89c.17.68.4,1,.35,1.06a2.11,2.11,0,0,1-.6-1,4.48,4.48,0,0,1,1.29-5,14.86,14.86,0,0,0,1.75-1.62,2,2,0,0,0,.45-2.16,9,9,0,0,0-1.9-2,3.49,3.49,0,0,1-.87-1.35,3.21,3.21,0,0,1-.11-1.56,6.13,6.13,0,0,1,1.1-2.59c1-1.42,2-2.59,2.28-3.8a3,3,0,0,0-.72-2.68A3.25,3.25,0,0,0,540.78,389.16Z" transform="translate(-16.85 -230.31)"/><path class="cls-14" d="M529.66,443.3a1.93,1.93,0,0,1-.95-.25,80.25,80.25,0,0,1-12.28-8.85c-4.1-3.6-7.71-9.26-4.41-13.36a7,7,0,0,1,9.59-1.44c3.11,2.09,4.1,7,4.2,7.56a1.95,1.95,0,1,1-3.83.71h0c-.19-1-1.06-4-2.55-5a3.09,3.09,0,0,0-4.38.65c-1.56,1.94,1.51,5.85,4,8a78.65,78.65,0,0,0,11.62,8.39,1.94,1.94,0,0,1,.74,2.65A2,2,0,0,1,529.66,443.3Z" transform="translate(-16.85 -230.31)"/><path class="cls-14" d="M523.05,415.86s-.44,23.25,9.64,28.62l22.5.06s9.7-8.55,8.17-29.28Z" transform="translate(-16.85 -230.31)"/><rect class="cls-14" x="532.96" y="441.27" width="22.04" height="7.27" transform="translate(-18.15 -228.72) rotate(-0.17)"/><path class="cls-4" d="M555,444.52c0,.19-5,.35-11.13.38s-11.14-.12-11.14-.3,5-.36,11.14-.38S555,444.33,555,444.52Z" transform="translate(-16.85 -230.31)"/><path class="cls-4" d="M533,444.8a3.76,3.76,0,0,1-1.08-.64,13.5,13.5,0,0,1-2.51-2.36,28,28,0,0,1-5-10.12,50,50,0,0,1-1.4-11.2c0-1.44,0-2.6,0-3.41a5,5,0,0,1,.08-1.25,33.31,33.31,0,0,1,.44,4.64,59.53,59.53,0,0,0,1.57,11,30.59,30.59,0,0,0,4.69,10A31.58,31.58,0,0,0,533,444.8Z" transform="translate(-16.85 -230.31)"/><path class="cls-5" d="M526.13,420.88s0,.16-.24.29a.73.73,0,0,1-1-.24.93.93,0,0,1,.55-1.34,1.26,1.26,0,0,1,1.54.92,2.09,2.09,0,0,1-.39,1.81,2.58,2.58,0,0,1-1.23.87,2.27,2.27,0,0,1-1,.12.81.81,0,0,1-.36-.1,3.82,3.82,0,0,0,1.3-.2,2.48,2.48,0,0,0,1.09-.84,1.87,1.87,0,0,0,.33-1.58,1,1,0,0,0-1.21-.76.71.71,0,0,0-.45,1,.61.61,0,0,0,.76.25C526.05,421,526.11,420.87,526.13,420.88Z" transform="translate(-16.85 -230.31)"/><path class="cls-5" d="M530.59,421.85a5.4,5.4,0,0,1-4.15-3.53,11.09,11.09,0,0,0,1.77,2.12A11.88,11.88,0,0,0,530.59,421.85Z" transform="translate(-16.85 -230.31)"/><path class="cls-5" d="M529.43,420.37s.25.12.66.22a2.37,2.37,0,0,0,.73.08c.25,0,.68-.07.58-.22s-.47-.2-.72-.22a3.21,3.21,0,0,0-.73.06c-.42.09-.66.21-.68.18s.19-.22.63-.36a2.5,2.5,0,0,1,.79-.13,2.59,2.59,0,0,1,.47,0,.6.6,0,0,1,.5.33.36.36,0,0,1-.08.37.54.54,0,0,1-.27.14,2.06,2.06,0,0,1-.48.05,2.34,2.34,0,0,1-.8-.14C529.61,420.61,529.41,420.4,529.43,420.37Z" transform="translate(-16.85 -230.31)"/><path class="cls-5" d="M528.19,421.87s.3,0,.69.22a1.9,1.9,0,0,1,.85,1.55.22.22,0,0,1-.19.23.37.37,0,0,1-.21-.09l-.18-.17c-.11-.12-.22-.24-.31-.36a3.61,3.61,0,0,1-.41-.68,1.36,1.36,0,0,1-.18-.7s.14.24.35.61a4.84,4.84,0,0,0,.44.62,3,3,0,0,0,.3.32l.17.16s0,0,0,.08,0,0,0,0h-.06a1.85,1.85,0,0,0-.69-1.39C528.45,422,528.17,421.91,528.19,421.87Z" transform="translate(-16.85 -230.31)"/><path class="cls-5" d="M533.2,421.78s0-.13-.2-.27a.6.6,0,0,0-.8,0,.71.71,0,0,0,.1,1.1,1,1,0,0,0,1.39-.32,1.84,1.84,0,0,0,.21-1.6,2.52,2.52,0,0,0-.75-1.16,3.29,3.29,0,0,0-1.16-.61s.14,0,.37,0a2.25,2.25,0,0,1,.91.44,2.58,2.58,0,0,1,.87,1.23,2.11,2.11,0,0,1-.23,1.84,1.27,1.27,0,0,1-1.76.36.92.92,0,0,1-.07-1.45.74.74,0,0,1,1,.09C533.24,421.63,533.21,421.79,533.2,421.78Z" transform="translate(-16.85 -230.31)"/><path class="cls-5" d="M537.73,422.35a11.76,11.76,0,0,0-2.71.54,12,12,0,0,0-2.38,1.41,4.6,4.6,0,0,1,2.28-1.66A4.69,4.69,0,0,1,537.73,422.35Z" transform="translate(-16.85 -230.31)"/><path class="cls-5" d="M536.14,423.36s.25-.17.71-.18a2.41,2.41,0,0,1,.79.13,2.14,2.14,0,0,1,.44.2.55.55,0,0,1,.22.23.35.35,0,0,1-.06.37.58.58,0,0,1-.58.15,2.37,2.37,0,0,1-.46-.11,3.23,3.23,0,0,1-.7-.38c-.36-.28-.5-.53-.48-.55s.22.17.59.39a2.8,2.8,0,0,0,.67.3c.24.06.64.18.75,0s-.24-.31-.47-.4a2.75,2.75,0,0,0-.72-.17C536.42,423.34,536.15,423.4,536.14,423.36Z" transform="translate(-16.85 -230.31)"/><path class="cls-5" d="M535.47,421.54s.28,0,.67-.16a1.89,1.89,0,0,0,1.12-1.09s0,0,0,.06,0,0,0,0l-.22.09-.39.21a4.88,4.88,0,0,0-.61.43c-.33.28-.51.49-.54.47s.09-.28.41-.6a2.94,2.94,0,0,1,.61-.51,3.15,3.15,0,0,1,.41-.23l.23-.11a.36.36,0,0,1,.22,0c.14,0,.13.24.11.28a2,2,0,0,1-1.32,1.18C535.74,421.67,535.46,421.57,535.47,421.54Z" transform="translate(-16.85 -230.31)"/><path class="cls-5" d="M553.78,421.32s0,.16-.24.29a.73.73,0,0,1-1-.25.91.91,0,0,1,.55-1.33,1.26,1.26,0,0,1,1.54.92,2.07,2.07,0,0,1-.4,1.8,2.47,2.47,0,0,1-1.22.88,2.27,2.27,0,0,1-1,.11c-.24,0-.36-.08-.35-.1a3.33,3.33,0,0,0,1.29-.19,2.43,2.43,0,0,0,1.09-.84,1.91,1.91,0,0,0,.34-1.58,1,1,0,0,0-1.21-.76.7.7,0,0,0-.46,1,.61.61,0,0,0,.76.25C553.7,421.44,553.75,421.31,553.78,421.32Z" transform="translate(-16.85 -230.31)"/><path class="cls-5" d="M558.24,422.29a5.44,5.44,0,0,1-4.16-3.53,11.4,11.4,0,0,0,1.78,2.12A11.58,11.58,0,0,0,558.24,422.29Z" transform="translate(-16.85 -230.31)"/><path class="cls-5" d="M557.07,420.81s.26.12.67.22a2.6,2.6,0,0,0,.72.08c.25,0,.69-.08.59-.22s-.47-.2-.72-.22a3.31,3.31,0,0,0-.74.06c-.42.09-.66.21-.68.17s.2-.21.63-.36a3,3,0,0,1,.79-.12,2.74,2.74,0,0,1,.48,0,.59.59,0,0,1,.49.34.36.36,0,0,1-.07.37.53.53,0,0,1-.28.14,2.06,2.06,0,0,1-.48.05,2.48,2.48,0,0,1-.79-.14C557.25,421.05,557.05,420.84,557.07,420.81Z" transform="translate(-16.85 -230.31)"/><path class="cls-5" d="M555.83,422.3a1,1,0,0,1,.7.23,1.93,1.93,0,0,1,.85,1.55.23.23,0,0,1-.2.23.31.31,0,0,1-.2-.09l-.18-.17a3.31,3.31,0,0,1-.31-.36,3,3,0,0,1-.41-.68c-.19-.41-.22-.69-.18-.7s.13.24.35.61a4.68,4.68,0,0,0,.43.62l.3.32.17.16s0,0,0,.08,0,0,0,0l0,0h0a1.93,1.93,0,0,0-.7-1.39C556.09,422.41,555.82,422.35,555.83,422.3Z" transform="translate(-16.85 -230.31)"/><path class="cls-5" d="M560.85,422.22s0-.13-.2-.28a.61.61,0,0,0-.8,0,.7.7,0,0,0,.09,1.09,1,1,0,0,0,1.4-.31,1.91,1.91,0,0,0,.21-1.6,2.41,2.41,0,0,0-.76-1.16,3.71,3.71,0,0,0-1.15-.62.87.87,0,0,1,.37,0,2.25,2.25,0,0,1,.91.44,2.57,2.57,0,0,1,.86,1.23,2,2,0,0,1-.23,1.84,1.25,1.25,0,0,1-1.75.35.92.92,0,0,1-.08-1.44.73.73,0,0,1,1,.09C560.89,422.07,560.86,422.23,560.85,422.22Z" transform="translate(-16.85 -230.31)"/><path class="cls-5" d="M562.62,423.21a10.34,10.34,0,0,1-1.18.75,9.47,9.47,0,0,1-1.16.78,2.55,2.55,0,0,1,1-1A2.4,2.4,0,0,1,562.62,423.21Z" transform="translate(-16.85 -230.31)"/><path class="cls-5" d="M540,420.82s0,.16-.26.27a.74.74,0,0,1-1-.32.92.92,0,0,1,.65-1.29,1.26,1.26,0,0,1,1.47,1,2.08,2.08,0,0,1-.53,1.77,2.52,2.52,0,0,1-1.29.78,2.37,2.37,0,0,1-1,0,.79.79,0,0,1-.35-.13,3.4,3.4,0,0,0,1.31-.09,2.52,2.52,0,0,0,1.15-.76,1.86,1.86,0,0,0,.45-1.55,1,1,0,0,0-1.15-.85.7.7,0,0,0-.52,1,.6.6,0,0,0,.73.31C539.86,420.92,539.93,420.8,540,420.82Z" transform="translate(-16.85 -230.31)"/><path class="cls-5" d="M544.33,422.12a4.68,4.68,0,0,1-2.46-1.4,4.55,4.55,0,0,1-1.42-2.44,11.33,11.33,0,0,0,1.61,2.25A11.64,11.64,0,0,0,544.33,422.12Z" transform="translate(-16.85 -230.31)"/><path class="cls-5" d="M543.28,420.56s.24.13.64.27a2.9,2.9,0,0,0,.72.13c.25,0,.69,0,.6-.18s-.45-.23-.7-.27a3.64,3.64,0,0,0-.74,0c-.42.06-.67.16-.69.13s.21-.2.66-.31a2.42,2.42,0,0,1,.79-.07,2.72,2.72,0,0,1,.47.08.59.59,0,0,1,.47.37.35.35,0,0,1-.1.36.57.57,0,0,1-.29.13,2.6,2.6,0,0,1-.48,0,2.33,2.33,0,0,1-.78-.21C543.44,420.81,543.25,420.58,543.28,420.56Z" transform="translate(-16.85 -230.31)"/><path class="cls-5" d="M541.93,422s.3,0,.67.28a1.88,1.88,0,0,1,.73,1.61s-.06.22-.21.21a.36.36,0,0,1-.19-.1l-.17-.19a2.47,2.47,0,0,1-.28-.38,3.17,3.17,0,0,1-.36-.71A1.37,1.37,0,0,1,542,422s.12.25.31.64a4.11,4.11,0,0,0,.38.64,4.29,4.29,0,0,0,.28.35l.16.17s0,0,0,.08,0,0,0,0l-.06,0h0a1.85,1.85,0,0,0-.58-1.44C542.18,422.08,541.91,422,541.93,422Z" transform="translate(-16.85 -230.31)"/><path class="cls-5" d="M546.93,422.21a.87.87,0,0,0-.18-.3.6.6,0,0,0-.79-.07.7.7,0,0,0,0,1.1,1,1,0,0,0,1.41-.21,1.86,1.86,0,0,0,.33-1.58,2.51,2.51,0,0,0-.66-1.22,3.32,3.32,0,0,0-1.11-.69s.14,0,.37.05a2.21,2.21,0,0,1,.87.5,2.54,2.54,0,0,1,.78,1.3,2.09,2.09,0,0,1-.37,1.81,1.26,1.26,0,0,1-1.78.23.93.93,0,0,1,0-1.45.75.75,0,0,1,1,.16C547,422.05,546.94,422.21,546.93,422.21Z" transform="translate(-16.85 -230.31)"/><path class="cls-5" d="M551.41,423.11a12.07,12.07,0,0,0-2.75.34,11.67,11.67,0,0,0-2.48,1.22,5.45,5.45,0,0,1,5.23-1.56Z" transform="translate(-16.85 -230.31)"/><path class="cls-5" d="M549.75,424s.25-.15.71-.13a2.52,2.52,0,0,1,.78.19,2.32,2.32,0,0,1,.43.24.48.48,0,0,1,.19.24.36.36,0,0,1-.08.37.63.63,0,0,1-.59.11,3,3,0,0,1-.45-.16,2.5,2.5,0,0,1-.67-.43c-.34-.3-.46-.56-.44-.58s.21.19.56.43a3,3,0,0,0,.65.35c.23.09.62.23.75.09s-.22-.33-.45-.43a2.48,2.48,0,0,0-.7-.23C550,424,549.75,424,549.75,424Z" transform="translate(-16.85 -230.31)"/><path class="cls-5" d="M549.21,422.13s.28,0,.69-.11a1.9,1.9,0,0,0,1.19-1s0,0,0,.06,0,0,0,0l-.22.07c-.14.06-.28.11-.41.18a5.16,5.16,0,0,0-.64.38,4.43,4.43,0,0,1-.57.43s.11-.27.45-.57a2.85,2.85,0,0,1,.65-.46,3.45,3.45,0,0,1,.43-.21l.23-.08a.28.28,0,0,1,.22,0,.21.21,0,0,1,.09.28,1.92,1.92,0,0,1-1.4,1.08C549.48,422.28,549.2,422.16,549.21,422.13Z" transform="translate(-16.85 -230.31)"/></g></svg>