<svg xmlns="http://www.w3.org/2000/svg" viewBox="0 0 500 500"><defs><style>.cls-1{fill:#c7e3f9;}.cls-2{fill:#4e148c;}.cls-3{fill:#e2afff;}.cls-4{fill:#7fbdd3;}.cls-5{fill:#71a8c6;}.cls-6{fill:#fff;}.cls-7{fill:#629db7;}.cls-20,.cls-8{fill:#feffff;}.cls-9{fill:#3a1751;}.cls-10{fill:#62497f;}.cls-11{fill:#6d598e;}.cls-12{fill:#5f99b2;}.cls-13{fill:#b6b6ef;}.cls-14{fill:#472f59;}.cls-15{fill:#5c4275;}.cls-16{fill:#e29b8d;}.cls-17{fill:#eab2a5;}.cls-18{fill:#bc6262;}.cls-19{fill:#e29f91;}.cls-20{opacity:0.2;}.cls-21{fill:#616dc1;}.cls-22{fill:#03071e;}.cls-23{fill:#d1105a;}.cls-24{fill:#415499;}.cls-25{fill:#4f5faf;}.cls-26{fill:#382549;}</style></defs><g id="BACKGROUND"><rect class="cls-1" width="500" height="500"/></g><g id="OBJECTS"><rect class="cls-2" width="500" height="500"/><path class="cls-3" d="M336.34,225.13A14.52,14.52,0,1,0,351,239.65,14.6,14.6,0,0,0,336.34,225.13Zm0,23.28a8.76,8.76,0,1,1,8.85-8.76A8.81,8.81,0,0,1,336.34,248.41Z"/><rect class="cls-3" x="334.06" y="220.79" width="5.69" height="7.61"/><rect class="cls-3" x="318.12" y="235.11" width="5.63" height="7.69" transform="translate(81.99 559.89) rotate(-90)"/><rect class="cls-3" x="348.67" y="235.8" width="5.63" height="7.69" transform="translate(111.84 591.13) rotate(-90)"/><polygon class="cls-3" points="346.09 233.04 342.23 228.92 347.87 223.75 351.73 227.88 346.09 233.04"/><polygon class="cls-3" points="326.91 232.51 330.77 228.38 325.13 223.21 321.26 227.34 326.91 232.51"/><rect class="cls-3" x="333.9" y="251.21" width="5.69" height="7.61"/><polygon class="cls-3" points="346.94 245.48 343.07 249.61 348.72 254.78 352.58 250.65 346.94 245.48"/><polygon class="cls-3" points="326.05 246.35 329.91 250.48 324.27 255.65 320.41 251.52 326.05 246.35"/><path class="cls-3" d="M60.56,319.07a14.52,14.52,0,1,0,14.68,14.52A14.6,14.6,0,0,0,60.56,319.07Zm0,23.28a8.76,8.76,0,1,1,8.85-8.76A8.81,8.81,0,0,1,60.56,342.35Z"/><rect class="cls-3" x="58.28" y="314.73" width="5.69" height="7.61"/><rect class="cls-3" x="42.35" y="329.05" width="5.63" height="7.69" transform="translate(-287.73 378.05) rotate(-90)"/><rect class="cls-3" x="72.89" y="329.74" width="5.63" height="7.69" transform="translate(-257.88 409.29) rotate(-90)"/><polygon class="cls-3" points="70.31 326.99 66.45 322.86 72.09 317.69 75.95 321.82 70.31 326.99"/><polygon class="cls-3" points="51.13 326.45 54.99 322.32 49.35 317.15 45.48 321.28 51.13 326.45"/><rect class="cls-3" x="58.12" y="345.15" width="5.69" height="7.61"/><polygon class="cls-3" points="71.16 339.42 67.3 343.55 72.94 348.72 76.8 344.59 71.16 339.42"/><polygon class="cls-3" points="50.27 340.29 54.13 344.42 48.49 349.59 44.63 345.46 50.27 340.29"/><path class="cls-3" d="M450.91,308.67A11.34,11.34,0,1,0,462.37,320,11.41,11.41,0,0,0,450.91,308.67Zm0,18.18a6.84,6.84,0,1,1,6.91-6.84A6.88,6.88,0,0,1,450.91,326.85Z"/><rect class="cls-3" x="449.13" y="305.28" width="4.44" height="5.94"/><rect class="cls-3" x="436.68" y="316.47" width="4.39" height="6.01" transform="translate(119.41 758.35) rotate(-90)"/><rect class="cls-3" x="460.54" y="317.01" width="4.39" height="6.01" transform="translate(142.72 782.75) rotate(-90)"/><polygon class="cls-3" points="458.52 314.86 455.51 311.63 459.91 307.6 462.93 310.82 458.52 314.86"/><polygon class="cls-3" points="443.54 314.44 446.56 311.21 442.15 307.18 439.13 310.4 443.54 314.44"/><rect class="cls-3" x="449" y="329.04" width="4.44" height="5.94"/><polygon class="cls-3" points="459.19 324.57 456.17 327.79 460.58 331.83 463.59 328.6 459.19 324.57"/><polygon class="cls-3" points="442.87 325.25 445.89 328.47 441.48 332.51 438.47 329.28 442.87 325.25"/><path class="cls-3" d="M367.9,71.21a11.34,11.34,0,1,0,11.46,11.34A11.4,11.4,0,0,0,367.9,71.21Zm0,18.18a6.84,6.84,0,1,1,6.91-6.84A6.88,6.88,0,0,1,367.9,89.39Z"/><rect class="cls-3" x="366.12" y="67.82" width="4.44" height="5.94"/><rect class="cls-3" x="353.68" y="79.01" width="4.39" height="6.01" transform="translate(273.86 437.88) rotate(-90)"/><rect class="cls-3" x="377.53" y="79.55" width="4.39" height="6.01" transform="translate(297.17 462.28) rotate(-90)"/><polygon class="cls-3" points="375.51 77.4 372.5 74.17 376.9 70.14 379.92 73.36 375.51 77.4"/><polygon class="cls-3" points="360.53 76.98 363.55 73.75 359.14 69.72 356.13 72.94 360.53 76.98"/><rect class="cls-3" x="366" y="91.58" width="4.44" height="5.94"/><polygon class="cls-3" points="376.18 87.11 373.16 90.33 377.57 94.37 380.58 91.14 376.18 87.11"/><polygon class="cls-3" points="359.86 87.79 362.88 91.01 358.47 95.05 355.46 91.82 359.86 87.79"/><path class="cls-3" d="M71,61.43A11.34,11.34,0,1,0,82.46,72.77,11.4,11.4,0,0,0,71,61.43Zm0,18.18a6.84,6.84,0,1,1,6.91-6.84A6.88,6.88,0,0,1,71,79.61Z"/><rect class="cls-3" x="69.22" y="58.04" width="4.44" height="5.94"/><rect class="cls-3" x="56.77" y="69.22" width="4.39" height="6.01" transform="translate(-13.26 131.2) rotate(-90)"/><rect class="cls-3" x="80.63" y="69.77" width="4.39" height="6.01" transform="translate(10.06 155.6) rotate(-90)"/><polygon class="cls-3" points="78.61 67.61 75.6 64.39 80 60.35 83.02 63.58 78.61 67.61"/><polygon class="cls-3" points="63.63 67.2 66.65 63.97 62.24 59.94 59.23 63.16 63.63 67.2"/><rect class="cls-3" x="69.1" y="81.8" width="4.44" height="5.94"/><polygon class="cls-3" points="79.28 77.33 76.26 80.55 80.67 84.59 83.68 81.36 79.28 77.33"/><polygon class="cls-3" points="62.96 78.01 65.98 81.23 61.57 85.27 58.56 82.04 62.96 78.01"/><path class="cls-4" d="M418.69,359.67s-13.77.15-20.78,10.15-6.77,26.09-.44,36.75,20.25-3,20.25-3l1-43.94"/><path class="cls-5" d="M418.69,359.67s-15.39,7-16.67,25,7.7,24.51,7.7,24.51,7.16,2.75,7.8-.47-6.91-18.31,1.17-49"/><path class="cls-4" d="M421.74,359.67s13.77.15,20.78,10.15,6.77,26.09.44,36.75-20.25-3-20.25-3l-1-43.94"/><path class="cls-5" d="M421.74,359.67s15.39,7,16.67,25-7.7,24.51-7.7,24.51-7.16,2.75-7.8-.47,6.91-18.31-1.17-49"/><path class="cls-4" d="M415.84,409s-8.15-17.06-3-34.33,6.19-15.33,8.09-15.37c2.79-.06,8.32,17.25,7.4,33.28s-5,17.25-5,17.25Z"/><path class="cls-6" d="M415.94,368.24l2.87,4.42c.35.48.51.67.9.67s.58-.1,1-.56l2.91-4.53-3.18,3.68-.34-8.31-.81,8.1Z"/><path class="cls-6" d="M415.94,382.17l2.87,4.42c.35.48.51.67.9.67s.58-.1,1-.56l2.91-4.53-3.18,3.68-.34-8.3-.81,8.1Z"/><path class="cls-6" d="M416.57,397.06l2.88,4.42c.34.48.51.67.9.67s.57-.1,1-.56l2.91-4.53-3.19,3.68-.34-8.31-.81,8.1Z"/><path class="cls-6" d="M428.55,358.3l1.91,4.9c.24.53.37.75.75.83s.58,0,1.09-.35l3.78-3.88-3.87,3,1.37-8.2-2.46,7.77Z"/><path class="cls-6" d="M439,366.79l1.91,4.89c.24.53.36.75.74.83s.59,0,1.1-.35l3.78-3.88-3.88,3,1.37-8.2-2.45,7.78Z"/><path class="cls-6" d="M430,369.15l1.91,4.89c.24.54.36.76.74.83s.59,0,1.1-.35l3.78-3.87-3.88,3,1.37-8.21-2.45,7.78Z"/><path class="cls-6" d="M443.42,380.73l1.91,4.89c.24.54.36.76.74.84s.58,0,1.1-.36l3.78-3.87-3.88,3,1.37-8.21L446,384.79Z"/><path class="cls-6" d="M435,387.83,436,393c.14.57.23.81.59.94s.57.12,1.14-.17l4.38-3.21-4.33,2.33,2.74-7.88-3.73,7.28Z"/><path class="cls-6" d="M441.59,397.32l1.91,4.89c.24.54.36.76.74.83s.58,0,1.1-.35l3.78-3.87-3.88,3,1.37-8.2-2.45,7.78Z"/><path class="cls-6" d="M408.82,359.63l-1.53,5c-.19.55-.3.78-.67.89s-.58.06-1.12-.27l-4.07-3.59,4.09,2.7-2-8.08,3.05,7.57Z"/><path class="cls-6" d="M399,368.86l-1.53,5c-.19.55-.3.78-.67.88s-.58.07-1.12-.27l-4.07-3.58,4.09,2.69-2-8.08,3.05,7.58Z"/><path class="cls-6" d="M408.78,373.5l-1.52,5c-.2.56-.31.78-.68.89s-.58.06-1.12-.27l-4.07-3.59,4.1,2.7-2-8.08,3,7.57Z"/><path class="cls-6" d="M407.13,388.88l-1.53,5c-.19.56-.3.79-.67.89s-.58.06-1.12-.27l-4.07-3.58,4.09,2.69-2-8.08,3.05,7.57Z"/><path class="cls-6" d="M395.73,383.09l-1.52,5c-.2.55-.31.78-.68.88s-.58.07-1.12-.27l-4.07-3.58,4.1,2.69-2-8.08,3,7.58Z"/><path class="cls-6" d="M398.58,398.93l-.66,5.2c-.11.57-.17.82-.52,1s-.57.15-1.15-.09l-4.62-2.89,4.5,2-3.33-7.66,4.27,7Z"/><path class="cls-7" d="M418.36,362.86s-5.43-.41-7.2-3.95-2.54-8-1.61-7.41,7.26,4.47,7.85,5.65,1.18-8.45,3-10.59,3.26,10.16,2.93,10.68,4.75-5.74,6.52-7.06S429.87,363.27,418.36,362.86Z"/><ellipse class="cls-5" cx="210.1" cy="81.97" rx="34.05" ry="33.68"/><ellipse class="cls-8" cx="210.1" cy="81.97" rx="29.13" ry="28.82"/><rect class="cls-5" x="209.21" y="53.98" width="1.77" height="6.83"/><rect class="cls-5" x="209.21" y="103.43" width="1.77" height="6.18"/><rect class="cls-5" x="184.49" y="78.4" width="1.76" height="6.78" transform="translate(103.57 267.16) rotate(-90)"/><rect class="cls-5" x="234.29" y="78.75" width="1.76" height="6.09" transform="translate(153.38 316.97) rotate(-90)"/><polygon class="cls-5" points="194.38 66.73 193.38 68.21 188.63 63.97 189.82 62.67 194.38 66.73"/><polygon class="cls-5" points="231.56 99.97 230.37 101.27 225.96 97.33 227.28 96.14 231.56 99.97"/><polygon class="cls-5" points="224.41 65.53 225.47 66.96 230.12 62.55 228.89 61.29 224.41 65.53"/><polygon class="cls-5" points="188.3 99.8 189.53 101.06 194.22 96.61 192.93 95.41 188.3 99.8"/><rect class="cls-5" x="209.21" y="64.12" width="1.77" height="18.49" transform="translate(420.19 146.73) rotate(180)"/><rect class="cls-5" x="209.21" y="80.92" width="11.97" height="1.76"/><path class="cls-6" d="M432.48,281.31l0-3.16,6.38,0,0,3.15Zm10.62-.09,0-3.15,6.37-.06,0,3.16Zm10.63-.09,0-3.15,6.38-.05,0,3.15Zm10.84-.19-.47-3.12a7.12,7.12,0,0,0,4.44-2.47l2.45,2A10.34,10.34,0,0,1,464.57,280.94Zm8.59-8-3.12-.65a7,7,0,0,0,.15-1.46v-4.51h3.19v4.51A10,10,0,0,1,473.16,272.93Zm.22-10.82h-3.19V255.8h3.19Zm0-10.51h-3.19v-6.31h3.19Zm0-10.52h-3.19v-6.3h3.19Zm0-10.51h-3.19v-6.31h3.19Zm0-10.51h-3.19v-6.31h3.19Zm0-10.51h-3.19v-6.31h3.19Zm0-10.52h-3.19v-6.3h3.19Zm0-10.51h-3.19v-6.31h3.19Zm0-10.51h-3.19V171.7h3.19Zm0-10.51h-3.19v-6.31h3.19ZM470,157.41a6,6,0,0,0-3.06-3.79l1.47-2.8a9.2,9.2,0,0,1,4.68,5.78ZM463.55,153h-6.37v-3.16h6.37Zm-10.62,0h-6.38v-3.16h6.38Z"/><rect class="cls-9" x="2.69" y="427.14" width="495.31" height="4.01"/><polygon class="cls-6" points="439.33 453 400.72 453 395.87 405.29 444.29 405.29 439.33 453"/><path class="cls-8" d="M166.59,117.58c0-13.65-18-24.72-40.13-24.72s-40.13,11.07-40.13,24.72,18,24.73,40.13,24.73a64.56,64.56,0,0,0,11.13-1h0L151,149.49l-.79-12h0C160.15,133,166.59,125.76,166.59,117.58Z"/><rect class="cls-10" x="106.63" y="103.96" width="39.66" height="27.24" rx="2.27" transform="translate(252.92 235.16) rotate(-180)"/><path class="cls-11" d="M127,117.19l18.14-11.76c.81-.56-1.11-1.47-2.09-1.47H109.84c-1,0-2.87.84-2.06,1.4l18.11,11.83A1,1,0,0,0,127,117.19Z"/><polygon class="cls-6" points="96.7 446.04 58.09 446.04 53.23 391.3 101.66 391.3 96.7 446.04"/><path class="cls-6" d="M65.39,431.31H52.75a8,8,0,0,1-8-7L43.5,413.68a7.5,7.5,0,0,1,1.86-5.9,7.7,7.7,0,0,1,5.71-2.54H60v3.15H51.07a4.45,4.45,0,0,0-3.32,1.48,4.38,4.38,0,0,0-1.09,3.44L48,424a4.81,4.81,0,0,0,4.79,4.21H65.39Z"/><rect class="cls-8" x="344.05" y="139.4" width="94.24" height="60.91"/><rect class="cls-5" x="344.05" y="124" width="94.24" height="15.4"/><rect class="cls-12" x="358.35" y="116.3" width="4.57" height="15.4"/><rect class="cls-12" x="378.14" y="116.3" width="4.57" height="15.4"/><rect class="cls-12" x="397.93" y="116.3" width="4.57" height="15.4"/><rect class="cls-12" x="417.72" y="116.3" width="4.57" height="15.4"/><rect class="cls-13" x="353.27" y="150.36" width="15.82" height="15.65"/><rect class="cls-13" x="373.07" y="150.36" width="15.82" height="15.65"/><rect class="cls-5" x="392.86" y="150.36" width="15.82" height="15.65"/><rect class="cls-13" x="412.65" y="150.36" width="15.82" height="15.65"/><rect class="cls-13" x="353.27" y="169.94" width="15.82" height="15.65"/><rect class="cls-13" x="373.07" y="169.94" width="15.82" height="15.65"/><rect class="cls-13" x="392.86" y="169.94" width="15.82" height="15.65"/><rect class="cls-13" x="412.65" y="169.94" width="15.82" height="15.65"/><polyline class="cls-14" points="265.21 79.1 294.96 60.57 324.72 79.1"/><polyline class="cls-14" points="265.21 79.1 294.96 97.62 324.72 79.1"/><rect class="cls-13" x="271.23" y="47.78" width="47.47" height="60.62"/><rect class="cls-10" x="275.09" y="51.99" width="17.18" height="9.29"/><rect class="cls-10" x="275.09" y="66.14" width="39.32" height="2.2"/><rect class="cls-10" x="275.3" y="73.12" width="39.32" height="2.2"/><rect class="cls-10" x="275.52" y="80.1" width="39.32" height="2.2"/><polygon class="cls-15" points="294.96 97.62 265.21 79.1 265.21 116.15 324.72 116.15 324.72 79.1 294.96 97.62"/><polyline class="cls-10" points="265.21 116.15 294.96 97.62 324.72 116.15"/><path class="cls-5" d="M160.36,201.14a27.59,27.59,0,1,0,27.89,27.59A27.74,27.74,0,0,0,160.36,201.14Zm0,42.37a14.79,14.79,0,1,1,14.95-14.78A14.87,14.87,0,0,1,160.36,243.51Z"/><path class="cls-10" d="M145.49,227.23a14.81,14.81,0,0,1,9-12.09h0l-3.6-12.36a27.62,27.62,0,0,0-18.37,25.34Z"/><path class="cls-13" d="M182.93,212.53l-10.36,7.68h0a14.55,14.55,0,0,1,2.74,8.51,14.7,14.7,0,0,1-.8,4.75l12.2,4.3a27.34,27.34,0,0,0-3.78-25.25Z"/><ellipse class="cls-6" cx="347.83" cy="283.15" rx="3.78" ry="3.74"/><ellipse class="cls-6" cx="319.78" cy="161.99" rx="3.78" ry="3.74"/><ellipse class="cls-6" cx="445.35" cy="230.89" rx="3.78" ry="3.74"/><ellipse class="cls-6" cx="467.72" cy="402.72" rx="3.78" ry="3.74"/><ellipse class="cls-6" cx="37.12" cy="371.76" rx="3.78" ry="3.74"/><ellipse class="cls-6" cx="143.47" cy="286.7" rx="3.78" ry="3.74"/><ellipse class="cls-6" cx="433.73" cy="90.74" rx="3.78" ry="3.74"/><ellipse class="cls-6" cx="126.48" cy="79.39" rx="2.57" ry="2.54"/><ellipse class="cls-6" cx="462.37" cy="115.65" rx="2.57" ry="2.54"/><ellipse class="cls-6" cx="459.8" cy="81.33" rx="2.57" ry="2.54"/><ellipse class="cls-6" cx="166.59" cy="174.14" rx="3.78" ry="3.74"/><ellipse class="cls-6" cx="153.82" cy="72.46" rx="3.78" ry="3.74"/><ellipse class="cls-6" cx="33.34" cy="292.57" rx="3.78" ry="3.74"/><path class="cls-6" d="M47.42,166.81H44.23V160.5h3.19Zm0-10.51H44.23V150h3.19Zm0-10.51H44.23v-6.31h3.19Zm0-10.52H44.23V129h3.19Zm0-10.51H44.23v-.19a10.44,10.44,0,0,1,2.4-6.65l2.46,2a7.32,7.32,0,0,0-1.67,4.65Zm4.43-6.91L50.57,115a10.57,10.57,0,0,1,4.27-.88h2.64v3.15H54.84A7.45,7.45,0,0,0,51.85,117.85Zm26.89-.62H72.36v-3.15h6.38Zm-10.63,0H61.73v-3.15h6.38Z"/><path class="cls-6" d="M410.28,108.74l-3.18,0,0-6.31,3.19,0Zm.09-10.51-3.19,0,.05-6.31,3.19,0Zm.09-10.52-3.19,0,.05-6.31,3.19,0Zm.08-10.51-3.19,0,.06-6.3,3.18,0Zm.09-10.51-3.19,0,0-3a10.37,10.37,0,0,0-.38-2.84l3.06-.86a13,13,0,0,1,.51,3.62Zm-5.18-9.08a10.08,10.08,0,0,0-4.3-3.3l1.21-2.92A13.26,13.26,0,0,1,408,55.72Zm-7.87-4h-6.34V50.41h6.42Zm-10.59,0h-6.37V50.41H387Zm-10.62,0H370V50.41h6.38Zm-10.63,0h-6.38V50.41h6.38Zm-10.63,0h-6.37V50.41h6.37Zm-10.63,0h-6.37V50.41h6.37Zm-10.62,0h-6.38V50.41h6.38Z"/><path class="cls-16" d="M235.25,261.37A39.12,39.12,0,0,1,231.2,259c-.1,6.71-1.33,14.41-5.78,19.07-5.07,5.29,8.79,12.62,24.44,10.34s23.65-5.15,23.65-5.15-8.68-6.68-9.06-23.31c-.5.31-1,.61-1.52.9A29.46,29.46,0,0,1,235.25,261.37Z"/><path class="cls-17" d="M300.59,210.12c-1.53-5.21-7.3-2.56-7.3-2.56,1.66-17.82-1-68.16-50.89-64.6s-41.47,64.78-41.47,64.78c-6.4-3.11-10.13,3.75-5.61,15.17,4.13,10.41,13.27,8.59,13.27,8.59,5.58,12.68,14.66,22.26,22.61,27.5a39.12,39.12,0,0,0,4.05,2.37,29.46,29.46,0,0,0,27.68-.52c.52-.29,1-.59,1.52-.9,16.21-10.1,23.11-28.82,23.11-28.82C299,234.05,302.11,215.32,300.59,210.12Z"/><path class="cls-18" d="M298,210.78c.3.33-1.17-1.77-2.77-.69s-2.3,5-1.35,6.28,2.12,4.19.07,5.49-1.45,1.95-1.45,1.95a5.44,5.44,0,0,1,2.36-1.66c1.5-.5,1.51-3.09,0-5.12S295.42,207.88,298,210.78Z"/><path class="cls-18" d="M196.61,211.07c-.26.36,1-1.88,2.69-1s2.82,4.71,2,6.1-1.65,4.39.53,5.47,1.65,1.78,1.65,1.78A5.47,5.47,0,0,0,201,222c-1.54-.34-1.83-2.92-.56-5.09S198.84,207.92,196.61,211.07Z"/><path class="cls-18" d="M241.86,227s.83,3.49,5.31,3.49c5.16,0,6.23-3.49,6.23-3.49a8.4,8.4,0,0,1-6.21,2.24A9.16,9.16,0,0,1,241.86,227Z"/><ellipse class="cls-19" cx="222.64" cy="225.55" rx="5" ry="3.89"/><path class="cls-9" d="M218.53,205.36a4.45,4.45,0,0,1,2.57-2.72,20.71,20.71,0,0,1,4.63-1.15c6.58-1,8,2.46,6.51,3.74s-2.39-.27-6.54.48C222,206.38,217.52,208.35,218.53,205.36Z"/><ellipse class="cls-9" cx="226.49" cy="214.14" rx="4.37" ry="4.32"/><ellipse class="cls-19" cx="272.31" cy="225.55" rx="5" ry="3.89"/><path class="cls-9" d="M276.42,205.36a4.44,4.44,0,0,0-2.56-2.72,20.86,20.86,0,0,0-4.63-1.15c-6.58-1-8,2.46-6.51,3.74s2.39-.27,6.54.48C273,206.38,277.44,208.35,276.42,205.36Z"/><ellipse class="cls-9" cx="268.47" cy="214.14" rx="4.37" ry="4.32"/><path class="cls-9" d="M239.56,242.19c4,5,12.67,5.22,16.34-.27,1-1.41-1.35-2.73-2.29-1.32-2.8,4.18-9.31,3.35-12.17-.27-1.05-1.33-2.92.54-1.88,1.86Z"/><ellipse class="cls-20" cx="225.23" cy="211.24" rx="15.97" ry="14.94"/><ellipse class="cls-20" cx="268.44" cy="211.04" rx="15.97" ry="14.94"/><path class="cls-21" d="M225.17,227.71c-9.46,0-17.15-7.43-17.15-16.57s7.69-16.56,17.15-16.56,17.15,7.43,17.15,16.56S234.63,227.71,225.17,227.71Zm0-31c-8.24,0-14.94,6.45-14.94,14.38s6.7,14.39,14.94,14.39,14.94-6.46,14.94-14.39S233.41,196.76,225.17,196.76Z"/><path class="cls-21" d="M268.44,227.71c-9.46,0-17.15-7.43-17.15-16.57s7.69-16.56,17.15-16.56,17.15,7.43,17.15,16.56S277.89,227.71,268.44,227.71Zm0-31c-8.24,0-14.95,6.45-14.95,14.38s6.71,14.39,14.95,14.39,14.94-6.46,14.94-14.39S276.67,196.76,268.44,196.76Z"/><rect class="cls-21" x="241.21" y="209.69" width="10.81" height="2.18"/><path class="cls-22" d="M294.2,165.62v-.06c-.54-5-1.46-9.56-3-12.26-2.06-3.6-6.22-6.29-11-8.26a9.07,9.07,0,0,0-2.89-4.5c-23.92-20.34-58.63,8.55-73.89,2.93a8.69,8.69,0,0,0-11.68,6.15c-1.73,8.08-1.61,18,6.24,24.52l.43.35c-.1,1-.17,2-.22,3a178.58,178.58,0,0,0,.93,29.61,7.45,7.45,0,0,1,2.82,1.55c.39,2.46,1.92,11.51,3.6,11.56,1.89.05,3.27-8.25,2-16,.53-6.41,1.76-16.75,4.42-22.25,7.57,2.28,17.11,2.41,31.8.38a43.91,43.91,0,0,0,17.39-6.62c11-.13,17.79,2.37,20.29,5.12,2.28,2.52,3.35,6.58,3.84,9.67a94.51,94.51,0,0,1,.56,16.58,40.26,40.26,0,0,0-.4,5.88v.06h0c.05,4.68,1,8.32,2.22,8.32,1.94,0,4-12.07,4-12.07.09-.25.16-.51.23-.76l1.42-1S297.63,191.2,294.2,165.62Z"/><path class="cls-17" d="M368.78,344.52l2.19,3s4.61,2.87,13.5-.93,16.88-21.37,19-27.81,1.65-9.3,3-14.22S401.91,288,398.9,280.7s-8.5-6.42-10.82-5.94S377.19,301,375.81,303.37,364.73,326.64,368.78,344.52Z"/><path class="cls-9" d="M408.49,330.83l-49-10.52a2.54,2.54,0,0,1-2-3L375.1,237.4a2.57,2.57,0,0,1,3.06-1.94l49,10.53a2.54,2.54,0,0,1,2,3l-17.55,79.88A2.56,2.56,0,0,1,408.49,330.83Z"/><path class="cls-6" d="M408.92,319.69l-44.81-9.63a1.26,1.26,0,0,1-1-1.5L378,240.77a1.27,1.27,0,0,1,1.51-1l44.81,9.63a1.26,1.26,0,0,1,1,1.5l-14.89,67.79A1.27,1.27,0,0,1,408.92,319.69Z"/><ellipse class="cls-6" cx="385.36" cy="320.13" rx="2.65" ry="2.81" transform="translate(2.83 643.64) rotate(-79.94)"/><polygon class="cls-13" points="416.83 276.96 374.67 267.9 378.41 250.89 420.57 259.95 416.83 276.96"/><polygon class="cls-13" points="408.38 315.43 366.22 306.37 369.96 289.36 412.12 298.42 408.38 315.43"/><polygon class="cls-13" points="415.4 283.12 373.24 274.06 373.79 271.58 415.95 280.64 415.4 283.12"/><polygon class="cls-13" points="421.04 257.46 378.88 248.4 379.42 245.92 421.59 254.98 421.04 257.46"/><polygon class="cls-13" points="414.6 286.79 372.44 277.73 372.98 275.25 415.14 284.31 414.6 286.79"/><polygon class="cls-13" points="413.79 290.46 371.63 281.4 372.18 278.92 414.34 287.98 413.79 290.46"/><polygon class="cls-13" points="412.99 294.13 370.82 285.07 371.37 282.59 413.53 291.65 412.99 294.13"/><path class="cls-17" d="M365.5,344.11s-2.76-17.83-2.94-20.53,2-9.49,2.3-12.74,4.62-3.17,9.09-11.36c1.7-3.12,6,1.64,3.33,6.5s-5.19,8.17-3.14,10.95,5.53,5.31,6.73,11.31S374.8,355.67,365.5,344.11Z"/><path class="cls-23" d="M301.23,357.14s20.43,57.49,25,68.83,13,10.11,19.77,8.43c12.6-3.12,39.74-81.56,42.32-88.64,0,0-18.95-1.92-24.68-7,0,0-14.86,26.3-16.4,27.15S338,323,338,323,296.58,321.76,301.23,357.14Z"/><path class="cls-24" d="M350.14,361.63s-7.08,11.81-12.62,21.82a50.59,50.59,0,0,0-6.11,19.27s-.11-17.18,14.08-41.09c0,0,.92,3.5,1.58,3.78S350.14,361.63,350.14,361.63Z"/><path class="cls-25" d="M364.45,337.22l-4.3,6.53s.36,4.39,10.89,7.44,15.42,1.8,15.42,1.8l2.49-8.68S373.54,344.08,364.45,337.22Z"/><path class="cls-23" d="M341.34,345.51c-1.72-7.71-2.92-47.09-21.11-55.12-20.2-8.92-49.46-17-49.46-17-3.52,10.39-14.92,13.9-20.13,15h0s-21.91-.08-25.27-14c0,0-32.16,6.57-48.57,15.17-11.78,6.18-48.07,53.84-50.48,61.37-1.78,5.58,5.76,19.24,10.38,27.73-10.23,13-17.23,22.06-17.23,22.06s9.42,1.55,20.05-7.57c7.15-6.13,30.61-29.34,45.17-43.85,1.7,28.83,4.72,76.17,6.36,77.94,3.72,4,84.32,2.86,105.57,0,0,0,5-39.8,8-71.74,5.38,16.26,13.31,40.08,14,42.7C319.08,399.94,343.49,355.15,341.34,345.51Zm-92.4-55.26.08-.08,0,.07h-.13Z"/><path class="cls-25" d="M230.3,267.8l-5.93,6.74s4.83,15.85,21.4,15.85c17,0,23.44-11.66,25-17l-5.55-6.07s-4.92,11.89-17.11,12.19C235.76,279.78,230.3,267.8,230.3,267.8Z"/><path class="cls-24" d="M304,362.12s2.69-27.11,8.23-34.6C312.22,327.52,300.86,334.8,304,362.12Z"/><path class="cls-24" d="M185.82,347.83s-2.59-20.69-8.14-28.17C177.68,319.66,185.38,322,185.82,347.83Z"/><path class="cls-17" d="M105.7,292.3,103.19,295s-4.89,2.36-13.32-2.37S75.43,269.6,74,263s-.63-9.41-1.42-14.44,6.3-15.9,10.1-22.88,9.15-5.48,11.39-4.75,8,27.26,9.09,29.75S111.67,275,105.7,292.3Z"/><polygon class="cls-5" points="78.79 162.5 59.31 165.94 58.98 164.13 78.47 160.69 78.79 162.5"/><polygon class="cls-5" points="61.88 169.49 60.01 169.82 58.98 164.13 60.86 163.8 61.88 169.49"/><polygon class="cls-5" points="79.49 166.38 77.62 166.72 76.59 161.02 78.47 160.69 79.49 166.38"/><path class="cls-5" d="M125.13,267.22,52.43,280a2.74,2.74,0,0,1-3.19-2.19L31.47,179.26a2.71,2.71,0,0,1,2.22-3.15l72.7-12.83a2.73,2.73,0,0,1,3.18,2.2l17.78,98.58A2.74,2.74,0,0,1,125.13,267.22Z"/><path class="cls-6" d="M121.33,263.3,54.62,275.07a2.25,2.25,0,0,1-2.61-1.8L35.75,183.05a2.23,2.23,0,0,1,1.82-2.58l66.71-11.77a2.24,2.24,0,0,1,2.6,1.8l16.27,90.22A2.23,2.23,0,0,1,121.33,263.3Z"/><polygon class="cls-5" points="87.5 175.25 55.59 180.88 53.63 170.01 85.54 164.38 87.5 175.25"/><polygon class="cls-13" points="63.06 217.78 51.02 219.91 46.23 193.34 58.27 191.22 63.06 217.78"/><polygon class="cls-13" points="77.7 215.2 65.67 217.32 62 196.97 74.03 194.84 77.7 215.2"/><polygon class="cls-13" points="92.35 212.62 80.32 214.74 77.21 197.49 89.24 195.37 92.35 212.62"/><polygon class="cls-13" points="107 210.03 94.96 212.15 93.13 201.98 105.16 199.85 107 210.03"/><polygon class="cls-13" points="112.26 239.22 56.29 249.1 52.21 226.46 108.18 216.59 112.26 239.22"/><polygon class="cls-13" points="115.24 255.78 59.27 265.66 57.08 253.5 113.05 243.62 115.24 255.78"/><path class="cls-17" d="M109,292.24s4.69-17.43,5.16-20.1-1-9.65-.9-12.91S109,255.59,105.47,247c-1.35-3.28-6.11,1-4,6.12s4.27,8.67,1.93,11.21S97.3,269,95.45,274.82,98.49,302.74,109,292.24Z"/><path class="cls-23" d="M86.33,290.25s14,83.71,20.34,98.95,21.68,18.4,43.65-9.56c24.7-31.44-1.15,0-1.15,0L132.7,351.35s-19.53-63.69-20.06-64S94.31,290.32,86.33,290.25Z"/><path class="cls-25" d="M86,289.21l1.31,8.69s3.31,1.81,12.37.48c10.85-1.59,14.82-5.47,14.82-5.47l-2.66-8.65S98.9,289.63,86,289.21Z"/><path class="cls-24" d="M130.35,343.69s5.45,25.67,5.27,37.23a94,94,0,0,0,0-21.51,99,99,0,0,0-3.95-17.72Z"/><polygon class="cls-26" points="291.15 451.03 323.37 430.1 245.45 431.25 291.15 451.03"/><polygon class="cls-14" points="291.15 451.03 149.41 451.03 138.03 363.38 278.84 363.38 291.15 451.03"/><polygon class="cls-14" points="289.62 441.95 148.23 441.95 149.41 451.03 291.15 451.03 289.62 441.95"/><ellipse class="cls-13" cx="208.78" cy="402.48" rx="12.25" ry="9.11"/><polygon class="cls-26" points="278.84 363.38 274.24 363.38 287.59 451.03 291.15 451.03 278.84 363.38"/></g></svg>