<?xml version="1.0" encoding="utf-8"?>
<!-- Generator: Adobe Illustrator 25.2.1, SVG Export Plug-In . SVG Version: 6.00 Build 0)  -->
<svg version="1.1" id="Layer_1" xmlns="http://www.w3.org/2000/svg" xmlns:xlink="http://www.w3.org/1999/xlink" x="0px" y="0px"
	 viewBox="0 0 676.1 439.3" style="enable-background:new 0 0 676.1 439.3;" xml:space="preserve">
<style type="text/css">
	.st0{fill:#F5F5F5;}
	.st1{fill:#E0E0E0;}
	.st2{fill:#EBEBEB;}
	.st3{fill:#FAFAFA;}
	.st4{fill:#FFFFFF;}
	.st5{fill:#263238;}
	.st6{fill:#455A64;}
	.st7{fill:#FFBF9D;}
	.st8{fill:#FF9A6C;}
	.st9{fill:#FF1800;}
	.st10{fill:#FF1200;}
	.st11{fill:#FC1B03;}
	.st12{fill:#FC1800;}
	.st13{opacity:0.3;}
</style>
<g id="Background_Complete">
	<path class="st0" d="M216.1,394.7l-11,4.7l0.7-65.2c0.3-7.8-3.2-11.1-5.2-13.4c-17.7-20.1-44.1-5.5-44.3,14.9l-0.7,58.3l-10.7-0.1
		l1.1-61c0.1-6.9,5.4-18.8,10.8-23.1c29.8-23.6,60.3,0.8,60,26.6L216.1,394.7z"/>
	<path class="st1" d="M216.1,394.7v-1.2c0-0.8,0-1.9,0-3.4c0-3,0.1-7.4,0.1-13c0-5.7,0.1-12.5,0.2-20.5c0-4,0.1-8.3,0.1-12.8
		c0-4.5,0.4-9.3-0.5-14.3c-0.9-5.2-3-10.1-6.1-14.3c-0.4-0.5-0.8-1.1-1.2-1.7c-0.4-0.5-0.9-1-1.4-1.5c-0.9-1-1.9-2-3-3
		c-0.5-0.5-1.1-0.9-1.7-1.3c-0.6-0.5-1.1-0.9-1.7-1.3c-1.2-0.8-2.5-1.5-3.8-2.2c-2.7-1.3-5.5-2.4-8.4-3l-2.3-0.4l-1.1-0.2l-1.1-0.1
		l-2.3-0.1c-0.8,0-1.6,0-2.3,0.1c-6.5,0.3-12.7,2.4-18.1,6c-5.6,3.8-10.1,9.2-12.7,15.4c-1.3,3.2-2.2,6.6-2.6,10.1
		c-0.3,3.5-0.2,7.1-0.3,10.7c-0.2,14.5-0.3,29.5-0.5,44.8c0,2,0,4.1-0.1,6.1l-0.2-0.3l10.7,0.1l-0.2,0.2c0.1-11.6,0.3-22.9,0.4-34
		c0.1-5.5,0.1-10.9,0.2-16.3c0-2.7,0-5.3,0.1-8c0.1-2.6,0.5-5.2,1.3-7.7c1.6-4.9,4.7-9.1,8.9-12.2c0.5-0.4,1-0.7,1.5-1.1l1.6-1
		c1.1-0.6,2.2-1.1,3.4-1.5c1.1-0.4,2.3-0.8,3.5-1c0.6-0.1,1.2-0.2,1.8-0.3l0.9-0.1h0.9c2.3-0.1,4.7,0.1,7,0.6
		c2.2,0.5,4.4,1.4,6.4,2.5c5.8,3.2,10.1,8.5,12,14.8c0.6,2,0.9,4,1,6c0,0.5,0,1,0.1,1.5c0,0.5,0,1,0,1.5c0,1,0,1.9,0,2.9
		c0,1.9,0,3.8-0.1,5.6c-0.1,7.4-0.2,14.1-0.3,20.2c-0.2,12.2-0.3,21.7-0.4,28.1l-0.1-0.1l8.1,0.1h2h0.6h-2.6l-8.1,0h-0.1v-0.1
		c0-6.3,0.1-15.9,0.2-28.1c0.1-6.1,0.1-12.9,0.2-20.2c0-1.8,0-3.7,0.1-5.6c0-1,0-1.9,0-2.9c0-0.5,0-1,0-1.5l-0.1-1.5
		c-0.1-4.1-1.4-8.1-3.5-11.6c-2.3-3.7-5.5-6.8-9.3-8.9c-2-1.1-4.1-1.9-6.3-2.4c-2.3-0.5-4.6-0.7-6.9-0.6h-0.9l-0.9,0.1
		c-0.6,0.1-1.2,0.1-1.8,0.3c-2.3,0.5-4.6,1.3-6.8,2.4l-1.6,0.9c-0.5,0.3-1,0.6-1.5,1c-4.1,3-7.1,7.2-8.7,12c-0.8,2.5-1.2,5-1.3,7.6
		c0,2.6,0,5.3-0.1,8c-0.1,5.3-0.1,10.8-0.2,16.3c-0.1,11-0.2,22.4-0.4,34v0.2h-0.2l-10.7-0.1h-0.2v-0.2c0-2,0-4,0.1-6.1
		c0.2-15.3,0.4-30.3,0.5-44.8c0.1-3.6,0-7.2,0.3-10.8c0.4-3.5,1.3-7,2.7-10.2c1.4-3.1,3.2-6.1,5.4-8.7c2.2-2.6,4.7-4.9,7.5-6.8
		c5.4-3.7,11.8-5.8,18.3-6.1c0.8,0,1.6-0.1,2.4-0.1l2.7,0.2l1.5,0.2l2.2,0.4l1,0.2c2.8,0.6,5.5,1.6,8,2.9c1.3,0.6,2.6,1.4,3.8,2.2
		c0.6,0.4,1.2,0.9,1.8,1.3c0.6,0.4,1.2,0.8,1.7,1.3c1.1,0.9,2.1,1.9,3,3l1.4,1.6c0.4,0.5,0.8,1.1,1.2,1.7c3.1,4.3,5.2,9.2,6.2,14.5
		c0.9,5,0.5,9.8,0.5,14.4c0,4.5-0.1,8.8-0.2,12.8c-0.1,8-0.2,14.9-0.3,20.5s-0.1,10-0.2,12.9c0,1.5,0,2.6-0.1,3.3
		S216.1,394.7,216.1,394.7z"/>
	<path class="st1" d="M132.7,355.8l97,1.1c2.1,0,3.7,1.7,3.7,3.8l-0.9,75c0,1.9-1.6,3.4-3.4,3.4l-97.3-1.1l0,0L132.7,355.8
		L132.7,355.8z"/>
	<path class="st2" d="M132.7,355.6l85.3,0.9c2.2,0,4,1.9,4,4.1l-0.7,73c0,2.8-2.3,5-5,5l-84.2-0.8c-2.3,0-4.2-1.9-4.2-4.2l0,0
		l0.7-73.8C128.6,357.4,130.4,355.6,132.7,355.6z"/>
	<path class="st1" d="M187.4,390.3c0.1-6.3-5-11.5-11.3-11.6c-0.1,0-0.2,0-0.4,0c-6.1,0.2-11,5.1-11.2,11.2
		c-0.1,5.1,3.3,9.7,8.2,11.2l-7.6,15.7l19.8,0.6l-5.8-16.3C183.9,399.8,187.3,395.4,187.4,390.3z"/>
	<path class="st3" d="M220.7,431.2c-0.1,0,0-14.3,0.2-31.9s0.6-31.9,0.8-31.9s0,14.3-0.2,31.9S220.9,431.2,220.7,431.2z"/>
	<path class="st4" d="M199.9,359.1c0,0.1-12.6,0.3-28.1,0.3c-15.5,0-28.1-0.1-28.1-0.2s12.6-0.3,28.1-0.3
		C187.3,358.9,199.9,359,199.9,359.1z"/>
	<path class="st4" d="M164,396.2c-0.2-0.2-0.4-0.5-0.5-0.7c-0.4-0.7-0.6-1.4-0.9-2.2c-1.5-5.1,0.4-10.7,4.7-13.8
		c0.6-0.5,1.3-0.9,2-1.2c0.2-0.1,0.5-0.2,0.8-0.3c0,0.1-1.1,0.5-2.6,1.8c-4,3.2-5.8,8.5-4.6,13.5C163.5,395.1,164.1,396.1,164,396.2
		z"/>
	<path class="st4" d="M168.5,401.7c-0.1,0.1-0.7-0.2-1.5-0.6c-0.8-0.5-1.3-1-1.2-1.1c0.1-0.1,0.8,0.2,1.5,0.6
		C168.1,401,168.5,401.5,168.5,401.7z"/>
	<path class="st4" d="M178.1,303.3c-0.6,0.1-1.3,0.2-1.9,0.2c-1.7,0.2-3.5,0.6-5.2,1.1c-11.5,3.3-19.9,13-21.8,24.7
		c-0.3,1.7-0.5,3.5-0.4,5.3c0,1.2,0,1.9,0,1.9c-0.1-0.2-0.1-0.3-0.1-0.5c0-0.3-0.1-0.8-0.1-1.4c-0.1-1.8,0-3.6,0.3-5.3
		c1.7-12,10.4-21.8,22.1-25c1.7-0.5,3.5-0.8,5.2-1c0.6-0.1,1.1-0.1,1.4-0.1C177.7,303.2,177.9,303.3,178.1,303.3z"/>
	<path class="st4" d="M148.2,345.4c-0.2-1-0.3-2-0.2-3c-0.1-1,0-2,0.3-3C148.6,341.4,148.6,343.5,148.2,345.4z"/>
	<rect x="161.2" y="66.9" class="st0" width="48.6" height="12.9"/>
	<path class="st1" d="M189.2,93.3c0,0,0-0.1,0-0.2v-0.7c0-0.6,0-1.5,0-2.5c0-2.2,0-5.4-0.1-9.4l0.1,0.2l-48.6,0.1
		c0.1-0.1-0.2,0.2,0.2-0.2l0,0V87c0,2.1,0,4.3,0,6.3l-0.2-0.2l34.7,0.1l10.2,0.1h2.8h0.7C189.1,93.2,189.2,93.2,189.2,93.3l-0.1-0.1
		h-0.7h-2.7l-10.2,0.1l-34.8,0.1h-0.2v-0.2c0-2.1,0-4.2,0-6.3v-6.5l0,0l0.2-0.2l48.7,0.1h0.1v0.2c0,4.1-0.1,7.3-0.1,9.5
		c0,1.1,0,1.9,0,2.5c0,0.3,0,0.5,0,0.6S189.2,93.3,189.2,93.3z"/>
	<path class="st1" d="M65.8,46.7c0-0.1,0-0.2,0-0.2c0-0.2,0-0.4,0-0.7c0-0.6,0-1.4,0-2.5c0-2.2,0-5.4-0.1-9.4l0.2,0.2l-48.7,0.1
		c0.1-0.1-0.2,0.2,0.2-0.2l0,0v12.9l-0.2-0.2l34.7,0.1L62,46.7h2.8h0.7L65.8,46.7c-0.1-0.1-0.2-0.1-0.2-0.1h-0.7h-2.7L52,46.7
		l-34.8,0.1h-0.2v-13l0,0l0.2-0.2l48.7,0.1h0.2v0.2c0,4.1-0.1,7.3-0.1,9.5c0,1.1,0,1.9,0,2.5c0,0.3,0,0.5,0,0.6
		C65.9,46.6,65.8,46.7,65.8,46.7z"/>
	<path class="st1" d="M355.9,28.2c0,0,0-0.1,0-0.2v-0.7c0-0.6,0-1.5,0-2.5c0-2.2,0-5.4-0.1-9.4l0.1,0.2l-48.6,0.1l0.2-0.2l0,0v6.5
		c0,2.2,0,4.3,0,6.3l-0.2-0.2l34.7,0.1l10.2,0.1h2.8h0.7C355.8,28.2,355.9,28.2,355.9,28.2l-0.1-0.1h-0.7h-2.7l-10.2,0.1l-34.8,0.1
		h-0.2v-0.2c0-2.1,0-4.2,0-6.3v-6.4l0,0l0.2-0.2l48.6,0.1h0.1v0.2c0,4.1-0.1,7.3-0.1,9.5c0,1.1,0,1.9,0,2.5V28
		C356,28.1,356,28.2,355.9,28.2z"/>
	<path class="st1" d="M362.5,15.4c0-0.1,0-0.2,0-0.2c0-0.2,0-0.4,0-0.7c0-0.6,0-1.5,0-2.6c0-2.3-0.1-5.4-0.1-9.4l0.2,0.2l-29.2,0.1
		l0.2-0.2l0,0v6.6c0,2.2,0,4.2,0,6.2l-0.2-0.2l20.9,0.1l6.1,0.1h1.6L362.5,15.4c-0.1-0.1-0.3-0.1-0.4-0.1h-1.6l-6,0.1l-21.1,0.1
		h-0.2v-0.2c0-2,0-4.1,0-6.2V2.5l0,0c-0.1,0,0.5-0.5,0.2-0.2l29.2,0.1h0.2v0.2c0,4-0.1,7.2-0.1,9.5c0,1.1,0,1.9,0,2.5
		S362.5,15.4,362.5,15.4z"/>
	<path class="st1" d="M48.9,335.1c0-0.1,0-0.2,0-0.2c0-0.2,0-0.4,0-0.7c0-0.6,0-1.5,0-2.5c0-2.2,0-5.4-0.1-9.5l0.2,0.1l-48.7,0.1
		l0.2-0.2l0,0v6.5c0,2.1,0,4.3,0,6.3l-0.2-0.2L35,335l10.2,0.1H48h0.7L48.9,335.1c0.1-0.1,0-0.1-0.1-0.1h-0.7h-2.7l-10.2,0.1
		l-34.8,0.1H0.1v-0.1c0-2.1,0-4.2,0-6.3v-6.5l0,0c0.5-0.5,0.1-0.1,0.2-0.2l48.7,0.1h0.2v0.1c0,4.1-0.1,7.3-0.1,9.5
		c0,1.1,0,1.9,0,2.5v0.6C48.9,335.1,48.9,335.1,48.9,335.1z"/>
	<path class="st1" d="M55.5,322.3c0-0.1,0-0.2,0-0.2c0-0.2,0-0.4,0-0.7c0-0.6,0-1.5,0-2.6c0-2.3-0.1-5.5-0.1-9.4l0.2,0.2l-29.2,0.1
		c-0.2,0.2,0.3-0.3,0.2-0.2l0,0v6.6c0,2.2,0,4.2,0,6.2l-0.2-0.2l20.9,0.1l6.1,0.1H55L55.5,322.3c-0.1,0-0.3,0-0.4-0.1h-1.6l-6,0.1
		l-21.1,0.1h-0.2v-0.2c0-2,0-4.1,0-6.2v-6.6l0,0l0.2-0.2l29.1,0.2h0.2v0.2c0,4-0.1,7.2-0.1,9.5c0,1.1,0,1.9,0,2.5
		C55.6,322,55.5,322.3,55.5,322.3z"/>
	<path class="st1" d="M202.1,229.3c0-0.1,0-0.2,0-0.2v-0.7c0-0.6,0-1.5,0-2.5c0-2.2-0.1-5.4-0.1-9.4l0.1,0.1l-48.6,0.1
		c0.1-0.1-0.2,0.2,0.2-0.2l0,0v12.8l-0.2-0.2l34.7,0.1l10.2,0.1h2.8h0.7L202.1,229.3l-0.2-0.1h-0.7h-2.7l-10.2,0.1l-34.8,0.1h-0.2
		v-13.1l0,0l0.2-0.2l48.6,0.1h0.1v0.1c0,4.1-0.1,7.3-0.1,9.5c0,1.1,0,1.9,0,2.5v0.6C202.2,229.1,202.2,229.2,202.1,229.3z"/>
	<path class="st1" d="M208.7,216.4c0-0.1,0-0.2,0-0.2c0-0.2,0-0.4,0-0.7l-0.1-2.6c0-2.2,0-5.4-0.1-9.4l0.2,0.2l-29.2,0.1l0.2-0.2
		l0,0v6.6c0,2.1,0,4.2,0,6.2l-0.2-0.2l20.9,0.1l6.1,0.1h1.6L208.7,216.4c-0.1-0.1-0.3-0.1-0.5-0.1h-1.6l-6,0.1l-21.1,0.1h-0.2v-0.2
		c0-2,0-4.1,0-6.2v-6.6l0,0c0,0.1,0.5-0.5,0.2-0.2l29.2,0.1h0.2v0.2c0,4-0.1,7.2-0.1,9.5c0,1.1,0,1.9-0.1,2.5
		C208.8,216.1,208.7,216.4,208.7,216.4z"/>
</g>
<g id="Floor">
	<path class="st4" d="M19.2,439h636.7"/>
	<path class="st5" d="M655.9,439c0,0.1-142.5,0.3-318.3,0.3S19.2,439.1,19.2,439s142.5-0.3,318.4-0.3S655.9,438.9,655.9,439z"/>
</g>
<g id="Characters">
	<path class="st6" d="M22,383.7L4,408.1l30.3,22.5c2-3-9.4-20.5-9.4-20.5L37,395L22,383.7z"/>
	<path class="st4" d="M16.5,401.9c-0.7-0.3-1.6,0.1-1.9,0.8c-0.3,0.7,0,1.6,0.8,1.9c0.8,0.3,1.6-0.1,2-0.8c0.2-0.8-0.2-1.6-1-1.9"/>
	<path class="st5" d="M4,408.2l1.9-2.6l28.3,22.8c0,0,0.9,1.6,0,2.4L4,408.2z"/>
	<path class="st5" d="M25.5,410.4c-0.1,0.2-0.9-0.3-2-0.4s-1.9,0.3-2,0.1c-0.1-0.2,0.8-0.9,2.1-0.8
		C24.9,409.4,25.6,410.3,25.5,410.4z"/>
	<path class="st5" d="M27.7,414c-0.1,0.2-0.9-0.1-1.9,0.2s-1.6,0.8-1.8,0.7s0.4-1,1.6-1.3S27.8,413.9,27.7,414z"/>
	<path class="st5" d="M26.7,419.2c-0.2-0.1,0.2-1,1.2-1.5s1.9-0.3,1.9-0.2s-0.8,0.3-1.6,0.7S26.8,419.3,26.7,419.2z"/>
	<path class="st5" d="M27.9,406.6c-0.2,0.1-0.7-0.6-1.6-1.2s-1.7-0.8-1.7-1c0-0.2,1-0.2,2.1,0.4S28,406.5,27.9,406.6z"/>
	<path class="st5" d="M95.1,281.6c0.5,3.1,1.4,29.1,1.9,42.8c0.6,13.7-0.8,20.5-2.4,23.6c-1.6,3.1-60.8,46.7-65.3,57.2l-15-12.1
		c0,0,22-39.5,31.4-46.7c9.4-7.2,27.4-13.8,27.4-13.8l-5.1-75.2l24.6-1.3L95.1,281.6z"/>
	<path class="st6" d="M40.1,407.8l-0.3,30.3l37.7,0.5C77.4,435,58,427.5,58,427.5l1-19.4L40.1,407.8z"/>
	<path class="st4" d="M46.3,425.8c-0.8,0.2-1.2,1-1.1,1.7c0.2,0.8,0.9,1.2,1.7,1.1c0.8-0.2,1.3-1,1.1-1.8c-0.3-0.8-1.1-1.2-1.9-0.9"
		/>
	<path class="st5" d="M39.8,438.2V435l36.2,1.9c0,0,1.7,0.8,1.4,2L39.8,438.2z"/>
	<path class="st5" d="M58.5,427.4c0,0.2-0.9,0.3-1.8,0.8c-0.9,0.6-1.4,1.3-1.6,1.3s0.1-1.1,1.2-1.8S58.6,427.2,58.5,427.4z"/>
	<path class="st5" d="M62.5,429.1c0,0.2-0.8,0.5-1.4,1.2c-0.6,0.8-0.8,1.6-1,1.6s-0.3-1,0.5-2S62.5,428.9,62.5,429.1z"/>
	<path class="st5" d="M64.7,433.8c-0.2,0-0.4-0.9,0.1-1.9s1.4-1.4,1.4-1.2s-0.5,0.7-0.8,1.5C65,433.1,64.9,433.8,64.7,433.8z"/>
	<path class="st5" d="M58.3,422.9c-0.1,0.2-0.9-0.1-2,0c-1.1,0.1-1.9,0.4-2,0.2c-0.1-0.2,0.7-0.8,1.9-0.9
		C57.4,422.2,58.4,422.8,58.3,422.9z"/>
	<path class="st5" d="M97.8,252.9c0,1.8,2.9,46.6-11.8,79c0,0-5.1,10.1-6,14.6s-19.9,77.9-19.9,77.9l-21.9-0.8c0,0-3.5-36.8,0-58.1
		s10-18.8,10-32.6S45,290.6,45,290.6s-4.8-7.8-6.4-22.9c-1.3-12.3,4.4-25.4,4.4-25.4l5.7-10.1l48.3-2.5L97.8,252.9z"/>
	<path class="st6" d="M97.8,252.9c0,0,0-0.5,0-1.5s-0.1-2.5-0.1-4.5c-0.1-4-0.2-9.8-0.4-17.3v-0.1h-0.1L48.9,232h-0.1l-0.1,0.1
		c-1.8,3.1-3.7,6.6-5.7,10.1l0,0c-1.5,3.6-2.6,7.3-3.5,11.1c-0.9,4-1.3,8.1-1.2,12.2c0.3,4.3,1,8.5,2,12.7c1,4.4,2.5,8.6,4.6,12.6
		v-0.1c0.8,7.5,1.6,15.2,2.2,23.1c0.3,4,0.6,8,0.8,12.1c0.1,2,0.2,4.1,0.2,6.2c0,1,0,2.1-0.1,3.1c-0.1,1-0.2,2.1-0.4,3.1
		c-0.4,2.1-1.1,4-2.2,5.9c-1,1.9-2,3.7-3,5.7c-1.8,4-3.1,8.1-3.9,12.4c-1.7,8.6-2.1,17.5-2.2,26.5c0,11.9,0.6,23.6,1.5,34.9v0.2h0.2
		l21.9,0.8h0.2l0.1-0.2c6.3-24.6,12.3-47.6,17.5-68.3l1.9-7.6c0.3-1.3,0.5-2.5,0.9-3.7s0.8-2.4,1.3-3.5c0.9-2.3,2-4.6,3-6.8l0.8-1.6
		c0.3-0.5,0.5-1.1,0.7-1.6c0.4-1.1,0.9-2.2,1.3-3.3c3.1-8.1,5.4-16.4,6.9-24.9c2.1-12.1,3.2-24.4,3.3-36.7
		C98.2,257.6,97.8,252.9,97.8,252.9c0,0,0,0.3,0,0.8s0,1.4,0.1,2.6c0.1,2.2,0.1,5.6,0,9.9c-0.1,12.3-1.2,24.6-3.3,36.7
		c-1.5,8.5-3.9,16.8-7,24.8l-1.3,3.3c-0.2,0.6-0.5,1.1-0.7,1.6c-0.3,0.5-0.5,1.1-0.8,1.6c-1,2.2-2.1,4.4-3,6.8
		c-0.5,1.2-0.9,2.4-1.3,3.6c-0.4,1.2-0.6,2.5-0.9,3.8c-0.6,2.5-1.3,5.1-1.9,7.7c-5.3,20.7-11.2,43.7-17.6,68.3l0.3-0.2l-21.9-0.8
		l0.3,0.2c-1-11.3-1.6-22.9-1.5-34.8c0.1-9,0.4-17.9,2.2-26.4c0.8-4.2,2.1-8.4,3.9-12.3c0.9-1.9,2-3.8,3-5.7c1-1.9,1.7-3.9,2.1-6
		c0.2-1,0.3-2.1,0.4-3.1c0-1,0.1-2.1,0.1-3.1c0-2.1-0.1-4.2-0.2-6.2c-0.2-4.1-0.5-8.1-0.8-12.1c-0.7-8-1.4-15.7-2.3-23.2l0,0v-0.1
		c-2.1-3.9-3.6-8.1-4.7-12.4c-1-4.1-1.7-8.4-2-12.6c-0.1-4.1,0.3-8.1,1.2-12.1c0.8-3.8,1.9-7.4,3.4-11l0,0l5.7-10.1l-0.2,0.1
		l48.3-2.6l-0.1-0.1c0.2,7.5,0.4,13.3,0.5,17.3c0.1,2,0.1,3.5,0.2,4.5S97.8,252.9,97.8,252.9z"/>
	<path class="st6" d="M82.1,161.2c0,0-13-2.3-11.8,14.4c0.8,10,3.7,27.2,5.3,38.1c0.6,3.8,1.8,10.6,6.8,14.6l35.9,24.8l11.3-13.5
		L97.7,209l-5-30.2L82.1,161.2z"/>
	<path class="st5" d="M83.7,100.9c4.2,3.4,6.5,8.6,6.1,13.9c-0.2,2.6-0.9,5.5,0.8,7.4s4.9,1.9,6.4,3.9c1.9,2.3,0.3,5.8,1,8.7
		c0.7,2.8,3.4,4.7,6.3,4.4c-3.3,2.7-7.2,4.4-11.4,5l-3.3-4.1c1.2,1.4,0.9,3.7-0.3,5.2c-1.3,1.4-2.9,2.3-4.7,2.8
		c-8.7,2.7-18.2,1.1-25.7-4.2"/>
	<path class="st5" d="M35.6,123.4c0.6-2,1.7-3.8,2.2-5.8c0.9-4.3-1.2-9.2,0.9-13.1c1.5-2.8,4.7-4.1,7.7-5.1s6.2-1.7,8.5-3.9
		c1.6-1.6,2.6-3.9,4.2-5.5c2.3-2.3,5.8-3.1,9.1-3.3c3.4-0.3,6.8,0.2,9.9,1.6c3.1,1.4,5.4,4.3,6.1,7.6c0.3,1.6,0.1,3.3,0.6,4.9
		c0.6,1.7,1.9,3.1,2.8,4.7c1.7,3.6,0.8,7.8-2.2,10.4l-23.2,29.9c-4.9,1.8-16.7-0.4-20.4-4S34,128.4,35.6,123.4z"/>
	<path class="st7" d="M84.7,112.2c-1-6.8-6.1-14.8-12.9-13.6l-20.8,7c-2,0.4-0.6,3.7-0.4,5.8l4.5,47c0,0-2.8,2-3.8,1.6
		c-0.2-0.1-0.3,0-0.4,0.2c0,0.1,0,0.2,0,0.3c2.5,3.7,14.3,19.5,26.5,14.7c2.7-1.1-0.3-9.7,0-12.8l-0.4-8.1c-0.3-4.1-0.4-5.8-0.4-5.8
		s8.6-2.1,9.6-13.6C86.8,129,85.8,119.8,84.7,112.2z"/>
	<path class="st5" d="M83.3,122.7c0.1,0.8-0.5,1.5-1.3,1.6c-0.8,0.1-1.5-0.4-1.6-1.2c0,0,0,0,0,0c-0.1-0.8,0.5-1.5,1.3-1.6
		C82.4,121.3,83.2,121.9,83.3,122.7C83.3,122.6,83.3,122.6,83.3,122.7z"/>
	<path class="st5" d="M69.1,123.6c0.1,0.8-0.5,1.5-1.3,1.6c-0.8,0.1-1.5-0.4-1.6-1.2c0,0,0,0,0,0c-0.1-0.8,0.5-1.5,1.3-1.6
		C68.2,122.2,69,122.7,69.1,123.6C69.1,123.5,69.1,123.5,69.1,123.6z"/>
	<path class="st5" d="M83.8,117.8c-0.2,0.3-1.5-0.6-3.2-0.3s-2.8,1.4-3,1.2s0-0.6,0.5-1.1c1.3-1.4,3.4-1.7,5-0.7
		C83.6,117.3,83.9,117.7,83.8,117.8z"/>
	<path class="st5" d="M68.5,119.1c-0.2,0.2-1.5-0.7-3.4-0.6s-3.1,1.1-3.3,0.9s0.1-0.5,0.7-1c0.7-0.6,1.7-1,2.7-1
		c1,0,1.9,0.2,2.7,0.8C68.4,118.6,68.6,119,68.5,119.1z"/>
	<path class="st5" d="M74.3,129.9c0.8-0.3,1.7-0.6,2.5-0.7c0.4-0.1,0.8-0.2,0.8-0.5c0-0.4-0.1-0.8-0.4-1.2c-0.4-0.9-0.9-1.9-1.4-3
		c-2-4.2-3.4-7.7-3.3-7.8s1.9,3.3,3.9,7.5c0.5,1.1,0.9,2,1.4,3c0.3,0.5,0.4,1,0.3,1.6c-0.1,0.3-0.3,0.5-0.6,0.6
		c-0.2,0.1-0.4,0.1-0.7,0.1C76,129.8,75.1,129.9,74.3,129.9z"/>
	<path class="st8" d="M76.8,148.4c-5.4,0.5-10.7-0.5-15.6-2.9c0,0,4.4,7.7,15.8,5.8L76.8,148.4z"/>
	<path class="st8" d="M69.5,134.5c0.2-0.4,0.5-0.7,0.8-1c0.4-0.2,0.9-0.2,1.4-0.1c0.7,0.1,1.3,0.4,1.8,0.9c0.5,0.5,0.7,1.2,0.4,1.9
		l0,0c-0.2,0.7-1.2,1-1.8,1.1c-0.7,0.1-1.4,0-2-0.4c-0.5-0.2-0.9-0.7-1-1.3C69.1,135.1,69.2,134.8,69.5,134.5z"/>
	<path class="st5" d="M69.8,132.2c0.2,0,0.4,1.7,1.9,2.8s3.3,0.8,3.4,1s-0.4,0.4-1.1,0.4c-1,0.1-2-0.2-2.8-0.8
		c-0.8-0.5-1.3-1.4-1.5-2.3C69.5,132.7,69.7,132.2,69.8,132.2z"/>
	<path class="st5" d="M68.4,113c-0.1,0.4-1.7,0.4-3.5,0.7s-3.3,1-3.6,0.6c-0.1-0.2,0.1-0.6,0.7-1.1c1.5-1.2,3.5-1.5,5.4-1
		C68.1,112.4,68.5,112.8,68.4,113z"/>
	<path class="st5" d="M82.8,112.1c-0.3,0.4-1.6,0.1-3,0.2s-2.7,0.4-3.1,0.1c-0.1-0.2,0-0.6,0.6-0.9c0.7-0.5,1.6-0.7,2.4-0.8
		c0.9-0.1,1.7,0.1,2.5,0.5C82.8,111.6,83,111.9,82.8,112.1z"/>
	<path class="st5" d="M46.4,107.2c1-1.6,2.9-2.4,4.7-3.1c7.8-3,15.9-5.1,24.1-6.2c1,1.7,0.1,4-1.5,5.2s-3.6,1.7-5.4,2.4
		s-3.8,1.8-4.5,3.6s-0.1,4.2-0.8,6.2c-1.2,3.4-6,4.5-7.2,7.9c-0.9,2.6,0.6,5.3,1,8.1c0.7,5.4-3,10.3-8.4,11.1
		c-0.4,0.1-0.8,0.1-1.3,0.1c-0.6-9.8-1.1-19.6-1.7-29.4C45.4,111.2,45.3,109,46.4,107.2z"/>
	<path class="st5" d="M26.7,132c1.6-1.4,3.5-2.6,4.1-4.6c0.9-2.9-1.4-6.3,0.1-8.9c1.4-2.4,5.4-2.3,6.6-4.7c1-1.9-0.2-3.6,0.2-5.3
		s2.8-3.1,4.5-2.9l13.3,19.4c1.2,6.5,2.5,10,1.1,13.8c-0.9,2-1.6,4.1-2.1,6.3c-0.3,2.2,0.3,4.7,2.1,6c-8,0.6-15.5-3.6-22.4-7.6
		l-7.3-4.3c-0.8-0.4-1.5-1-2-1.7C23.9,135.6,25.2,133.4,26.7,132z"/>
	<path class="st6" d="M34.1,141.4c0.3,0.1,0.6,0.1,0.9,0.2c0.8,0.1,1.7,0,2.5-0.2c1.3-0.3,2.5-1,3.5-1.9c1.3-1.2,2.1-2.9,2.3-4.7
		c0.1-1,0-2.1-0.3-3.1c-0.4-1.1-0.9-2.1-1.5-3c-0.7-0.9-1.2-2-1.5-3.1c-0.4-1.1-0.2-2.4,0.4-3.4c0.7-1,2.1-1.2,3.3-1.7
		c0.7-0.2,1.3-0.7,1.7-1.3c0.4-0.6,0.6-1.4,0.6-2.1c-0.2-1.4-0.5-2.8-0.9-4.2c-0.2-0.7-0.2-1.3,0-2c0.2-0.7,0.6-1.2,1.2-1.6
		c1.2-0.7,2.6-1.1,4-1.1c1.5,0,2.9-0.5,4.1-1.2c1.2-0.7,2.2-1.8,2.9-3.1c0.5-1.2,0.9-2.5,1-3.8c0.1-1.2,0.4-2.4,0.8-3.6
		c0.4-1.1,1.1-2,1.9-2.8c1.5-1.4,3.5-2.3,5.5-2.5c1.7-0.1,3.5,0.2,5,1c1.2,0.6,2.2,1.4,3.1,2.3c0.7,0.8,1.4,1.8,1.9,2.7
		c0,0,0-0.1-0.1-0.2c-0.1-0.2-0.2-0.4-0.3-0.6c-0.4-0.7-0.8-1.4-1.4-2c-0.9-1-1.9-1.8-3.1-2.4c-1.6-0.9-3.3-1.2-5.1-1.1
		c-2.2,0.2-4.2,1.1-5.8,2.5c-0.9,0.8-1.6,1.9-2,3c-0.4,1.2-0.7,2.4-0.8,3.7c-0.1,1.3-0.5,2.5-1,3.7c-0.6,1.2-1.5,2.2-2.7,2.9
		c-1.2,0.7-2.5,1.1-3.9,1.1c-1.5,0-3,0.4-4.3,1.2c-0.6,0.4-1.1,1.1-1.3,1.9c-0.2,0.7-0.2,1.5,0,2.2c0.4,1.3,0.7,2.7,0.9,4.1
		c0,0.6-0.1,1.3-0.5,1.8c-0.4,0.5-0.9,0.9-1.5,1.1c-0.6,0.2-1.2,0.4-1.8,0.7c-0.6,0.2-1.2,0.7-1.7,1.2c-0.7,1.1-0.9,2.5-0.5,3.8
		c0.4,1.1,0.9,2.2,1.6,3.2c0.6,0.9,1.1,1.8,1.5,2.9c0.3,0.9,0.4,1.9,0.3,2.9c-0.2,1.7-0.9,3.3-2.1,4.5c-0.9,0.9-2.1,1.6-3.3,1.9
		C36.3,141.5,35.2,141.6,34.1,141.4z"/>
	<path class="st5" d="M23.4,127.6c-0.1,0.2-0.2,0.4-0.3,0.6c-0.1,0.7,0,1.4,0.3,2c0.2,0.4,0.6,0.8,1,1.1c0.5,0.3,1.1,0.5,1.7,0.5
		c1.5,0,2.8-0.9,3.5-2.2c0.4-0.8,0.6-1.6,0.6-2.4c0-0.9-0.2-1.8-0.6-2.6c-0.6-1.7-1.8-3.4-1.8-5.4c-0.1-1,0.3-2,0.9-2.8
		c0.8-0.7,1.9-1,2.9-0.9c1.2,0.1,2.3,0,3.5-0.4c0.6-0.2,1.1-0.7,1.4-1.2c0.3-0.5,0.5-1.1,0.6-1.8c0.1-1.2,0-2.4-0.3-3.6
		c-0.2-1.1-0.1-2.2,0.2-3.3c0.6-2,1.9-3.8,3.7-4.9c1.7-0.9,3.6-1.3,5.6-1.3c1.7,0,3.4-0.3,5.1-0.8c1.3-0.5,2.5-1.2,3.6-2.2
		c0.8-0.7,1.5-1.6,2-2.5c0.5-0.8,0.8-1.6,0.9-2.5c-0.3,0.8-0.7,1.7-1.1,2.4c-1.3,2.1-3.2,3.7-5.5,4.6c-1.6,0.5-3.3,0.7-5,0.7
		c-2-0.1-4,0.4-5.7,1.3c-1.9,1.1-3.3,2.9-3.9,5.1c-0.3,1.1-0.4,2.3-0.2,3.5c0.2,1.1,0.3,2.3,0.3,3.4c0,1.1-0.7,2.1-1.7,2.6
		c-1.1,0.3-2.2,0.4-3.3,0.3c-1.2-0.1-2.3,0.3-3.2,1c-0.7,0.8-1.1,2-1,3.1c0,1,0.3,2.1,0.7,3c0.4,0.9,0.8,1.7,1.2,2.6
		c0.3,0.8,0.5,1.6,0.6,2.5c0,0.8-0.2,1.6-0.5,2.3c-0.6,1.2-1.8,2.1-3.2,2.1c-0.6,0-1.1-0.1-1.6-0.4c-0.4-0.2-0.8-0.6-1-1
		c-0.4-0.6-0.5-1.2-0.4-1.9C23.3,127.9,23.4,127.7,23.4,127.6z"/>
	<path class="st5" d="M107.6,132.4c0.2,0.7,0.2,1.4,0,2.1c-0.3,0.8-0.9,1.4-1.7,1.7c-1,0.3-2.2,0-2.9-0.8c-0.4-0.5-0.7-1.1-0.7-1.7
		c0-0.7,0.1-1.4,0.3-2c0.4-1.4,1.3-2.8,1.2-4.6c-0.1-1.8-1-3.5-2.4-4.6c-0.7-0.6-1.6-1-2.5-1.3c-0.9-0.3-1.9-0.4-2.8-0.4
		c-0.9,0-1.9-0.1-2.8-0.3c-0.9-0.2-1.6-0.6-2.1-1.3c-0.5-0.7-0.7-1.5-0.8-2.4c0-0.8,0-1.7,0.2-2.5c0.4-1.5,0.7-3.1,0.7-4.7
		c-0.1-1.4-0.6-2.8-1.4-3.9c-0.7-0.9-1.6-1.6-2.6-2.2c-0.7-0.4-1.4-0.9-2.1-1.4c-0.5-0.5-1-1-1.3-1.7c0,0,0,0,0,0.1
		c0,0.1,0.1,0.3,0.2,0.4c0.2,0.5,0.6,0.9,1,1.3c0.6,0.6,1.3,1.1,2.1,1.5c1,0.6,1.8,1.3,2.5,2.2c0.8,1.1,1.2,2.4,1.3,3.7
		c-0.1,1.5-0.3,3.1-0.8,4.6c-0.2,0.8-0.3,1.7-0.2,2.6c0,0.9,0.3,1.8,0.9,2.6c0.6,0.8,1.4,1.3,2.4,1.5c0.9,0.2,1.9,0.3,2.9,0.3
		c0.9,0,1.8,0.1,2.7,0.4c0.8,0.3,1.6,0.7,2.3,1.2c1.3,1,2.2,2.6,2.3,4.3c0.1,1.6-0.7,3-1.1,4.4c-0.2,0.7-0.3,1.4-0.3,2.2
		c0,0.7,0.3,1.4,0.8,1.9c0.8,0.9,2.1,1.2,3.3,0.8c0.8-0.3,1.5-1,1.7-1.9c0.2-0.5,0.2-1.1,0.1-1.6
		C107.8,132.8,107.7,132.6,107.6,132.4z"/>
	<path class="st6" d="M98.1,210.8v-11.1c1.2-6.2,0.6-13.6-2.2-19.2c-2.1-3.7-4.4-7.2-6.9-10.6l-11-14.3c-6.1,4.4-15.6,1.2-23.7-1.7
		c0,0-8,4.4-11.8,8.6c-3.9,4.4,9.5,59.4,9.5,59.4c-6.1,12.2-13.9,23-15.1,34.1l63.6,2.5l-2.7-29.2L98.1,210.8z"/>
	<path class="st5" d="M97.2,229.7c-0.1-0.4-0.1-0.8-0.1-1.2c0-0.9,0-2,0-3.4c0.1-3,0.1-6.9,0.2-11.2s0.2-8.3,0.3-11.2
		c0.1-1.4,0.1-2.6,0.2-3.4c0-0.4,0.1-0.8,0.2-1.2c0,0.4,0,0.8,0,1.2c0,0.9,0,2,0,3.4c-0.1,3-0.1,6.9-0.2,11.2s-0.2,8.3-0.3,11.2
		c-0.1,1.4-0.1,2.6-0.2,3.4C97.3,228.8,97.3,229.2,97.2,229.7z"/>
	<path class="st7" d="M126.2,239.7c0,0,6.2,0.3,10,2.7c3.8,2.4,10,6.1,12.6,10.8c1.2,2.1-2.2,2.6-3.8,1.4s-4.2-3.6-5.4-3.9l-1.2-0.3
		c1.1,2.6,2.4,5.1,3.8,7.6c1.3,2,2.4,5.3-1.5,5.5c0,0-2.6,3.4-5.2,0.9c0,0-2.1,3.1-5.4-1.2c0,0-1.9,2.5-2.7,1.5
		c-0.8-0.9-3.4-2.4-4.2-5.5c-1.2-3.6-2.5-7.1-4-10.5L126.2,239.7z"/>
	<path class="st7" d="M265.1,153.8c0.7,0,29.1-3,29.1-3s2.4-11.5,2.3-14.5s-2.1-22.9-2.1-22.9l10.6-5c0,0,14.2,47.9,11.1,51.9
		s-8.9,7.6-9.4,7.6s-27.5,12-46.3,5.8S265.1,153.8,265.1,153.8z"/>
	<path class="st6" d="M240.2,179.6c4.2,4.1,11.4,7.6,23.4,4.6c23.8-5.9,41.6-11,48.6-14.8s4.3-20.8,4.9-21.6
		c1.8-2.3-0.2-7.3-2.7-8.1c-7.3-2.2-19.9-1.3-20.6-0.7c-3.7,3.9-0.3,8.7-0.3,8.7l-31.3,4.1c-3.9-0.2-7.7,0.1-11.5,0.7"/>
	<path class="st5" d="M250.7,152.7l0.8-0.2c0.5-0.1,1.2-0.2,2.2-0.3c2.8-0.4,5.7-0.5,8.5-0.4l0,0l31.3-4.2l-0.1,0.4
		c-1-1.5-1.5-3.3-1.4-5.1c0.1-0.9,0.4-1.9,0.9-2.7c0.3-0.4,0.5-0.8,0.9-1.1c0.1-0.1,0.3-0.2,0.4-0.2l0.4-0.1
		c0.2-0.1,0.5-0.1,0.7-0.1c3.9-0.4,7.8-0.5,11.7-0.2c2,0.1,4.1,0.4,6.1,0.8c0.5,0.1,1,0.3,1.5,0.4c0.5,0.2,1,0.5,1.4,0.8
		c0.8,0.8,1.4,1.7,1.8,2.7c0.4,1,0.5,2.1,0.4,3.2c-0.1,0.6-0.3,1.1-0.6,1.6c-0.1,0.1-0.1,0.4-0.1,0.6v0.8c0.1,2.1,0.2,4.3,0.1,6.5
		c0,3.1-0.5,6.2-1.5,9.2c-0.5,1.5-1.4,2.8-2.6,3.8c-0.6,0.5-1.3,0.9-2,1.2c-0.7,0.4-1.4,0.6-2,0.9c-2.7,1.2-5.5,2.1-8.2,3
		s-5.4,1.7-8,2.5c-10.5,3-20,5.4-27.9,7.4c-1.9,0.5-3.8,0.9-5.8,1.2c-1.7,0.2-3.5,0.3-5.2,0.3c-2.8-0.1-5.6-0.7-8.2-1.8
		c-1.6-0.7-3.1-1.7-4.5-2.8c-0.5-0.4-0.9-0.8-1.3-1.3c0,0,0.5,0.4,1.4,1.2c1.4,1.1,2.9,2,4.5,2.7c2.6,1.1,5.3,1.6,8.1,1.7
		c1.7,0,3.5-0.1,5.2-0.3c1.9-0.3,3.8-0.7,5.7-1.2c8-2,17.5-4.5,27.9-7.5c2.6-0.8,5.3-1.6,8-2.5s5.4-1.9,8.1-3c0.7-0.3,1.4-0.6,2-0.9
		c0.7-0.3,1.3-0.7,1.9-1.1c1.1-1,2-2.2,2.5-3.6c1-2.9,1.5-6,1.5-9.1c0.1-2.2,0-4.4-0.1-6.5v-0.8c0-0.1,0-0.3,0-0.4
		c0-0.1,0-0.2,0-0.2c0-0.1,0-0.1,0.1-0.2l0-0.1c0.3-0.4,0.5-0.9,0.5-1.4c0.1-1,0-2-0.4-3c-0.3-1-0.9-1.8-1.6-2.5
		c-0.4-0.3-0.8-0.6-1.2-0.7c-0.5-0.1-1-0.3-1.5-0.4c-2-0.4-4-0.7-6-0.8c-3.9-0.3-7.7-0.2-11.6,0.2c-0.2,0-0.5,0.1-0.7,0.1l-0.3,0.1
		c-0.1,0-0.1,0.1-0.2,0.1c-0.3,0.3-0.6,0.7-0.8,1.1c-0.5,0.7-0.8,1.6-0.8,2.4c-0.1,1.7,0.4,3.4,1.3,4.9l0.2,0.3h-0.4l-31.3,4l0,0
		c-2.8-0.1-5.7-0.1-8.5,0.2c-1,0.1-1.7,0.2-2.2,0.3S250.7,152.7,250.7,152.7z"/>
	<path class="st9" d="M165.9,185.2l-12.8-22.9l0,0L394.5,28c5.8-3.2,13.1-1.1,16.3,4.6l1.1,2c3.2,5.8,1.1,13.1-4.6,16.3L165.9,185.2
		L165.9,185.2L165.9,185.2z"/>
	<path class="st10" d="M368.3,64l-29.6-53.1c-0.6-1.1-0.2-2.4,0.9-3l13.6-7.5c1.1-0.6,2.4-0.2,3,0.9l29.6,53.1l0,0
		C385.7,54.2,368.3,64,368.3,64z"/>
	<path class="st9" d="M331.6,77.9l-21.5-38.7c-0.9-1.6-0.3-3.5,1.3-4.4l11.8-6.6c1.6-0.9,3.5-0.3,4.4,1.3l21.5,38.7
		c0.9,1.6,0.3,3.5-1.3,4.4L336,79.2C334.5,80.1,332.5,79.5,331.6,77.9z"/>
	
		<rect x="333.8" y="27.7" transform="matrix(0.8738 -0.4863 0.4863 0.8738 23.9593 175.1376)" class="st9" width="31.1" height="27.4"/>
	<path class="st5" d="M390.9,30c0.1,0.1-47.3,26.6-105.8,59.2s-106,58.9-106,58.7s47.3-26.6,105.8-59.2S390.9,29.8,390.9,30z"/>
	<path class="st11" d="M68.1,229.5c17.8,32,55.3,45,83.8,29.1c28.5-15.8,37.2-54.6,19.4-86.6c-17.8-32-55.3-45-83.8-29.1
		S50.3,197.6,68.1,229.5z M155.9,180.7c12.5,22.4,6.4,49.6-13.6,60.7s-46.3,2-58.7-20.4s-6.4-49.6,13.6-60.7
		S143.4,158.3,155.9,180.7z"/>
	<path class="st12" d="M206.9,163.1l-13.2-23.7c-1.8-3.1-0.6-7.1,2.5-8.9l1.1-0.6c3.1-1.8,7.1-0.6,8.9,2.5l13.2,23.7
		c1.8,3.1,0.6,7.1-2.5,8.9l-1.1,0.6C212.6,167.3,208.6,166.2,206.9,163.1z"/>
	<path class="st9" d="M232.2,149L219,125.3c-1.8-3.1-0.6-7.1,2.5-8.9l1.1-0.6c3.1-1.8,7.1-0.6,8.9,2.5l13.2,23.7
		c1.8,3.1,0.6,7.1-2.5,8.9l-1.1,0.6C237.9,153.3,233.9,152.1,232.2,149z"/>
	<path class="st5" d="M205.9,132.1c0.1-0.1,3.2,5.3,6.8,12c3.6,6.7,6.5,12.2,6.4,12.2s-3.2-5.3-6.8-12
		C208.6,137.6,205.8,132.1,205.9,132.1z"/>
	<path class="st5" d="M194.3,140.4c0.1-0.1,3.1,5.1,6.7,11.4s6.3,11.6,6.2,11.7s-3.1-5.1-6.6-11.4
		C197,145.8,194.2,140.4,194.3,140.4z"/>
	<path class="st5" d="M231.4,118.2c0.1-0.1,3.2,5.3,7,11.9s6.6,12.1,6.5,12.2s-3.2-5.3-6.9-11.9S231.2,118.2,231.4,118.2z"/>
	<path class="st5" d="M219.1,125.6c0.1-0.1,3.2,5.2,6.8,11.9s6.5,12,6.3,12.1s-3.2-5.2-6.8-11.9S219,125.6,219.1,125.6z"/>
	<path class="st5" d="M291.7,89.5c2.6,0.3,4.9-1.5,5.2-4.1c0.3-2.2-1.1-4.4-3.2-5c1.9-1.9,1.9-5.1-0.1-7c-1.1-1.1-2.7-1.6-4.2-1.3
		c-0.1-3.3-2.9-5.8-6.1-5.6c-1,0-1.9,0.3-2.7,0.8c-2.4-1.9-5.7-2-8.1-0.2c-2.6-0.5-5,1.2-5.5,3.7c-0.3,1.6,0.2,3.2,1.3,4.3"/>
	<path class="st7" d="M271.4,71.6h1c10.5,0,19.2,8,20,18.5c0.8,9.7,1.5,20.4,1.4,25.6c-0.2,10.8-10.9,12.4-10.9,12.4l0.9,12.9
		l-26.1-0.9l-2.2-46.9C254.5,82.1,260.2,72.3,271.4,71.6z"/>
	<path class="st8" d="M282.9,128.1c-5,0-9.9-1.5-14.1-4.2c0,0,3.5,8.1,14.2,7.2L282.9,128.1z"/>
	<path class="st5" d="M286.5,100.3c0,0.8-0.7,1.5-1.5,1.5c-0.8,0.1-1.5-0.6-1.6-1.4c0,0,0,0,0,0c0-0.8,0.7-1.5,1.5-1.6
		C285.7,98.8,286.4,99.4,286.5,100.3C286.4,100.2,286.4,100.3,286.5,100.3z"/>
	<path class="st5" d="M290,95.4c-0.2,0.2-1.4-0.7-3-0.7s-2.9,0.8-3,0.6s0.1-0.4,0.6-0.8c0.7-0.5,1.6-0.8,2.4-0.7
		c0.9,0,1.7,0.3,2.4,0.8C290,94.9,290.1,95.3,290,95.4z"/>
	<path class="st5" d="M271.5,99.5c0,0.8-0.7,1.5-1.5,1.6c-0.8,0.1-1.5-0.6-1.6-1.4c0,0,0,0,0,0c0-0.8,0.7-1.5,1.5-1.6
		C270.8,98.1,271.5,98.7,271.5,99.5C271.5,99.5,271.5,99.5,271.5,99.5z"/>
	<path class="st5" d="M273.8,95.7c-0.2,0.2-1.4-0.7-3-0.7s-2.9,0.8-3,0.6s0.1-0.4,0.6-0.8c0.7-0.5,1.6-0.8,2.4-0.7
		c0.9,0,1.7,0.3,2.4,0.8C273.7,95.2,273.9,95.6,273.8,95.7z"/>
	<path class="st5" d="M279.7,107.9c0.9-0.3,1.8-0.4,2.7-0.5c0.4,0,0.8-0.1,0.9-0.4c0-0.4-0.1-0.9-0.3-1.2l-1.2-3.2
		c-1.7-4.6-3-8.4-2.8-8.4s1.7,3.6,3.5,8.2c0.4,1.1,0.8,2.2,1.2,3.2c0.3,0.5,0.3,1.1,0.2,1.7c-0.1,0.3-0.4,0.5-0.7,0.6
		c-0.2,0.1-0.5,0.1-0.7,0.1C281.6,108.1,280.6,108.1,279.7,107.9z"/>
	<path class="st5" d="M275.2,89.3c-0.2,0.4-1.6,0-3.4-0.1s-3.2,0.2-3.4-0.2c-0.1-0.2,0.2-0.6,0.9-0.9c0.8-0.4,1.7-0.6,2.6-0.5
		c0.9,0,1.8,0.3,2.5,0.8C275.1,88.7,275.3,89.1,275.2,89.3z"/>
	<path class="st5" d="M290.1,88.6c-0.4,0.4-1.7,0-3.4,0s-3,0.2-3.4-0.2c-0.1-0.2,0.1-0.6,0.7-0.9c0.8-0.4,1.8-0.7,2.7-0.6
		c0.9,0,1.9,0.3,2.7,0.8C290.1,88,290.3,88.4,290.1,88.6z"/>
	<path class="st5" d="M291.3,85.2c0,0-2.8-6.8-6.1-8.3c-3.9-1.9-5.6,2.4-9.4,1.3s-7.5-2.9-11.3,0c-4.2,3.2-2.2,5.4-2.5,10.2
		c-1.1,19.4-4.7,24.8-5.6,15.7c-0.1-1-2.9-1.8-3.3-6c-0.5-5.5-0.7-12.1,0.5-16c1-3.3,2.9-5.5,6.3-8c5.3-3.9,12.6-4,17.5-3.5
		S291.8,76.8,291.3,85.2z"/>
	<path class="st7" d="M257.1,103.8c0-1.6-1.4-2.9-3-2.8c0,0-0.1,0-0.1,0c-2,0.2-4.2,1.3-4.1,5.5c0.2,7.4,7.6,5.6,7.6,5.4
		S257.2,106.9,257.1,103.8z"/>
	<path class="st8" d="M255.7,109.1c0,0-0.1,0.1-0.3,0.2c-0.3,0.1-0.6,0.2-1,0.1c-1-0.6-1.6-1.7-1.5-2.8c0-0.6,0.1-1.3,0.3-1.8
		c0.1-0.5,0.5-0.8,0.9-1c0.3-0.1,0.6,0,0.8,0.3c0.1,0.2,0.1,0.4,0.1,0.4s0.1-0.1,0.1-0.4c0-0.2-0.1-0.3-0.3-0.4
		c-0.2-0.2-0.5-0.2-0.7-0.2c-0.6,0.1-1.1,0.6-1.3,1.2c-0.3,0.6-0.4,1.4-0.4,2.1c0.1,1.5,0.9,2.9,2,3.1c0.4,0.1,0.8,0,1.2-0.2
		C255.7,109.3,255.7,109.1,255.7,109.1z"/>
	<path class="st5" d="M257.3,89.5c0.9,0.7,2,1.2,3.1,1.4c1.2,0.2,2.3-0.5,2.7-1.7c0.1-0.5,0-1.1,0.3-1.5s1.1-0.3,1.8-0.2
		c2.1,0.2,4.6-2.1,5.2-4.2c0.6,0.8,1.7,1.1,2.6,0.5c0.7-0.4,1.3-0.9,1.8-1.6c0.6-0.8,1.5-1.3,2.5-1.2c0.5,0.2,1.1,0.3,1.6,0.3
		c1-0.1,1.4-1.2,1.6-2.2s0.3-2.1,1.1-2.6c0.8-0.3,1.8-0.4,2.6-0.1c0.9,0.1,2-0.1,2.3-0.9c0.1-0.5,0-0.9-0.3-1.3
		c-1.2-1.8-3.6-2.6-5.6-1.8c-1-3.4-4.6-5.4-8-4.4c-1.7,0.5-3.1,1.6-3.9,3.1c-2.7-2.4-6.8-2.3-9.3,0.4c-0.5,0.6-0.9,1.2-1.2,2
		c-2.5-0.7-5.1,0.8-5.8,3.4c-0.3,1.2-0.2,2.5,0.4,3.5c-1.4,0.7-2.3,2-2.5,3.6c0,1.5,1.5,3,2.9,2.6c-0.7,1.3-0.1,2.9,1.2,3.5
		c1.2,0.6,2.7,0.2,3.4-0.9"/>
	<path class="st6" d="M281,74.6c0,0,0,0,0,0.1s0,0.2,0,0.4c-0.1,0.5-0.3,1-0.5,1.4c-0.4,0.7-1,1.3-1.6,1.7c-0.9,0.6-1.9,0.9-3,0.8
		l0.1-0.2c0.2,0.7,0.2,1.4-0.1,2c-0.3,0.7-0.8,1.3-1.3,1.8c-0.2,0.3-0.5,0.6-0.8,0.8c-1.1,0.7-2.6,0.6-3.5-0.4l0.3-0.1
		c-0.2,1.5-1.1,2.9-2.4,3.8c-0.7,0.5-1.5,0.8-2.4,0.8c-0.8,0-1.6-0.2-2.4-0.5l0.2-0.1c-0.4,0.9-1,1.7-1.8,2.3
		c-0.7,0.6-1.6,0.9-2.6,0.7c-1.6-0.3-2.8-1.6-3.1-3.2l0.2,0.1c-0.8,0.4-1.7,0.5-2.5,0.4c-0.6-0.1-1.2-0.4-1.8-0.8
		c-0.3-0.3-0.6-0.6-0.8-0.9c-0.1-0.1-0.1-0.3-0.2-0.4c0.3,0.5,0.6,0.9,1.1,1.2c0.5,0.4,1.1,0.6,1.7,0.7c0.8,0.2,1.7,0,2.4-0.4
		l0.1-0.1v0.2c0.3,1.5,1.5,2.6,2.9,2.9c0.8,0.1,1.7-0.1,2.3-0.7c0.7-0.6,1.3-1.3,1.6-2.2l0.1-0.1h0.1c0.7,0.3,1.5,0.5,2.3,0.5
		c0.8,0,1.6-0.2,2.2-0.7c1.2-0.8,2-2.1,2.2-3.6v-0.3l0.2,0.3c0.5,0.6,1.3,0.9,2.1,0.8c0.4,0,0.7-0.2,1-0.4c0.3-0.2,0.6-0.5,0.8-0.8
		c0.5-0.5,0.9-1.1,1.2-1.7c0.3-0.6,0.4-1.2,0.2-1.8l-0.1-0.2h0.2c1,0.1,2-0.2,2.9-0.8c0.7-0.4,1.2-1,1.6-1.7
		C280.5,75.9,280.8,75.3,281,74.6z"/>
	<path class="st5" d="M279.7,113.4c-0.1-0.3-1.9,0.2-3.5-1.1s-1.9-3.2-2.2-3.1s-0.2,0.5-0.1,1.3c0.2,1.1,0.9,2,1.7,2.6
		c0.8,0.6,1.9,0.9,2.9,0.8C279.4,113.9,279.8,113.6,279.7,113.4z"/>
	<path class="st6" d="M335.2,393.2l7.1,24.2c0,0,27,0.9,28.7,5.2l-46.5,15.4l-12.6-37.2L335.2,393.2z"/>
	<path class="st1" d="M327.2,420.2c-0.8,0.6-1.1,1.7-0.6,2.6c0.6,0.9,1.7,1.1,2.6,0.6c0.9-0.6,1.1-1.8,0.6-2.8
		c-0.7-0.8-1.9-1-2.8-0.3"/>
	<path class="st5" d="M368.4,420.9c0,0,2.4,0.2,2.6,1.8l-46.5,15.4l-1.1-3.8L368.4,420.9"/>
	<path class="st4" d="M342.9,416.9c0.1,0.2-1,0.7-1.9,1.8c-0.9,1.1-1.1,2.2-1.4,2.2c-0.2,0-0.3-1.4,0.8-2.8S342.9,416.7,342.9,416.9
		z"/>
	<path class="st4" d="M348.5,417.3c0.1,0.2-0.7,0.9-1.2,2.1c-0.5,1.2-0.3,2.3-0.6,2.4s-0.8-1.2-0.2-2.7S348.4,417.1,348.5,417.3z"/>
	<path class="st4" d="M353.2,422.2c-0.2,0.1-0.9-0.9-0.7-2.3s1.1-2.3,1.2-2.1c0.2,0.2-0.3,1-0.4,2.2
		C353.2,421.2,353.4,422.1,353.2,422.2z"/>
	<path class="st4" d="M340.7,411.6c0,0.2-1.2,0.3-2.4,0.8s-2.1,1.2-2.3,1.1c-0.2-0.1,0.5-1.3,2-1.9
		C339.5,411,340.8,411.4,340.7,411.6z"/>
	<path class="st6" d="M226.8,393.4l-10.1,23.1c0,0,20.1,18,18.6,22.5l-45.5-18l14.3-36.6L226.8,393.4z"/>
	<path class="st1" d="M203.4,409c-1-0.1-1.9,0.6-2.1,1.6c-0.1,1,0.6,1.9,1.6,2.1c1.1,0.1,2-0.7,2.2-1.7c0-1-0.9-2.1-1.9-2"/>
	<path class="st5" d="M234.5,436c0,0,1.7,1.7,0.9,3l-45.5-18l1.6-3.6L234.5,436"/>
	<path class="st4" d="M217.5,416.6c-0.1,0.2-1.2-0.1-2.6,0.2c-1.4,0.3-2.3,1-2.5,0.8c-0.2-0.2,0.7-1.3,2.3-1.6
		C216.4,415.6,217.7,416.4,217.5,416.6z"/>
	<path class="st4" d="M221.5,420.5c0,0.2-1.1,0.2-2.3,0.9c-1.1,0.6-1.7,1.5-2,1.5c-0.3-0.1,0.1-1.4,1.5-2.2
		C220.2,419.8,221.6,420.2,221.5,420.5z"/>
	<path class="st4" d="M222,427.2c-0.2,0-0.1-1.3,1-2.2s2.3-1.1,2.3-0.8c0,0.2-0.9,0.6-1.7,1.5S222.2,427.3,222,427.2z"/>
	<path class="st4" d="M219.3,411.1c-0.2,0.2-1.1-0.5-2.4-1c-1.3-0.5-2.4-0.4-2.5-0.6c0-0.2,1.2-0.7,2.7-0.2S219.5,411,219.3,411.1z"
		/>
	<path class="st5" d="M243.9,266.5l-15.9,64.7c0,0-28.8,48.4-33.6,72.6l26.3,10.3c0,0,19.1-46.6,24.7-55.2c2.5-3.8,5.4-7.4,8.7-10.7
		c2.1-2.1,3.6-4.7,4.4-7.6l12.1-46.1L243.9,266.5z"/>
	<path class="st5" d="M237.1,256.2c0,0,2.2,17.3,18.9,25l35.1,57.2c0,0,2.8,18.6,8,34.3s15.9,45.9,15.9,45.9l28.9-10.8l-18.4-62.9
		l-3-21.8l-28.7-73l-24.6-14.8L237.1,256.2z"/>
	<path class="st6" d="M237.1,256.2l0.5-0.4l1.6-1.1l6.2-4.1l23.7-15.6l0.1,0l0.1,0l24.6,14.7l0,0v0.1l28.7,72.9v0
		c1,6.9,2,14.3,3,21.8l0,0c5,17,10.3,35.2,15.8,53.9c0.9,3,1.8,6,2.6,9l0.1,0.2l-0.2,0.1L315,418.7l-0.2,0.1l-0.1-0.2
		c-5-14.5-9.8-28.5-14.4-41.7c-1.1-3.3-2.3-6.6-3.2-9.9c-0.9-3.3-1.8-6.5-2.6-9.8c-1.5-6.4-2.7-12.7-3.7-18.8v0.1l-34.9-57.2l0.1,0
		c-4.2-2-8-4.8-11-8.4c-2.2-2.6-4-5.5-5.4-8.7c-0.8-1.9-1.5-3.9-2-6c-0.2-0.7-0.3-1.2-0.3-1.6C237.1,256.3,237.1,256.2,237.1,256.2
		c0,0,0,0.1,0.1,0.5c0.1,0.4,0.2,0.9,0.4,1.6c0.5,2,1.2,4,2.1,5.9c1.4,3.1,3.2,6,5.4,8.6c3,3.5,6.8,6.3,11,8.3l0,0l0,0l35.2,57.2
		l0,0v0c1,6.1,2.2,12.4,3.7,18.8c0.8,3.2,1.6,6.5,2.6,9.7s2.1,6.5,3.2,9.8c4.6,13.2,9.4,27.2,14.4,41.7l-0.3-0.2l28.9-10.8l-0.2,0.3
		c-0.9-3-1.7-6-2.6-9l-15.8-53.9l0,0c-1-7.5-2.1-14.9-3-21.8v0.1l-28.6-73l0.1,0.1L269,235.3h0.1l-23.7,15.5l-6.3,4.1l-1.6,1
		L237.1,256.2z"/>
	<path class="st6" d="M252.5,132.6c0,0-8.4,6.5-12.5,13.7c-4.9,8.7-5.4,21.5-5.6,41.5c-0.1,18.5,2.6,23.6,1.5,30.6
		c-2.1,13.6-3.6,59.2-3.6,59.2s27-10.4,32.2-15l5.3-4.6l33.8,11.2l-6.8-41.5l-4.7-51.8l-6-27.4l-1-10.8l-29-11.7L252.5,132.6z"/>
	<path class="st5" d="M284.1,137.1c0.4,0.1-0.8,2.4-2.9,5.9l-0.1,0.1l-0.2-0.1c-2.9-1.1-6.8-2.6-11-4.1c-4.8-1.7-9.1-3.4-12.2-4.6
		c-1.5-0.6-2.8-1.2-3.6-1.6c-0.5-0.2-0.9-0.4-1.3-0.6c0.5,0.1,0.9,0.3,1.4,0.5l3.7,1.4l12.2,4.5c4.2,1.6,8.1,3,11,4.2l-0.2,0.1
		C283,139.4,284.3,137.2,284.1,137.1z"/>
	<path class="st7" d="M319,115.6c0,0-2.1-3.3-4.2-6.4s-5.1-4.6-5.6-6.2s-3.2-8.7-3.6-10.5c-0.4-1.7-0.5-3.5-0.5-5.2
		c0,0,2.2-0.9,3.3,2.2c0.6,1.9,2.7,8.3,3.1,8.7c0.4,0.3,1-0.2,1-0.2c-0.9-2.4-1.7-4.9-2.4-7.4c-0.1-1.2,0.3-8.9,0.3-8.9
		c1.1-0.2,2.3,0.4,2.7,1.5c1,2,1.1,7,1.1,7l1.6,5.6l-0.6-5.5l0.8-10.2c1.6,0.2,2.9,1.4,3.2,3c0.7,2.7-0.2,6.6,0.2,7.4
		s0.9,5.7,0.9,5.7s0.5-11.9,1.8-12.2s2.3,0.9,2.1,3.3s-0.2,7.5,0.4,9.7c0.7,2.2,7.4,11,6.9,14.8c-0.3,2.3-0.5,4.7-0.6,7h-11.6
		L319,115.6z"/>
	<path class="st7" d="M278.3,145.5c0.6,0.2,28.4,7.1,28.4,7.1s6.2-10,7.1-12.9s5.8-22.2,5.8-22.2l11.7-1.1c0,0-3,49.9-7.2,52.6
		s-11,4.1-11.4,3.9s-30,1.9-45.5-10.4S278.3,145.5,278.3,145.5z"/>
	<g class="st13">
		<path d="M258.4,171.9c3,3.4,6.9,5.7,11.3,6.7c7.4,1.6,23,4.5,23,4.5l-0.8-7.7l-34-3.6"/>
	</g>
	<path class="st6" d="M246.1,161.4c2.5,5.3,8.1,11,20.4,12.3c24.4,2.5,42.8,3.9,50.8,2.7s11.1-18.1,12-18.6c2.5-1.6,2.3-6.9,0.2-8.5
		c-6.1-4.6-18.3-8-19.1-7.6c-4.9,2.4-3.3,8.1-3.3,8.1l-30.9-6.8c-3.6-1.5-7.3-2.6-11.1-3.2"/>
	<path class="st5" d="M265.2,139.6c0,0,0.3,0,0.8,0.1s1.2,0.2,2.2,0.4c2.8,0.6,5.5,1.5,8.2,2.6l0,0l30.9,6.7l-0.3,0.3
		c-0.5-1.8-0.3-3.6,0.4-5.3c0.4-0.9,1-1.6,1.7-2.2c0.4-0.3,0.8-0.6,1.2-0.8c0.1,0,0.3-0.1,0.5-0.1h0.4c0.2,0,0.5,0.1,0.7,0.1
		c3.8,0.9,7.5,2.2,11.1,3.8c1.9,0.8,3.7,1.8,5.4,2.9c0.4,0.3,0.9,0.6,1.3,0.9c0.4,0.3,0.8,0.8,1.1,1.3c0.5,1,0.7,2.1,0.7,3.2
		c0,1.1-0.2,2.2-0.7,3.2c-0.3,0.5-0.7,1-1.1,1.3c-0.1,0.1-0.2,0.3-0.3,0.6l-0.3,0.8c-0.7,2-1.3,4.1-2.1,6.2c-1,3-2.6,5.7-4.5,8.2
		c-1.4,1.9-3.6,3-6,3.1c-0.8,0.1-1.5,0.1-2.2,0.2c-3,0.2-5.9,0.1-8.7,0.1s-5.6-0.2-8.4-0.4c-10.9-0.7-20.6-1.7-28.8-2.5
		c-2-0.2-3.9-0.5-5.8-0.8c-1.7-0.4-3.4-0.9-5-1.5c-2.6-1-5-2.5-7.1-4.5c-1.3-1.2-2.4-2.6-3.3-4.2c-0.3-0.5-0.6-1.1-0.8-1.6
		c0,0,0.3,0.6,0.9,1.6c0.9,1.5,2,2.9,3.3,4.1c2.1,1.9,4.5,3.4,7.1,4.3c1.6,0.6,3.3,1.1,5,1.5c1.9,0.4,3.9,0.6,5.8,0.8
		c8.2,0.8,17.9,1.8,28.8,2.4c2.7,0.2,5.5,0.3,8.3,0.4s5.8,0.1,8.7-0.1c0.7-0.1,1.5-0.1,2.2-0.2c0.7,0,1.4-0.2,2.1-0.4
		c1.4-0.5,2.6-1.4,3.5-2.6c1.9-2.4,3.4-5.1,4.4-8c0.8-2,1.5-4.1,2.1-6.2l0.3-0.8c0-0.1,0.1-0.2,0.2-0.4c0-0.1,0.1-0.2,0.1-0.2
		c0,0,0.1-0.1,0.1-0.1l0.1-0.1c0.4-0.3,0.8-0.7,1-1.1c0.5-0.9,0.7-2,0.7-3c0-1-0.2-2-0.7-2.9c-0.2-0.4-0.5-0.8-0.9-1.1
		c-0.4-0.3-0.8-0.6-1.3-0.9c-1.7-1.1-3.5-2-5.4-2.8c-3.5-1.6-7.2-2.8-11-3.7c-0.2,0-0.5-0.1-0.7-0.1h-0.3h-0.2
		c-0.4,0.2-0.8,0.5-1.1,0.7c-0.7,0.5-1.3,1.2-1.6,2c-0.7,1.6-0.8,3.3-0.4,5l0.1,0.4l-0.4-0.1l-30.8-6.9l0,0c-2.6-1.1-5.3-2-8.1-2.7
		c-1-0.2-1.7-0.4-2.2-0.5S265.2,139.6,265.2,139.6z"/>
	<path class="st5" d="M317.3,159.3c-0.7-0.2-1.4-0.5-2-0.9c-1.5-0.9-2.9-1.9-4.2-3.1c-1.3-1.2-2.4-2.6-3.3-4.1c-0.4-0.6-0.7-1.3-1-2
		c1.4,2,2.9,3.9,4.6,5.7C313.3,156.5,315.2,158,317.3,159.3z"/>
	<path class="st7" d="M99.8,241.6c0,0,6.2,0.3,10,2.7s10,6.1,12.6,10.8c1.2,2.1-2.2,2.6-3.8,1.3c-1.6-1.2-4.2-3.6-5.4-3.9l-1.2-0.3
		c1.1,2.6,2.4,5.1,3.8,7.6c1.3,2,2.4,5.3-1.5,5.5c0,0-2.6,3.4-5.3,0.9c0,0-2.1,3.1-5.4-1.2c0,0-1.9,2.4-2.7,1.5s-3.4-2.4-4.2-5.5
		c-1.1-3.6-2.5-7.1-4-10.5L99.8,241.6z"/>
	<path class="st6" d="M47,160.1c-3.2,1-5.9,3.1-7.8,5.9c-2.4,3.7-3.1,10-2.4,14.7c1.4,9.9,6,26.7,8.6,37.5c0.9,3.7,2.7,10.4,8,13.9
		l37.9,22.7l10.1-15l-34.5-28.1L60,173.1L47,160.1z"/>
	<path class="st5" d="M40.5,198c0.1,0.1,0.1,0.3,0.1,0.4l0.3,1.2c0.3,1.1,0.7,2.6,1.2,4.5c1,4,2.4,9.7,4.2,16.8
		c1,3.9,3.2,7.3,6.2,9.9c1.7,1.4,3.6,2.6,5.5,3.7l6.1,3.7l27.3,16.5l-0.4,0.1l3.6-5.4l6.5-9.6l0.1,0.4L67,211.8h-0.1v-0.1
		c-2.3-9.5-3.9-17.3-4.9-22.7c-0.5-2.7-0.9-4.8-1.1-6.3c-0.1-0.7-0.2-1.2-0.2-1.6s-0.1-0.6-0.1-0.6c0.1,0.2,0.1,0.4,0.1,0.6
		c0.1,0.4,0.2,0.9,0.3,1.6c0.3,1.4,0.7,3.5,1.2,6.2c1.1,5.4,2.8,13.2,5.1,22.7l-0.1-0.1l34.3,28.1l0.2,0.1l-0.1,0.2l-6.5,9.6
		l-3.6,5.4l-0.1,0.2l-0.2-0.1l-27.2-16.5l-6.1-3.7c-2-1.1-3.8-2.3-5.6-3.7c-3.1-2.6-5.3-6.2-6.3-10.1c-1.7-7.1-3.1-12.8-4-16.8
		c-0.4-2-0.8-3.5-1.1-4.6l-0.3-1.2C40.5,198.3,40.5,198.2,40.5,198z"/>
	<path class="st5" d="M41.1,165.4c0.2-0.2,0.5-0.3,0.8-0.3c0.7-0.2,1.5-0.4,2.2-0.5c2.5-0.4,5.1,0,7.4,1c2.2,1.2,4.1,2.9,5.5,5
		c0.4,0.6,0.8,1.3,1,2.1c0.1,0.3,0.2,0.5,0.2,0.8c-0.4-0.9-0.9-1.8-1.5-2.6c-1.4-2-3.3-3.6-5.4-4.7c-2.2-1-4.7-1.4-7.1-1.1
		C42.2,165.2,41.1,165.5,41.1,165.4z"/>
</g>
</svg>
