<!DOCTYPE svg PUBLIC "-//W3C//DTD SVG 1.1//EN" "http://www.w3.org/Graphics/SVG/1.1/DTD/svg11.dtd">
<!-- Uploaded to: SVG Repo, www.svgrepo.com, Transformed by: SVG Repo Mixer Tools -->
<svg height="800px" width="800px" version="1.1" id="Layer_1" xmlns="http://www.w3.org/2000/svg" xmlns:xlink="http://www.w3.org/1999/xlink" viewBox="0 0 511.99 511.99" xml:space="preserve" fill="#000000">
<g id="SVGRepo_bgCarrier" stroke-width="0"/>
<g id="SVGRepo_tracerCarrier" stroke-linecap="round" stroke-linejoin="round"/>
<g id="SVGRepo_iconCarrier"> <path style="fill:#f52424;" d="M501.335,63.997H10.672C4.781,63.997,0,68.763,0,74.653V437.32c0,5.891,4.781,10.67,10.672,10.67 h210.871c6.766,3.234,23.547,10.672,34.452,10.672c10.922,0,27.703-7.438,34.469-10.672h210.871c5.891,0,10.655-4.779,10.655-10.67 V74.654C511.99,68.763,507.225,63.997,501.335,63.997z"/> <path style="fill:#ffffff;" d="M469.476,42.654h-135.67c-44.655,0-66.921,9.188-77.812,17.046 c-10.874-7.859-33.14-17.046-77.795-17.046H42.53c-5.891,0-10.672,4.781-10.672,10.672V405.32c0,5.891,4.781,10.672,10.672,10.672 h138.811c15.922,0,38.14,2.234,53.483,12.844c8,5.531,10.625,10.922,11.078,11.938c0.062,0.188,0.125,0.375,0.188,0.562 c1.312,3.75,4.546,6.248,8.343,6.795c0.016,0,0.016,0,0.031,0c0.047,0.016,0.109,0.016,0.156,0.016 c0.203,0.031,0.406,0.047,0.609,0.062c0.125,0.016,0.266,0.016,0.406,0.016c0.109,0,0.234,0.016,0.344,0.016 c0.016,0,0.016,0,0.016,0c0.016,0,0.016,0,0.031,0c0.109,0,0.234-0.016,0.344-0.016c0.141,0,0.281,0,0.406-0.016 c0.203-0.016,0.406-0.031,0.609-0.062c0.047,0,0.109,0,0.156-0.016c0.016,0,0.016,0,0.031,0c3.797-0.547,7.031-3.045,8.344-6.795 c0.062-0.188,0.125-0.375,0.188-0.562c0.453-1.016,3.078-6.406,11.078-11.938c15.344-10.609,37.562-12.844,53.483-12.844h138.811 c5.89,0,10.671-4.781,10.671-10.672V53.326C480.147,47.435,475.366,42.654,469.476,42.654z"/> <g> <path style="fill:#434A54;" d="M202.605,138.652H74.608c-5.891,0-10.672-4.765-10.672-10.656c0-5.891,4.781-10.672,10.672-10.672 h127.997c5.891,0,10.656,4.781,10.656,10.672S208.496,138.652,202.605,138.652z"/> <path style="fill:#434A54;" d="M202.605,181.324H74.608c-5.891,0-10.672-4.781-10.672-10.672s4.781-10.656,10.672-10.656h127.997 c5.891,0,10.656,4.766,10.656,10.656S208.496,181.324,202.605,181.324z"/> <path style="fill:#434A54;" d="M202.605,223.994H74.608c-5.891,0-10.672-4.781-10.672-10.672c0-5.89,4.781-10.656,10.672-10.656 h127.997c5.891,0,10.656,4.766,10.656,10.656C213.262,219.213,208.496,223.994,202.605,223.994z"/> <path style="fill:#434A54;" d="M202.605,266.666H74.608c-5.891,0-10.672-4.781-10.672-10.671c0-5.891,4.781-10.672,10.672-10.672 h127.997c5.891,0,10.656,4.781,10.656,10.672C213.262,261.885,208.496,266.666,202.605,266.666z"/> <path style="fill:#434A54;" d="M202.605,309.322H74.608c-5.891,0-10.672-4.766-10.672-10.656s4.782-10.672,10.672-10.672h127.997 c5.891,0,10.656,4.781,10.656,10.672S208.496,309.322,202.605,309.322z"/> <path style="fill:#434A54;" d="M138.606,351.992H74.608c-5.891,0-10.672-4.781-10.672-10.67c0-5.891,4.781-10.656,10.672-10.656 h63.998c5.891,0,10.656,4.766,10.656,10.656C149.263,347.211,144.497,351.992,138.606,351.992z"/> </g> <path style="fill:#f52424;" d="M394.664,21.327h-42.67c-5.891,0-10.656,4.781-10.656,10.672v447.992 c0,3.703,1.906,7.125,5.062,9.078c3.141,1.938,7.062,2.109,10.375,0.469l16.562-8.281l16.562,8.281 c1.5,0.75,3.141,1.125,4.766,1.125c1.953,0,3.891-0.547,5.609-1.594c3.141-1.953,5.062-5.375,5.062-9.078V31.998 C405.336,26.108,400.555,21.327,394.664,21.327z"/> <path style="fill:#CCD1D9;" d="M267.042,53.467c-4.578,2.047-8.203,4.188-11.047,6.234c-2.672-1.937-6.062-3.953-10.296-5.89 v386.557c0.094,0.172,0.156,0.312,0.203,0.406c0.062,0.188,0.125,0.375,0.188,0.562c1.312,3.75,4.546,6.248,8.343,6.795 c0.016,0,0.016,0,0.031,0c0.047,0.016,0.109,0.016,0.156,0.016c0.203,0.031,0.406,0.047,0.609,0.062 c0.125,0.016,0.266,0.016,0.406,0.016c0.109,0,0.234,0.016,0.344,0.016c0.016,0,0.016,0,0.016,0c0.016,0,0.016,0,0.031,0 c0.109,0,0.234-0.016,0.344-0.016c0.141,0,0.281,0,0.406-0.016c0.203-0.016,0.406-0.031,0.609-0.062c0.047,0,0.109,0,0.156-0.016 c0.016,0,0.016,0,0.031,0c3.797-0.547,7.031-3.045,8.344-6.795c0.062-0.188,0.125-0.375,0.188-0.562 c0.125-0.281,0.422-0.891,0.938-1.734V53.467z"/> </g>
</svg>